<svg width="156" height="130" viewBox="0 0 156 130" fill="none" xmlns="http://www.w3.org/2000/svg">
<g clip-path="url(#clip0)">
<path d="M43.8072 29.4141C50.1698 29.4141 55.3277 24.2807 55.3277 17.9484C55.3277 11.616 50.1698 6.48267 43.8072 6.48267C37.4445 6.48267 32.2866 11.616 32.2866 17.9484C32.2866 24.2807 37.4445 29.4141 43.8072 29.4141Z" fill="#FF6584"/>
<path d="M111.08 21.2913H97.2613V8.78857L111.08 21.2913Z" fill="#3F3D56"/>
<path d="M112.695 20.8821H43.1765V116.468H112.695V20.8821Z" fill="#E6E6E6"/>
<path d="M58.2908 27.584H50.1122V44.7355H58.2908V27.584Z" fill="white"/>
<path d="M70.9413 27.584H62.7627V44.7355H70.9413V27.584Z" fill="white"/>
<path d="M57.2129 51.894H49.0342V69.0455H57.2129V51.894Z" fill="white"/>
<path d="M70.9413 51.894H62.7627V69.0455H70.9413V51.894Z" fill="white"/>
<path d="M57.2129 74.3872H49.0342V91.5387H57.2129V74.3872Z" fill="white"/>
<path d="M70.6333 74.0806H62.4547V91.232H70.6333V74.0806Z" fill="white"/>
<path d="M82.5206 99.3552H74.342V116.507H82.5206V99.3552Z" fill="#CCCCCC"/>
<path d="M94.8772 74.0806H86.6985V91.232H94.8772V74.0806Z" fill="white"/>
<path d="M108.606 74.0806H100.427V91.232H108.606V74.0806Z" fill="white"/>
<path d="M95.1852 51.7124H87.0065V68.8639H95.1852V51.7124Z" fill="white"/>
<path d="M108.914 51.7124H100.735V68.8639H108.914V51.7124Z" fill="white"/>
<path d="M95.1852 27.584H87.0065V44.7355H95.1852V27.584Z" fill="white"/>
<path d="M108.914 27.584H100.735V44.7355H108.914V27.584Z" fill="white"/>
<path d="M112.695 42.9753H43.1765V45.5917H112.695V42.9753Z" fill="#3F3D56"/>
<path d="M112.695 63.3247H43.1765V64.7782H112.695V63.3247Z" fill="#3F3D56"/>
<path d="M112.695 58.6733H43.1765V60.1269H112.695V58.6733Z" fill="#3F3D56"/>
<path d="M50.0406 92.6855V81.0574H48.5802V92.6855H50.0406Z" fill="#3F3D56"/>
<path d="M58.2193 92.6855V81.0574H56.7588V92.6855H58.2193Z" fill="#3F3D56"/>
<path d="M66.398 92.6855V81.0574H64.9375V92.6855H66.398Z" fill="#3F3D56"/>
<path d="M74.5766 92.6855V81.0574H73.1161V92.6855H74.5766Z" fill="#3F3D56"/>
<path d="M82.7552 92.6855V81.0574H81.2948V92.6855H82.7552Z" fill="#3F3D56"/>
<path d="M90.934 92.6855V81.0574H89.4735V92.6855H90.934Z" fill="#3F3D56"/>
<path d="M99.1126 92.6855V81.0574H97.6521V92.6855H99.1126Z" fill="#3F3D56"/>
<path d="M107.291 92.6855V81.0574H105.831V92.6855H107.291Z" fill="#3F3D56"/>
<path d="M50.1867 70.5922V58.9641H48.7262V70.5922H50.1867Z" fill="#3F3D56"/>
<path d="M58.3654 70.5922V58.9641H56.9049V70.5922H58.3654Z" fill="#3F3D56"/>
<path d="M66.544 70.5922V58.9641H65.0835V70.5922H66.544Z" fill="#3F3D56"/>
<path d="M74.7227 70.5922V58.9641H73.2622V70.5922H74.7227Z" fill="#3F3D56"/>
<path d="M82.9013 70.5922V58.9641H81.4408V70.5922H82.9013Z" fill="#3F3D56"/>
<path d="M91.08 70.5922V58.9641H89.6195V70.5922H91.08Z" fill="#3F3D56"/>
<path d="M99.2587 70.5922V58.9641H97.7982V70.5922H99.2587Z" fill="#3F3D56"/>
<path d="M107.437 70.5922V58.9641H105.977V70.5922H107.437Z" fill="#3F3D56"/>
<path d="M50.1867 44.7197V33.0916H48.7262V44.7197H50.1867Z" fill="#3F3D56"/>
<path d="M58.3654 44.7197V33.0916H56.9049V44.7197H58.3654Z" fill="#3F3D56"/>
<path d="M66.544 44.7197V33.0916H65.0835V44.7197H66.544Z" fill="#3F3D56"/>
<path d="M74.7227 44.7197V33.0916H73.2622V44.7197H74.7227Z" fill="#3F3D56"/>
<path d="M82.9013 44.7197V33.0916H81.4408V44.7197H82.9013Z" fill="#3F3D56"/>
<path d="M91.08 44.7197V33.0916H89.6195V44.7197H91.08Z" fill="#3F3D56"/>
<path d="M99.2587 44.7197V33.0916H97.7982V44.7197H99.2587Z" fill="#3F3D56"/>
<path d="M107.437 44.7197V33.0916H105.977V44.7197H107.437Z" fill="#3F3D56"/>
<path d="M112.695 37.1614H43.1765V38.6149H112.695V37.1614Z" fill="#3F3D56"/>
<path d="M112.695 32.51H43.1765V33.9635H112.695V32.51Z" fill="#3F3D56"/>
<path d="M112.695 68.2666H43.1765V70.8829H112.695V68.2666Z" fill="#3F3D56"/>
<path d="M115.894 19.8064H39.9774V23.7051H115.894V19.8064Z" fill="#3F3D56"/>
<path d="M58.3063 103.064V99.3552H53.8344V103.064H57.9335H58.3063Z" fill="white"/>
<path d="M57.9335 106.031H53.8344V109.74H58.3063V106.031H57.9335Z" fill="white"/>
<path d="M65.7592 99.3552H61.2874V103.064H65.7592V99.3552Z" fill="white"/>
<path d="M65.7592 106.031H61.2874V109.74H65.7592V106.031Z" fill="white"/>
<path d="M94.7787 103.064V99.3552H90.3068V103.064H94.4059H94.7787Z" fill="white"/>
<path d="M94.4059 106.031H90.3068V109.74H94.7787V106.031H94.4059Z" fill="white"/>
<path d="M102.232 99.3552H97.7598V103.064H102.232V99.3552Z" fill="white"/>
<path d="M102.232 106.031H97.7598V109.74H102.232V106.031Z" fill="white"/>
<path d="M112.695 90.3599H43.1765V92.9762H112.695V90.3599Z" fill="#3F3D56"/>
<path d="M112.695 85.7087H43.1765V87.1622H112.695V85.7087Z" fill="#3F3D56"/>
<path d="M112.695 81.0574H43.1765V82.5109H112.695V81.0574Z" fill="#3F3D56"/>
<path d="M64.2226 115.222C64.2227 115.142 64.2216 115.061 64.2193 114.981C64.1568 112.838 62.0209 112.257 60.8758 113.271C60.5144 112.959 60.0519 112.787 59.5734 112.787C59.0948 112.787 58.6323 112.959 58.2709 113.271C57.121 112.273 55.0276 112.813 54.9584 114.931C54.9558 115.011 54.9544 115.092 54.9543 115.173C54.9576 115.618 54.9851 116.063 55.0365 116.506H64.1415C64.191 116.08 64.2181 115.651 64.2226 115.222Z" fill="#05396B"/>
<path d="M100.41 115.222C100.41 115.142 100.409 115.061 100.407 114.981C100.344 112.838 98.2083 112.257 97.0632 113.271C96.7019 112.959 96.2394 112.787 95.7608 112.787C95.2822 112.787 94.8197 112.959 94.4584 113.271C93.3084 112.273 91.215 112.813 91.1459 114.931C91.1433 115.011 91.1419 115.092 91.1417 115.173C91.1451 115.618 91.1725 116.063 91.2239 116.506H100.329C100.378 116.08 100.406 115.651 100.41 115.222Z" fill="#05396B"/>
<path d="M150.346 116.651H148.938L149.407 89.2749H149.877L150.346 116.651Z" fill="#E6E6E6"/>
<path d="M151.52 72.04L153.793 68.5439C153.119 66.6907 152.34 64.8768 151.461 63.1109L149.991 64.2924L151.155 62.5023C150.045 60.3295 149.173 58.9604 149.173 58.9604C149.173 58.9604 144.614 66.11 143.091 73.6797L146.008 78.1661L142.779 75.5704C142.664 76.4522 142.605 77.3403 142.602 78.2295C142.602 87.1945 145.544 94.4622 149.173 94.4622C152.802 94.4622 155.744 87.1945 155.744 78.2295C155.744 75.4502 155.112 72.5425 154.241 69.8528L151.52 72.04Z" fill="#E6E6E6"/>
<path d="M145.388 78.3601H115.347V100.375H115.365V104.757L119.769 100.375H145.388V78.3601Z" fill="#05396B"/>
<path d="M107.397 125.376H80.7449V126.424H107.397V125.376Z" fill="#E6E6E6"/>
<path d="M156 125.376H129.203V126.424H156V125.376Z" fill="#E6E6E6"/>
<path d="M58.9737 125.376H32.2866V126.424H58.9737V125.376Z" fill="#E6E6E6"/>
<path d="M155.89 116.483H0V116.775H155.89V116.483Z" fill="#3F3D56"/>
<path d="M122.268 121.532L125.407 121.533L125.407 121.037L122.269 121.036L122.268 121.532Z" fill="#3F3D56"/>
<path d="M99.5765 121.148L100.224 121.297L124.834 121.31L125.055 120.797C125.441 119.916 125.574 118.947 125.438 117.996C125.332 117.287 125.066 116.583 124.463 116.277L123.371 109.038L109.756 109.014L104.488 113.242C104.488 113.242 102.003 113.198 100.653 114.87C100.166 115.492 99.8785 116.246 99.8278 117.033L99.7746 117.903L99.5765 121.148Z" fill="#05396B"/>
<path d="M104.982 124.051C106.66 124.051 108.021 122.697 108.021 121.027C108.021 119.356 106.66 118.002 104.982 118.002C103.304 118.002 101.943 119.356 101.943 121.027C101.943 122.697 103.304 124.051 104.982 124.051Z" fill="#3F3D56"/>
<path d="M104.982 122.618C105.865 122.618 106.581 121.905 106.581 121.026C106.581 120.147 105.865 119.435 104.982 119.435C104.099 119.435 103.382 120.147 103.382 121.026C103.382 121.905 104.099 122.618 104.982 122.618Z" fill="#CCCCCC"/>
<path d="M119.977 124.059C121.655 124.059 123.016 122.705 123.016 121.034C123.016 119.364 121.655 118.01 119.977 118.01C118.299 118.01 116.938 119.364 116.938 121.034C116.938 122.705 118.299 124.059 119.977 124.059Z" fill="#3F3D56"/>
<path d="M119.977 122.626C120.86 122.626 121.576 121.914 121.576 121.034C121.576 120.155 120.86 119.443 119.977 119.443C119.094 119.443 118.378 120.155 118.378 121.034C118.378 121.914 119.094 122.626 119.977 122.626Z" fill="#CCCCCC"/>
<path d="M106.581 112.748L113.932 112.751H114.829L116.344 112.752V112.642L116.345 111.316L116.347 109.827H115.339L114.441 109.826L112.852 109.825H111.954L110.119 109.824L106.581 112.748Z" fill="white"/>
<path d="M117.541 112.753L121.426 112.755L121.427 111.996V110.671L121.428 109.83H120.859L119.962 109.829L117.542 109.828L117.541 112.753Z" fill="white"/>
<path d="M115.844 115.877L116.342 115.877L116.343 114.935L115.845 114.935L115.844 115.877Z" fill="#3F3D56"/>
<path d="M108.573 114.088L108.573 113.592L107.627 113.592L107.627 114.087L108.573 114.088Z" fill="#3F3D56"/>
<path d="M108.224 113.809L108.169 113.809C107.893 113.809 107.628 113.7 107.433 113.505C107.238 113.311 107.128 113.047 107.128 112.773C107.129 112.498 107.238 112.234 107.434 112.04C107.629 111.846 107.894 111.737 108.17 111.737L108.225 111.737L108.224 113.809Z" fill="#3F3D56"/>
<path d="M99.7746 117.903C100.151 117.943 100.53 117.851 100.845 117.641C101.16 117.43 101.39 117.117 101.495 116.754C101.6 116.392 101.573 116.004 101.419 115.659C101.265 115.315 100.994 115.035 100.653 114.87C100.166 115.492 99.8785 116.246 99.8279 117.033L99.7746 117.903Z" fill="#3F3D56"/>
<path d="M114.441 109.826L116.344 112.642L116.345 111.316L115.339 109.827L114.441 109.826Z" fill="#F2F2F2"/>
<path d="M119.962 109.829L121.427 111.996V110.671L120.859 109.83L119.962 109.829Z" fill="#F2F2F2"/>
<path d="M111.954 109.825L113.932 112.751H114.829L112.852 109.825H111.954Z" fill="#F2F2F2"/>
<path d="M72.0549 0.183115L72.0346 0.194124C71.8153 0.313503 71.5695 0.376486 71.3195 0.377359C71.0695 0.378232 70.8232 0.316966 70.6031 0.19912C70.5904 0.192309 70.5778 0.185583 70.5652 0.178943C70.3451 0.0619919 70.0992 0.00122373 69.8497 0.00208127C69.6001 0.00293881 69.3547 0.0653956 69.1353 0.183857L69.1164 0.194124C68.897 0.313503 68.6512 0.376486 68.4013 0.377359C68.1513 0.378232 67.905 0.316966 67.6849 0.19912C67.6717 0.192049 67.6586 0.18507 67.6456 0.178182C67.428 0.0617668 67.1849 0.000625879 66.9379 0.000190885C66.6909 -0.000244108 66.4476 0.0600408 66.2296 0.175689C65.5638 0.532561 64.6637 1.14273 64.6676 1.83181C64.6678 1.85906 64.6693 1.88628 64.6723 1.91338C64.7497 2.62899 67.095 2.81133 68.3833 2.47408C69.3437 2.69218 70.3411 2.69218 71.3015 2.47408C72.5844 2.81673 74.9774 2.62042 75.0473 1.8966C75.05 1.86948 75.0512 1.84224 75.051 1.81499C75.0471 1.12554 74.139 0.521768 73.469 0.169919C73.2504 0.056108 73.0069 -0.00223645 72.7603 6.55704e-05C72.5136 0.00236759 72.2713 0.0652441 72.0549 0.183115Z" fill="#E6E6E6"/>
<path d="M136.666 23.8103L136.646 23.8213C136.426 23.9407 136.181 24.0037 135.931 24.0046C135.681 24.0054 135.434 23.9442 135.214 23.8263C135.201 23.8195 135.189 23.8128 135.176 23.8061C134.956 23.6892 134.71 23.6284 134.461 23.6293C134.211 23.6301 133.966 23.6926 133.746 23.8111L133.727 23.8213C133.508 23.9407 133.262 24.0037 133.012 24.0046C132.762 24.0054 132.516 23.9442 132.296 23.8263C132.283 23.8192 132.27 23.8123 132.257 23.8054C132.039 23.689 131.796 23.6278 131.549 23.6274C131.302 23.627 131.059 23.6872 130.841 23.8029C130.175 24.1598 129.275 24.7699 129.279 25.459C129.279 25.4863 129.28 25.5135 129.283 25.5406C129.361 26.2562 131.706 26.4385 132.994 26.1013C133.955 26.3194 134.952 26.3194 135.913 26.1013C137.195 26.4439 139.588 26.2476 139.658 25.5238C139.661 25.4967 139.662 25.4694 139.662 25.4422C139.658 24.7527 138.75 24.149 138.08 23.7971C137.861 23.6833 137.618 23.625 137.371 23.6273C137.125 23.6296 136.882 23.6924 136.666 23.8103Z" fill="#E6E6E6"/>
<path d="M23.5211 25.1294L23.5008 25.1404C23.2814 25.2598 23.0356 25.3228 22.7857 25.3236C22.5357 25.3245 22.2894 25.2633 22.0693 25.1454C22.0566 25.1386 22.0439 25.1319 22.0314 25.1252C21.8113 25.0083 21.5654 24.9475 21.3158 24.9484C21.0663 24.9492 20.8208 25.0117 20.6015 25.1301L20.5826 25.1404C20.3632 25.2598 20.1174 25.3228 19.8674 25.3236C19.6175 25.3245 19.3712 25.2633 19.151 25.1454C19.1379 25.1383 19.1248 25.1314 19.1118 25.1245C18.8942 25.0081 18.6511 24.9469 18.4041 24.9465C18.1571 24.946 17.9138 25.0063 17.6958 25.122C17.03 25.4788 16.1298 26.089 16.1338 26.7781C16.134 26.8053 16.1355 26.8326 16.1385 26.8597C16.2159 27.5753 18.5611 27.7576 19.8495 27.4204C20.8099 27.6385 21.8073 27.6385 22.7677 27.4204C24.0506 27.763 26.4436 27.5667 26.5135 26.8429C26.5161 26.8158 26.5174 26.7885 26.5172 26.7613C26.5133 26.0718 25.6052 25.4681 24.9351 25.1162C24.7166 25.0024 24.4731 24.9441 24.2264 24.9464C23.9798 24.9487 23.7375 25.0115 23.5211 25.1294Z" fill="#E6E6E6"/>
<path d="M19.3402 126.978H16.2017V127.473H19.3402V126.978Z" fill="#3F3D56"/>
<path d="M42.032 127.089L41.3845 127.238L16.7746 127.251L16.5533 126.738C16.1674 125.858 16.0349 124.888 16.1707 123.937C16.2767 123.228 16.5423 122.524 17.1455 122.218L18.2376 114.979L31.853 114.955L37.1208 119.183C37.1208 119.183 39.6056 119.139 40.9556 120.812C41.4426 121.433 41.7301 122.187 41.7808 122.974L41.834 123.844L42.032 127.089Z" fill="#05396B"/>
<path d="M36.6267 129.992C38.305 129.992 39.6656 128.638 39.6656 126.967C39.6656 125.297 38.305 123.943 36.6267 123.943C34.9484 123.943 33.5878 125.297 33.5878 126.967C33.5878 128.638 34.9484 129.992 36.6267 129.992Z" fill="#3F3D56"/>
<path d="M36.6267 128.559C37.51 128.559 38.2261 127.847 38.2261 126.968C38.2261 126.088 37.51 125.376 36.6267 125.376C35.7434 125.376 35.0273 126.088 35.0273 126.968C35.0273 127.847 35.7434 128.559 36.6267 128.559Z" fill="#CCCCCC"/>
<path d="M21.6316 130C23.31 130 24.6705 128.646 24.6705 126.976C24.6705 125.305 23.31 123.951 21.6316 123.951C19.9533 123.951 18.5928 125.305 18.5928 126.976C18.5928 128.646 19.9533 130 21.6316 130Z" fill="#3F3D56"/>
<path d="M21.6316 128.567C22.515 128.567 23.231 127.855 23.231 126.976C23.231 126.096 22.515 125.384 21.6316 125.384C20.7483 125.384 20.0322 126.096 20.0322 126.976C20.0322 127.855 20.7483 128.567 21.6316 128.567Z" fill="#CCCCCC"/>
<path d="M35.0278 118.689L27.6765 118.692H26.7792L25.2641 118.693V118.583L25.2631 117.257L25.262 115.769H26.27L27.1673 115.767L28.7568 115.766H29.6542L31.4893 115.765L35.0278 118.689Z" fill="white"/>
<path d="M24.068 118.694L20.1829 118.696L20.1818 117.938V116.612L20.1808 115.772H20.7496L21.647 115.771L24.0669 115.77L24.068 118.694Z" fill="white"/>
<path d="M25.7635 120.875H25.2653V121.817H25.7635V120.875Z" fill="#3F3D56"/>
<path d="M33.9827 120.028L33.9824 119.532L33.0359 119.532L33.0362 120.028L33.9827 120.028Z" fill="#3F3D56"/>
<path d="M33.3842 117.678H33.439C33.5757 117.678 33.7111 117.705 33.8374 117.757C33.9637 117.809 34.0785 117.885 34.1752 117.981C34.2719 118.077 34.3486 118.192 34.4009 118.317C34.4532 118.443 34.4801 118.578 34.4801 118.714C34.4801 118.989 34.3704 119.252 34.1752 119.447C33.9799 119.641 33.7151 119.75 33.439 119.75H33.3842V117.678H33.3842Z" fill="#3F3D56"/>
<path d="M41.834 123.844C41.4573 123.885 41.0781 123.792 40.7634 123.582C40.4487 123.372 40.2186 123.058 40.1136 122.695C40.0087 122.333 40.0355 121.945 40.1896 121.601C40.3436 121.256 40.6148 120.977 40.9556 120.812C41.4425 121.433 41.7301 122.187 41.7807 122.974L41.834 123.844Z" fill="#3F3D56"/>
<path d="M27.1674 115.767L25.2642 118.583L25.2631 117.257L26.27 115.769L27.1674 115.767Z" fill="#F2F2F2"/>
<path d="M21.647 115.771L20.1818 117.938V116.612L20.7496 115.772L21.647 115.771Z" fill="#F2F2F2"/>
<path d="M29.6542 115.766L27.6765 118.692H26.7792L28.7568 115.766H29.6542Z" fill="#F2F2F2"/>
<path d="M129.315 94.0594L125.479 89.1507L127.709 87.4237L129.526 89.7479L135.662 83.3015L137.714 85.2362L129.315 94.0594Z" fill="white"/>
<path d="M1.11316 83.9304H31.1545V105.945H31.1362V110.328L26.7323 105.945H1.11316V83.9304Z" fill="#05396B"/>
<path d="M15.2823 100.154L11.446 95.2452L13.677 93.518L15.4933 95.8424L21.6294 89.396L23.6814 91.3305L15.2823 100.154Z" fill="white"/>
</g>
<defs>
<clipPath id="clip0">
<rect width="156" height="130" fill="white"/>
</clipPath>
</defs>
</svg>
