<svg width="130" height="39" viewBox="0 0 130 39" fill="none" xmlns="http://www.w3.org/2000/svg">
<path d="M15.5 20.9375C18.503 20.9375 20.9375 18.503 20.9375 15.5C20.9375 12.497 18.503 10.0625 15.5 10.0625C12.497 10.0625 10.0625 12.497 10.0625 15.5C10.0625 18.503 12.497 20.9375 15.5 20.9375Z" stroke="#05386B" stroke-width="2" stroke-linecap="round" stroke-linejoin="round"/>
<path d="M15.5 1C11.6544 1 7.96623 2.52767 5.24695 5.24695C2.52767 7.96623 1 11.6544 1 15.5C1 18.9292 1.72862 21.1731 3.71875 23.6562L15.5 37.25L27.2812 23.6562C29.2714 21.1731 30 18.9292 30 15.5C30 11.6544 28.4723 7.96623 25.753 5.24695C23.0338 2.52767 19.3456 1 15.5 1V1Z" stroke="#05386B" stroke-width="2" stroke-linecap="round" stroke-linejoin="round"/>
<path d="M38.965 10.95C39.885 10.95 40.695 11.095 41.395 11.385C42.105 11.665 42.72 12.08 43.24 12.63L41.995 14.295C41.565 13.845 41.1 13.51 40.6 13.29C40.11 13.06 39.55 12.945 38.92 12.945C38.37 12.945 37.975 13.035 37.735 13.215C37.495 13.395 37.375 13.615 37.375 13.875C37.375 14.085 37.47 14.265 37.66 14.415C37.86 14.555 38.18 14.675 38.62 14.775L40.285 15.15C41.275 15.38 42 15.715 42.46 16.155C42.92 16.595 43.15 17.18 43.15 17.91C43.15 18.61 42.97 19.205 42.61 19.695C42.25 20.175 41.755 20.54 41.125 20.79C40.495 21.03 39.775 21.15 38.965 21.15C37.965 21.15 37.05 20.99 36.22 20.67C35.39 20.34 34.73 19.91 34.24 19.38L35.485 17.655C35.855 18.085 36.355 18.445 36.985 18.735C37.615 19.015 38.265 19.155 38.935 19.155C39.975 19.155 40.495 18.85 40.495 18.24C40.495 18.03 40.415 17.855 40.255 17.715C40.105 17.565 39.825 17.44 39.415 17.34L37.585 16.935C37.025 16.815 36.525 16.645 36.085 16.425C35.655 16.205 35.315 15.915 35.065 15.555C34.815 15.185 34.69 14.725 34.69 14.175C34.69 13.555 34.86 13.005 35.2 12.525C35.54 12.035 36.03 11.65 36.67 11.37C37.31 11.09 38.075 10.95 38.965 10.95ZM48.4094 16.245C48.4094 15.895 48.3094 15.62 48.1094 15.42C47.9194 15.21 47.6594 15.105 47.3294 15.105C46.9994 15.105 46.7144 15.19 46.4744 15.36C46.2444 15.52 46.0844 15.81 45.9944 16.23L43.8344 15.72C43.9744 15 44.3444 14.425 44.9444 13.995C45.5444 13.565 46.3894 13.35 47.4794 13.35C48.5794 13.35 49.4294 13.595 50.0294 14.085C50.6394 14.565 50.9444 15.27 50.9444 16.2V18.945C50.9444 19.335 51.1194 19.53 51.4694 19.53C51.6494 19.53 51.7944 19.51 51.9044 19.47L51.7544 20.925C51.4544 21.065 51.0894 21.135 50.6594 21.135C50.1894 21.135 49.7844 21.045 49.4444 20.865C49.1044 20.675 48.8744 20.39 48.7544 20.01C48.5444 20.4 48.2094 20.69 47.7494 20.88C47.2994 21.06 46.8194 21.15 46.3094 21.15C45.5394 21.15 44.9244 20.975 44.4644 20.625C44.0144 20.265 43.7894 19.75 43.7894 19.08C43.7894 18.54 43.9494 18.095 44.2694 17.745C44.5994 17.385 45.1144 17.135 45.8144 16.995L48.4094 16.455V16.245ZM46.3094 18.84C46.3094 19.06 46.3894 19.225 46.5494 19.335C46.7094 19.445 46.8994 19.5 47.1194 19.5C47.4594 19.5 47.7594 19.4 48.0194 19.2C48.2794 18.99 48.4094 18.665 48.4094 18.225V17.805L47.1944 18.06C46.8944 18.12 46.6694 18.21 46.5194 18.33C46.3794 18.44 46.3094 18.61 46.3094 18.84ZM57.149 13.5H59.789L57.089 21H54.044L51.344 13.5H54.029L55.574 19.215L57.149 13.5ZM63.9104 21.15C62.6604 21.15 61.6704 20.81 60.9404 20.13C60.2204 19.45 59.8604 18.49 59.8604 17.25C59.8604 16.43 60.0254 15.73 60.3554 15.15C60.6954 14.56 61.1554 14.115 61.7354 13.815C62.3254 13.505 63.0104 13.35 63.7904 13.35C64.5804 13.35 65.2504 13.505 65.8004 13.815C66.3604 14.115 66.7854 14.535 67.0754 15.075C67.3654 15.605 67.5104 16.215 67.5104 16.905C67.5104 17.095 67.5004 17.28 67.4804 17.46C67.4704 17.63 67.4604 17.775 67.4504 17.895H62.3354C62.4054 18.415 62.5754 18.79 62.8454 19.02C63.1154 19.24 63.4704 19.35 63.9104 19.35C64.2904 19.35 64.5904 19.275 64.8104 19.125C65.0404 18.975 65.2104 18.765 65.3204 18.495L67.3604 19.17C67.2204 19.6 66.9754 19.965 66.6254 20.265C66.2854 20.555 65.8754 20.775 65.3954 20.925C64.9254 21.075 64.4304 21.15 63.9104 21.15ZM63.7904 15.135C62.9804 15.135 62.5004 15.6 62.3504 16.53H65.0954C64.9854 15.6 64.5504 15.135 63.7904 15.135ZM74.4269 15.945V18.03H68.9369V15.945H74.4269ZM75.1137 21L78.5937 11.1H81.6837L85.1487 21H82.4937L81.8187 18.765H78.3987L77.7087 21H75.1137ZM79.6887 14.625L78.9387 17.01H81.2787L80.5587 14.64L80.1237 13.08H80.0937L79.6887 14.625ZM91.3171 15.945V18.03H85.8271V15.945H91.3171ZM96.865 10.95C97.785 10.95 98.595 11.095 99.295 11.385C100.005 11.665 100.62 12.08 101.14 12.63L99.895 14.295C99.465 13.845 99 13.51 98.5 13.29C98.01 13.06 97.45 12.945 96.82 12.945C96.27 12.945 95.875 13.035 95.635 13.215C95.395 13.395 95.275 13.615 95.275 13.875C95.275 14.085 95.37 14.265 95.56 14.415C95.76 14.555 96.08 14.675 96.52 14.775L98.185 15.15C99.175 15.38 99.9 15.715 100.36 16.155C100.82 16.595 101.05 17.18 101.05 17.91C101.05 18.61 100.87 19.205 100.51 19.695C100.15 20.175 99.655 20.54 99.025 20.79C98.395 21.03 97.675 21.15 96.865 21.15C95.865 21.15 94.95 20.99 94.12 20.67C93.29 20.34 92.63 19.91 92.14 19.38L93.385 17.655C93.755 18.085 94.255 18.445 94.885 18.735C95.515 19.015 96.165 19.155 96.835 19.155C97.875 19.155 98.395 18.85 98.395 18.24C98.395 18.03 98.315 17.855 98.155 17.715C98.005 17.565 97.725 17.44 97.315 17.34L95.485 16.935C94.925 16.815 94.425 16.645 93.985 16.425C93.555 16.205 93.215 15.915 92.965 15.555C92.715 15.185 92.59 14.725 92.59 14.175C92.59 13.555 92.76 13.005 93.1 12.525C93.44 12.035 93.93 11.65 94.57 11.37C95.21 11.09 95.975 10.95 96.865 10.95ZM102.154 24.15V13.5H104.449L104.524 15.015C104.734 14.515 105.049 14.115 105.469 13.815C105.899 13.505 106.404 13.35 106.984 13.35C107.904 13.35 108.644 13.69 109.204 14.37C109.774 15.05 110.059 16 110.059 17.22C110.059 18.46 109.769 19.425 109.189 20.115C108.619 20.805 107.874 21.15 106.954 21.15C106.414 21.15 105.954 21.02 105.574 20.76C105.194 20.49 104.904 20.14 104.704 19.71V24.15H102.154ZM106.084 19.275C106.524 19.275 106.869 19.115 107.119 18.795C107.369 18.465 107.494 17.95 107.494 17.25C107.494 16.55 107.369 16.04 107.119 15.72C106.879 15.39 106.539 15.225 106.099 15.225C105.669 15.225 105.329 15.4 105.079 15.75C104.829 16.09 104.704 16.59 104.704 17.25C104.704 17.88 104.824 18.375 105.064 18.735C105.304 19.095 105.644 19.275 106.084 19.275ZM114.828 13.35C115.618 13.35 116.308 13.505 116.898 13.815C117.498 14.125 117.963 14.57 118.293 15.15C118.633 15.73 118.803 16.43 118.803 17.25C118.803 18.07 118.633 18.77 118.293 19.35C117.963 19.93 117.498 20.375 116.898 20.685C116.308 20.995 115.618 21.15 114.828 21.15C114.048 21.15 113.358 20.995 112.758 20.685C112.168 20.375 111.703 19.93 111.363 19.35C111.033 18.77 110.868 18.07 110.868 17.25C110.868 16.43 111.033 15.73 111.363 15.15C111.703 14.57 112.168 14.125 112.758 13.815C113.358 13.505 114.048 13.35 114.828 13.35ZM114.828 15.165C114.388 15.165 114.043 15.33 113.793 15.66C113.553 15.98 113.433 16.51 113.433 17.25C113.433 17.98 113.553 18.51 113.793 18.84C114.043 19.17 114.388 19.335 114.828 19.335C115.278 19.335 115.623 19.17 115.863 18.84C116.113 18.51 116.238 17.98 116.238 17.25C116.238 16.51 116.113 15.98 115.863 15.66C115.623 15.33 115.278 15.165 114.828 15.165ZM125.249 13.5V15.315H123.014V18.33C123.014 18.69 123.099 18.95 123.269 19.11C123.449 19.26 123.694 19.335 124.004 19.335C124.244 19.335 124.449 19.31 124.619 19.26C124.789 19.2 124.949 19.115 125.099 19.005L125.369 20.58C125.119 20.75 124.799 20.89 124.409 21C124.029 21.1 123.644 21.15 123.254 21.15C122.394 21.15 121.714 20.97 121.214 20.61C120.724 20.24 120.474 19.62 120.464 18.75V15.315H119.174V13.5H120.464V11.82L123.014 11.115V13.5H125.249ZM128.797 11.1V14.295L128.512 17.775H126.427L126.142 14.295V11.1H128.797ZM127.462 18.615C127.912 18.615 128.267 18.725 128.527 18.945C128.787 19.165 128.917 19.475 128.917 19.875C128.917 20.265 128.787 20.57 128.527 20.79C128.267 21.01 127.912 21.12 127.462 21.12C127.012 21.12 126.657 21.01 126.397 20.79C126.147 20.57 126.022 20.265 126.022 19.875C126.022 19.475 126.147 19.165 126.397 18.945C126.657 18.725 127.012 18.615 127.462 18.615Z" fill="#05386B"/>
</svg>
