<svg width="461" height="376" viewBox="0 0 461 376" fill="none" xmlns="http://www.w3.org/2000/svg">
<g clip-path="url(#clip0)">
<path opacity="0.1" d="M450.875 374.597C454.771 370.703 450.262 359.881 440.805 350.427C431.347 340.972 420.522 336.465 416.626 340.359C412.731 344.253 417.239 355.075 426.697 364.53C436.155 373.984 446.98 378.491 450.875 374.597Z" fill="#05396B"/>
<path d="M435.465 359.059C438.422 359.059 440.819 355.92 440.819 352.049C440.819 348.178 438.422 345.04 435.465 345.04C432.508 345.04 430.11 348.178 430.11 352.049C430.11 355.92 432.508 359.059 435.465 359.059Z" fill="#3F3D56"/>
<path d="M435.465 350.493C438.422 350.493 440.819 347.355 440.819 343.484C440.819 339.613 438.422 336.475 435.465 336.475C432.508 336.475 430.11 339.613 430.11 343.484C430.11 347.355 432.508 350.493 435.465 350.493Z" fill="#3F3D56"/>
<path d="M435.465 341.927C438.422 341.927 440.819 338.789 440.819 334.918C440.819 331.047 438.422 327.909 435.465 327.909C432.508 327.909 430.11 331.047 430.11 334.918C430.11 338.789 432.508 341.927 435.465 341.927Z" fill="#3F3D56"/>
<path d="M435.465 333.362C438.422 333.362 440.819 330.224 440.819 326.353C440.819 322.482 438.422 319.344 435.465 319.344C432.508 319.344 430.11 322.482 430.11 326.353C430.11 330.224 432.508 333.362 435.465 333.362Z" fill="#3F3D56"/>
<path d="M435.465 324.796C438.422 324.796 440.819 321.658 440.819 317.787C440.819 313.916 438.422 310.778 435.465 310.778C432.508 310.778 430.11 313.916 430.11 317.787C430.11 321.658 432.508 324.796 435.465 324.796Z" fill="#3F3D56"/>
<path d="M435.465 316.231C438.422 316.231 440.819 313.093 440.819 309.222C440.819 305.351 438.422 302.213 435.465 302.213C432.508 302.213 430.11 305.351 430.11 309.222C430.11 313.093 432.508 316.231 435.465 316.231Z" fill="#3F3D56"/>
<path d="M435.465 307.665C438.422 307.665 440.819 304.527 440.819 300.656C440.819 296.785 438.422 293.647 435.465 293.647C432.508 293.647 430.11 296.785 430.11 300.656C430.11 304.527 432.508 307.665 435.465 307.665Z" fill="#3F3D56"/>
<path d="M455.511 242.04C456.243 241.109 456.91 240.129 457.507 239.106L443.434 236.796L458.654 236.906C460.115 233.731 460.912 230.292 460.998 226.798C461.083 223.305 460.456 219.83 459.153 216.587L438.738 227.178L457.557 213.34C455.794 210.289 453.421 207.635 450.587 205.542C447.753 203.448 444.518 201.961 441.083 201.173C437.649 200.384 434.089 200.312 430.625 200.959C427.161 201.607 423.868 202.961 420.951 204.938C418.034 206.914 415.555 209.469 413.669 212.445C411.784 215.421 410.531 218.754 409.991 222.235C409.45 225.716 409.633 229.271 410.527 232.678C411.422 236.086 413.009 239.272 415.189 242.04C414.049 243.488 413.068 245.055 412.265 246.714L430.529 256.192L411.067 249.657C409.701 253.699 409.363 258.017 410.086 262.221C410.808 266.425 412.567 270.384 415.204 273.738C412.228 277.52 410.377 282.063 409.862 286.847C409.347 291.632 410.19 296.464 412.293 300.793C414.396 305.122 417.675 308.771 421.755 311.324C425.835 313.878 430.551 315.232 435.365 315.232C440.179 315.232 444.895 313.878 448.975 311.324C453.055 308.771 456.334 305.122 458.437 300.793C460.54 296.464 461.383 291.632 460.868 286.847C460.353 282.063 458.502 277.52 455.526 273.738C459.081 269.217 461.015 263.634 461.015 257.884C461.015 252.133 459.081 246.55 455.526 242.03L455.511 242.04Z" fill="#05396B"/>
<path opacity="0.1" d="M409.7 257.894C409.69 263.646 411.625 269.232 415.189 273.748C412.213 277.53 410.362 282.073 409.847 286.857C409.332 291.642 410.175 296.474 412.278 300.803C414.381 305.131 417.66 308.781 421.74 311.334C425.82 313.888 430.536 315.242 435.35 315.242C440.164 315.242 444.88 313.888 448.96 311.334C453.04 308.781 456.319 305.131 458.422 300.803C460.526 296.474 461.368 291.642 460.853 286.857C460.338 282.073 458.487 277.53 455.511 273.748C458.949 269.387 409.7 255.015 409.7 257.894Z" fill="black"/>
<path d="M422.66 0V359.183L300.898 342.222L152.882 372.408L151.689 372.653L33.9188 340.226V27.9365L156.18 0L289.919 27.9365L295.004 26.8639L422.66 0Z" fill="#444053"/>
<path d="M402.2 19.6154V340.99L293.257 325.814L160.821 352.823L159.753 353.037L54.3788 324.028V44.6086L163.775 19.6154L283.432 44.6086L287.983 43.6507L402.2 19.6154Z" fill="white"/>
<path opacity="0.1" d="M300.898 342.222L152.882 372.408L156.18 0L289.919 27.9365L295.004 26.8639L300.898 342.222Z" fill="black"/>
<g opacity="0.3">
<path opacity="0.3" d="M286.116 68.8434L286.176 173.356H329.592V130.453H403.946L412.679 119.259" stroke="#444053" stroke-width="3" stroke-miterlimit="10"/>
<path opacity="0.3" d="M44.3983 102.018H205.833L215.814 97.5282H219.806V198.299H289.669L292.664 207.279V252.675H346.558V308.798" stroke="#444053" stroke-width="3" stroke-miterlimit="10"/>
<path opacity="0.3" d="M241.129 308.798V198.299" stroke="#444053" stroke-width="3" stroke-miterlimit="10"/>
<path opacity="0.3" d="M412.679 279.195H241.129" stroke="#444053" stroke-width="3" stroke-miterlimit="10"/>
<path opacity="0.3" d="M369.713 68.8434V308.798" stroke="#444053" stroke-width="3" stroke-miterlimit="10"/>
<path opacity="0.3" d="M43.8993 257.983H412.679" stroke="#444053" stroke-width="3" stroke-miterlimit="10"/>
<path opacity="0.3" d="M88.7817 308.798V68.8434" stroke="#444053" stroke-width="3" stroke-miterlimit="10"/>
<path opacity="0.3" d="M174.504 68.8434V308.798" stroke="#444053" stroke-width="3" stroke-miterlimit="10"/>
<path opacity="0.3" d="M44.3983 129.456L329.592 130.453" stroke="#444053" stroke-width="3" stroke-miterlimit="10"/>
<path opacity="0.3" d="M127.401 69.2775V308.798" stroke="#444053" stroke-width="3" stroke-miterlimit="10"/>
<path opacity="0.3" d="M43.8993 184.989H174.504L241.129 257.983" stroke="#444053" stroke-width="3" stroke-miterlimit="10"/>
<path opacity="0.3" d="M255.561 68.8434V198.299" stroke="#444053" stroke-width="3" stroke-miterlimit="10"/>
<path opacity="0.3" d="M241.129 221.486H412.679" stroke="#444053" stroke-width="3" stroke-miterlimit="10"/>
</g>
<path d="M292.414 220.499H242.013V198.549L289.67 198.299L292.664 206.78L292.414 220.499Z" fill="#05396B"/>
<path d="M267.463 106.757C260.147 106.757 253.13 109.663 247.957 114.834C242.783 120.006 239.877 127.021 239.877 134.335C239.877 149.565 267.463 199.047 267.463 199.047C267.463 199.047 295.049 149.585 295.049 134.335C295.049 127.021 292.143 120.006 286.969 114.834C281.796 109.663 274.779 106.757 267.463 106.757ZM267.463 146.098C265.063 146.098 262.716 145.386 260.72 144.053C258.724 142.72 257.169 140.825 256.25 138.608C255.332 136.391 255.091 133.952 255.56 131.598C256.028 129.245 257.184 127.083 258.881 125.386C260.578 123.69 262.741 122.534 265.095 122.066C267.449 121.598 269.89 121.838 272.107 122.757C274.325 123.675 276.22 125.23 277.554 127.225C278.887 129.22 279.599 131.566 279.599 133.965C279.598 137.182 278.319 140.267 276.043 142.541C273.767 144.815 270.681 146.093 267.463 146.093V146.098Z" fill="#05396B"/>
<path opacity="0.1" d="M267.463 106.757C260.147 106.757 253.13 109.663 247.957 114.834C242.783 120.006 239.877 127.021 239.877 134.335C239.877 149.565 267.463 199.047 267.463 199.047C267.463 199.047 295.049 149.585 295.049 134.335C295.049 127.021 292.143 120.006 286.969 114.834C281.796 109.663 274.779 106.757 267.463 106.757ZM267.463 146.098C265.063 146.098 262.716 145.386 260.72 144.053C258.724 142.72 257.169 140.825 256.25 138.608C255.332 136.391 255.091 133.952 255.56 131.598C256.028 129.245 257.184 127.083 258.881 125.386C260.578 123.69 262.741 122.534 265.095 122.066C267.449 121.598 269.89 121.838 272.107 122.757C274.325 123.675 276.22 125.23 277.554 127.225C278.887 129.22 279.599 131.566 279.599 133.965C279.598 137.182 278.319 140.267 276.043 142.541C273.767 144.815 270.681 146.093 267.463 146.093V146.098Z" fill="black"/>
<path d="M267.463 110.748C260.147 110.748 253.13 113.654 247.957 118.825C242.783 123.997 239.877 131.011 239.877 138.325C239.877 153.556 267.463 203.038 267.463 203.038C267.463 203.038 295.049 153.576 295.049 138.325C295.049 131.011 292.143 123.997 286.969 118.825C281.796 113.654 274.779 110.748 267.463 110.748ZM267.463 150.089C265.063 150.089 262.716 149.377 260.72 148.044C258.724 146.711 257.169 144.816 256.25 142.599C255.332 140.382 255.091 137.943 255.56 135.589C256.028 133.236 257.184 131.074 258.881 129.377C260.578 127.681 262.741 126.525 265.095 126.057C267.449 125.589 269.89 125.829 272.107 126.747C274.325 127.666 276.22 129.221 277.554 131.216C278.887 133.211 279.599 135.557 279.599 137.956C279.598 141.173 278.319 144.258 276.043 146.532C273.767 148.806 270.681 150.084 267.463 150.084V150.089Z" fill="#05396B"/>
<path opacity="0.1" d="M258.113 372.191C266.58 368.546 272.226 362.764 270.724 359.277C269.222 355.79 261.14 355.918 252.673 359.564C244.206 363.209 238.559 368.991 240.062 372.478C241.564 375.965 249.646 375.836 258.113 372.191Z" fill="#05396B"/>
<path d="M255.197 367.988C257.236 367.988 258.889 365.826 258.889 363.159C258.889 360.492 257.236 358.33 255.197 358.33C253.157 358.33 251.504 360.492 251.504 363.159C251.504 365.826 253.157 367.988 255.197 367.988Z" fill="#3F3D56"/>
<path d="M255.197 362.082C257.236 362.082 258.889 359.92 258.889 357.253C258.889 354.586 257.236 352.424 255.197 352.424C253.157 352.424 251.504 354.586 251.504 357.253C251.504 359.92 253.157 362.082 255.197 362.082Z" fill="#3F3D56"/>
<path d="M255.197 356.18C257.236 356.18 258.889 354.018 258.889 351.351C258.889 348.684 257.236 346.522 255.197 346.522C253.157 346.522 251.504 348.684 251.504 351.351C251.504 354.018 253.157 356.18 255.197 356.18Z" fill="#3F3D56"/>
<path d="M255.197 350.279C257.236 350.279 258.889 348.116 258.889 345.449C258.889 342.782 257.236 340.62 255.197 340.62C253.157 340.62 251.504 342.782 251.504 345.449C251.504 348.116 253.157 350.279 255.197 350.279Z" fill="#3F3D56"/>
<path d="M255.197 344.372C257.236 344.372 258.889 342.21 258.889 339.543C258.889 336.876 257.236 334.714 255.197 334.714C253.157 334.714 251.504 336.876 251.504 339.543C251.504 342.21 253.157 344.372 255.197 344.372Z" fill="#3F3D56"/>
<path d="M255.197 338.47C257.236 338.47 258.889 336.308 258.889 333.641C258.889 330.974 257.236 328.812 255.197 328.812C253.157 328.812 251.504 330.974 251.504 333.641C251.504 336.308 253.157 338.47 255.197 338.47Z" fill="#3F3D56"/>
<path d="M255.197 332.569C257.236 332.569 258.889 330.407 258.889 327.74C258.889 325.073 257.236 322.911 255.197 322.911C253.157 322.911 251.504 325.073 251.504 327.74C251.504 330.407 253.157 332.569 255.197 332.569Z" fill="#3F3D56"/>
<path d="M241.379 287.337C240.875 286.703 240.415 286.036 240.001 285.341L249.702 283.745L239.223 283.825C238.218 281.636 237.67 279.265 237.611 276.858C237.553 274.45 237.986 272.056 238.884 269.821L252.956 277.095L239.981 267.557C241.197 265.455 242.832 263.626 244.785 262.184C246.738 260.742 248.968 259.718 251.334 259.175C253.701 258.632 256.154 258.582 258.541 259.029C260.928 259.475 263.197 260.409 265.207 261.77C267.217 263.132 268.925 264.893 270.225 266.944C271.524 268.994 272.387 271.29 272.76 273.689C273.132 276.088 273.007 278.537 272.391 280.885C271.775 283.233 270.682 285.429 269.179 287.337C269.958 288.336 270.627 289.417 271.176 290.559L258.595 297.099L272.019 292.61C272.962 295.395 273.195 298.371 272.697 301.269C272.2 304.167 270.987 306.895 269.169 309.207C271.221 311.814 272.498 314.945 272.853 318.244C273.208 321.542 272.628 324.873 271.178 327.857C269.729 330.841 267.469 333.357 264.656 335.117C261.844 336.877 258.592 337.811 255.274 337.811C251.956 337.811 248.705 336.877 245.892 335.117C243.08 333.357 240.819 330.841 239.37 327.857C237.92 324.873 237.34 321.542 237.695 318.244C238.051 314.945 239.327 311.814 241.379 309.207C238.928 306.091 237.596 302.243 237.596 298.279C237.596 294.316 238.928 290.467 241.379 287.352V287.337Z" fill="#05396B"/>
<path opacity="0.1" d="M272.952 298.247C272.959 302.212 271.626 306.064 269.169 309.177C271.221 311.784 272.498 314.916 272.853 318.214C273.208 321.512 272.628 324.843 271.178 327.827C269.729 330.811 267.469 333.327 264.656 335.087C261.844 336.847 258.592 337.781 255.274 337.781C251.956 337.781 248.705 336.847 245.892 335.087C243.08 333.327 240.819 330.811 239.37 327.827C237.92 324.843 237.34 321.512 237.695 318.214C238.051 314.916 239.327 311.784 241.379 309.177C239.008 306.184 272.952 296.281 272.952 298.247Z" fill="black"/>
<path opacity="0.1" d="M41.1745 363.621C45.0702 359.727 40.5613 348.905 31.1037 339.451C21.6461 329.996 10.8211 325.489 6.92546 329.383C3.02978 333.278 7.5386 344.099 16.9962 353.554C26.4538 363.008 37.2788 367.516 41.1745 363.621Z" fill="#05396B"/>
<path d="M25.7648 348.083C28.7221 348.083 31.1194 344.945 31.1194 341.074C31.1194 337.203 28.7221 334.065 25.7648 334.065C22.8076 334.065 20.4103 337.203 20.4103 341.074C20.4103 344.945 22.8076 348.083 25.7648 348.083Z" fill="#3F3D56"/>
<path d="M25.7648 339.518C28.7221 339.518 31.1194 336.38 31.1194 332.509C31.1194 328.638 28.7221 325.5 25.7648 325.5C22.8076 325.5 20.4103 328.638 20.4103 332.509C20.4103 336.38 22.8076 339.518 25.7648 339.518Z" fill="#3F3D56"/>
<path d="M25.7648 330.952C28.7221 330.952 31.1194 327.814 31.1194 323.943C31.1194 320.072 28.7221 316.934 25.7648 316.934C22.8076 316.934 20.4103 320.072 20.4103 323.943C20.4103 327.814 22.8076 330.952 25.7648 330.952Z" fill="#3F3D56"/>
<path d="M25.7648 322.387C28.7221 322.387 31.1194 319.249 31.1194 315.378C31.1194 311.507 28.7221 308.369 25.7648 308.369C22.8076 308.369 20.4103 311.507 20.4103 315.378C20.4103 319.249 22.8076 322.387 25.7648 322.387Z" fill="#3F3D56"/>
<path d="M25.7648 313.821C28.7221 313.821 31.1194 310.683 31.1194 306.812C31.1194 302.941 28.7221 299.803 25.7648 299.803C22.8076 299.803 20.4103 302.941 20.4103 306.812C20.4103 310.683 22.8076 313.821 25.7648 313.821Z" fill="#3F3D56"/>
<path d="M25.7648 305.256C28.7221 305.256 31.1194 302.118 31.1194 298.247C31.1194 294.376 28.7221 291.238 25.7648 291.238C22.8076 291.238 20.4103 294.376 20.4103 298.247C20.4103 302.118 22.8076 305.256 25.7648 305.256Z" fill="#3F3D56"/>
<path d="M25.7648 296.69C28.7221 296.69 31.1194 293.552 31.1194 289.681C31.1194 285.81 28.7221 282.672 25.7648 282.672C22.8076 282.672 20.4103 285.81 20.4103 289.681C20.4103 293.552 22.8076 296.69 25.7648 296.69Z" fill="#3F3D56"/>
<path d="M45.8105 231.065C46.5431 230.134 47.2101 229.154 47.8066 228.131L33.734 225.821L48.9543 225.931C50.4144 222.756 51.2117 219.317 51.2975 215.823C51.3833 212.33 50.7558 208.855 49.4534 205.612L29.0382 216.203L47.8565 202.365C46.0937 199.314 43.7213 196.66 40.8871 194.567C38.0529 192.473 34.8176 190.986 31.3831 190.198C27.9486 189.409 24.3885 189.337 20.9247 189.984C17.4609 190.632 14.1677 191.986 11.2505 193.962C8.33333 195.939 5.85464 198.494 3.96901 201.47C2.08338 204.446 0.831247 207.779 0.290695 211.26C-0.249857 214.741 -0.0672385 218.296 0.827154 221.703C1.72155 225.111 3.30854 228.297 5.48918 231.065C4.34844 232.513 3.36795 234.08 2.56489 235.739L20.8292 245.217L1.36722 238.682C0.000678182 242.723 -0.336695 247.042 0.38561 251.246C1.10792 255.45 2.86712 259.408 5.50415 262.762C2.5282 266.545 0.676938 271.088 0.162032 275.872C-0.352873 280.657 0.489353 285.489 2.59242 289.818C4.69549 294.146 7.97452 297.796 12.0546 300.349C16.1347 302.903 20.8512 304.257 25.6648 304.257C30.4784 304.257 35.1949 302.903 39.275 300.349C43.3551 297.796 46.6341 294.146 48.7372 289.818C50.8402 285.489 51.6825 280.657 51.1675 275.872C50.6526 271.088 48.8014 266.545 45.8254 262.762C49.3813 258.242 51.3144 252.659 51.3144 246.908C51.3144 241.158 49.3813 235.575 45.8254 231.055L45.8105 231.065Z" fill="#05396B"/>
<path opacity="0.1" d="M3.58852e-05 246.919C-0.00960778 252.671 1.92471 258.257 5.48932 262.773C2.51337 266.555 0.662107 271.098 0.147202 275.882C-0.367703 280.667 0.474523 285.499 2.57759 289.828C4.68066 294.156 7.95969 297.806 12.0398 300.359C16.1199 302.913 20.8363 304.267 25.65 304.267C30.4636 304.267 35.18 302.913 39.2601 300.359C43.3402 297.806 46.6193 294.156 48.7223 289.828C50.8254 285.499 51.6676 280.667 51.1527 275.882C50.6378 271.098 48.7866 266.555 45.8106 262.773C49.2489 258.412 3.58852e-05 244.04 3.58852e-05 246.919Z" fill="black"/>
</g>
<defs>
<clipPath id="clip0">
<rect width="461" height="376" fill="white"/>
</clipPath>
</defs>
</svg>
