<svg width="129" height="129" viewBox="0 0 129 129" fill="none" xmlns="http://www.w3.org/2000/svg">
<path d="M111.649 54.5831L104.296 32.5241C103.23 29.3125 101.178 26.5186 98.433 24.5396C95.6878 22.5606 92.3888 21.497 89.0046 21.5H39.9954C36.6112 21.497 33.3122 22.5606 30.567 24.5396C27.8218 26.5186 25.7702 29.3125 24.7035 32.5241L17.3505 54.5831C15.3952 55.4013 13.7254 56.7792 12.551 58.5437C11.3766 60.3082 10.75 62.3804 10.75 64.5V91.375C10.75 95.3418 12.9215 98.771 16.125 100.636V112.875C16.125 114.301 16.6913 115.668 17.6993 116.676C18.7073 117.684 20.0745 118.25 21.5 118.25H26.875C28.3005 118.25 29.6677 117.684 30.6757 116.676C31.6837 115.668 32.25 114.301 32.25 112.875V102.125H96.75V112.875C96.75 114.301 97.3163 115.668 98.3243 116.676C99.3323 117.684 100.699 118.25 102.125 118.25H107.5C108.926 118.25 110.293 117.684 111.301 116.676C112.309 115.668 112.875 114.301 112.875 112.875V100.636C114.506 99.7009 115.861 98.3525 116.805 96.7266C117.748 95.1007 118.247 93.2549 118.25 91.375V64.5C118.25 62.3804 117.623 60.3082 116.449 58.5437C115.275 56.7792 113.605 55.4013 111.649 54.5831ZM39.9954 32.25H88.9993C91.3159 32.25 93.3691 33.7228 94.1001 35.9265L100.045 53.75H28.9551L34.8945 35.9265C35.2511 34.8558 35.9357 33.9245 36.8513 33.2646C37.7668 32.6047 38.8668 32.2497 39.9954 32.25V32.25ZM29.5625 86C28.5034 85.9997 27.4547 85.7907 26.4763 85.385C25.4979 84.9794 24.609 84.385 23.8603 83.6359C23.1117 82.8867 22.5179 81.9974 22.1129 81.0187C21.7079 80.0401 21.4996 78.9913 21.5 77.9321C21.5004 76.873 21.7093 75.8243 22.115 74.8459C22.5206 73.8675 23.115 72.9786 23.8641 72.23C24.6133 71.4813 25.5026 70.8875 26.4813 70.4825C27.4599 70.0775 28.5087 69.8693 29.5679 69.8696C31.7069 69.8703 33.758 70.7207 35.27 72.2338C36.782 73.7468 37.6311 75.7985 37.6304 77.9375C37.6297 80.0765 36.7793 82.1277 35.2662 83.6397C33.7532 85.1517 31.7015 86.0007 29.5625 86V86ZM99.4375 86C98.3784 85.9997 97.3297 85.7907 96.3513 85.385C95.3729 84.9794 94.484 84.385 93.7353 83.6359C92.9867 82.8867 92.3929 81.9974 91.9879 81.0187C91.5829 80.0401 91.3746 78.9913 91.375 77.9321C91.3754 76.873 91.5843 75.8243 91.99 74.8459C92.3956 73.8675 92.99 72.9786 93.7391 72.23C94.4883 71.4813 95.3776 70.8875 96.3563 70.4825C97.3349 70.0775 98.3837 69.8693 99.4429 69.8696C101.582 69.8703 103.633 70.7207 105.145 72.2338C106.657 73.7468 107.506 75.7985 107.505 77.9375C107.505 80.0765 106.654 82.1277 105.141 83.6397C103.628 85.1517 101.577 86.0007 99.4375 86V86Z" fill="#05386B"/>
</svg>
