<svg width="200" height="122" viewBox="0 0 200 122" fill="none" xmlns="http://www.w3.org/2000/svg">
<path d="M53.7167 85.365H18.298V86.6703H53.7167V85.365Z" fill="#F2F2F2"/>
<path d="M133.898 85.365H98.4789V86.6703H133.898V85.365Z" fill="#F2F2F2"/>
<path d="M188.438 85.365H153.019V86.6703H188.438V85.365Z" fill="#F2F2F2"/>
<path d="M188.646 65.5938C188.32 65.7623 188.017 65.9719 187.744 66.2174C187.467 65.9708 187.159 65.7611 186.828 65.5938C186.502 65.7623 186.2 65.9719 185.927 66.2174C185.65 65.9708 185.342 65.7611 185.011 65.5938C185.011 65.5937 183.598 66.2894 183.602 67.1394C183.602 67.1607 183.603 67.1818 183.605 67.2028C183.653 67.7594 185.114 67.9012 185.916 67.6389C186.51 67.8085 187.14 67.8085 187.733 67.6389C188.532 67.9054 190.023 67.7527 190.066 67.1898C190.068 67.1688 190.069 67.1476 190.069 67.1263C190.065 66.2763 188.646 65.5938 188.646 65.5938Z" fill="#F2F2F2"/>
<path d="M1.51494 36.3535L0.261597 35.3498L7.27949 29.0767H25.0749V34.5971L13.5456 42.3758L1.51494 36.3535Z" fill="#3F3D56"/>
<path d="M28.3195 32.5954V29.202H25.9569V30.033L25.0749 29.0767L19.3104 35.3498L17.0546 36.8554L13.5569 62.4389L18.8317 67.7198H31.0904V35.6008L28.3195 32.5954Z" fill="#CCCCCC"/>
<path d="M19.3103 35.3499H0.261719V67.72H19.3103V35.3499Z" fill="#F2F2F2"/>
<path d="M11.1645 59.8157H7.65552V67.72H11.1645V59.8157Z" fill="#CCCCCC"/>
<path d="M3.89603 62.0739V60.8193H2.39215V62.0739H3.77065H3.89603Z" fill="#3F3D56"/>
<path d="M3.77065 63.0776H2.39215V64.3324H3.89603V63.0776H3.77065Z" fill="#3F3D56"/>
<path d="M6.40234 60.8193H4.8985V62.074H6.40234V60.8193Z" fill="#3F3D56"/>
<path d="M6.40234 63.0776H4.8985V64.3323H6.40234V63.0776Z" fill="#3F3D56"/>
<path d="M14.1723 62.0739V60.8193H12.6684V62.0739H14.0469H14.1723Z" fill="#3F3D56"/>
<path d="M14.0469 63.0776H12.6684V64.3324H14.1723V63.0776H14.0469Z" fill="#3F3D56"/>
<path d="M16.6786 60.8193H15.1747V62.074H16.6786V60.8193Z" fill="#3F3D56"/>
<path d="M16.6786 63.0776H15.1747V64.3323H16.6786V63.0776Z" fill="#3F3D56"/>
<path d="M24.699 36.9809V35.7261H23.1951V36.9809H24.5739H24.699Z" fill="#3F3D56"/>
<path d="M24.5739 37.9846H23.1951V39.2392H24.699V37.9846H24.5739Z" fill="#3F3D56"/>
<path d="M27.2054 35.7263H25.7016V36.981H27.2054V35.7263Z" fill="#3F3D56"/>
<path d="M27.2054 37.9846H25.7016V39.2393H27.2054V37.9846Z" fill="#3F3D56"/>
<path d="M24.699 44.007V42.7524H23.1951V44.007H24.5739H24.699Z" fill="#3F3D56"/>
<path d="M24.5739 45.0107H23.1951V46.2653H24.699V45.0107H24.5739Z" fill="#3F3D56"/>
<path d="M27.2054 42.7522H25.7016V44.0069H27.2054V42.7522Z" fill="#3F3D56"/>
<path d="M27.2054 45.0107H25.7016V46.2654H27.2054V45.0107Z" fill="#3F3D56"/>
<path d="M24.699 51.0331V49.7786H23.1951V51.0331H24.5739H24.699Z" fill="#3F3D56"/>
<path d="M24.5739 52.0369H23.1951V53.2915H24.699V52.0369H24.5739Z" fill="#3F3D56"/>
<path d="M27.2054 49.7783H25.7016V51.033H27.2054V49.7783Z" fill="#3F3D56"/>
<path d="M27.2054 52.0366H25.7016V53.2913H27.2054V52.0366Z" fill="#3F3D56"/>
<path d="M24.699 58.059V56.8044H23.1951V58.059H24.5739H24.699Z" fill="#3F3D56"/>
<path d="M24.5739 59.0627H23.1951V60.3173H24.699V59.0627H24.5739Z" fill="#3F3D56"/>
<path d="M27.2054 56.8044H25.7016V58.0591H27.2054V56.8044Z" fill="#3F3D56"/>
<path d="M27.2054 59.0627H25.7016V60.3174H27.2054V59.0627Z" fill="#3F3D56"/>
<path d="M16.9292 36.981H2.39209V39.9921H16.9292V36.981Z" fill="#3F3D56"/>
<path d="M16.9292 43.0032H2.39209V46.0143H16.9292V43.0032Z" fill="#3F3D56"/>
<path d="M16.9292 49.0256H2.39209V52.0368H16.9292V49.0256Z" fill="#3F3D56"/>
<path d="M16.9292 55.0479H2.39209V58.059H16.9292V55.0479Z" fill="#3F3D56"/>
<path d="M30.0308 65.7759C29.705 65.9445 29.4021 66.1541 29.1295 66.3996C28.8523 66.1529 28.5444 65.9433 28.2134 65.7759C27.8876 65.9445 27.5847 66.1541 27.312 66.3996C27.0349 66.1529 26.7269 65.9433 26.3959 65.7759C26.3959 65.7759 24.9832 66.4715 24.9871 67.3215C24.9872 67.3428 24.9881 67.364 24.99 67.385C25.0382 67.9415 26.4988 68.0833 27.3012 67.8211C27.8952 67.9907 28.5247 67.9907 29.1186 67.8211C29.9176 68.0875 31.4079 67.9349 31.4515 67.3719C31.4531 67.3509 31.4539 67.3297 31.4538 67.3085C31.4499 66.4584 30.0308 65.7759 30.0308 65.7759Z" fill="#05396B"/>
<path d="M23.5061 36.3535L22.2527 35.3498L29.2706 29.0767H47.066V34.5971L35.5367 42.3758L23.5061 36.3535Z" fill="#3F3D56"/>
<path d="M50.3106 32.5954V29.202H47.948V30.033L47.066 29.0767L41.3014 35.3498L39.0457 36.8554L35.548 62.4389L40.8227 67.7198H53.0815V35.6008L50.3106 32.5954Z" fill="#CCCCCC"/>
<path d="M41.3014 35.3499H22.2527V67.72H41.3014V35.3499Z" fill="#F2F2F2"/>
<path d="M33.1556 59.8157H29.6467V67.72H33.1556V59.8157Z" fill="#CCCCCC"/>
<path d="M25.8872 62.0739V60.8193H24.3833V62.0739H25.7618H25.8872Z" fill="#3F3D56"/>
<path d="M25.7618 63.0776H24.3833V64.3324H25.8872V63.0776H25.7618Z" fill="#3F3D56"/>
<path d="M28.3935 60.8193H26.8896V62.074H28.3935V60.8193Z" fill="#3F3D56"/>
<path d="M28.3935 63.0776H26.8896V64.3323H28.3935V63.0776Z" fill="#3F3D56"/>
<path d="M36.1634 62.0739V60.8193H34.6595V62.0739H36.038H36.1634Z" fill="#3F3D56"/>
<path d="M36.038 63.0776H34.6595V64.3324H36.1634V63.0776H36.038Z" fill="#3F3D56"/>
<path d="M38.6697 60.8193H37.1658V62.074H38.6697V60.8193Z" fill="#3F3D56"/>
<path d="M38.6697 63.0776H37.1658V64.3323H38.6697V63.0776Z" fill="#3F3D56"/>
<path d="M46.69 36.9809V35.7261H45.1862V36.9809H46.5649H46.69Z" fill="#3F3D56"/>
<path d="M46.5649 37.9846H45.1862V39.2392H46.69V37.9846H46.5649Z" fill="#3F3D56"/>
<path d="M49.1965 35.7263H47.6927V36.981H49.1965V35.7263Z" fill="#3F3D56"/>
<path d="M49.1965 37.9846H47.6927V39.2393H49.1965V37.9846Z" fill="#3F3D56"/>
<path d="M46.69 44.007V42.7524H45.1862V44.007H46.5649H46.69Z" fill="#3F3D56"/>
<path d="M46.5649 45.0107H45.1862V46.2653H46.69V45.0107H46.5649Z" fill="#3F3D56"/>
<path d="M49.1965 42.7522H47.6927V44.0069H49.1965V42.7522Z" fill="#3F3D56"/>
<path d="M49.1965 45.0107H47.6927V46.2654H49.1965V45.0107Z" fill="#3F3D56"/>
<path d="M46.69 51.0331V49.7786H45.1862V51.0331H46.5649H46.69Z" fill="#3F3D56"/>
<path d="M46.5649 52.0369H45.1862V53.2915H46.69V52.0369H46.5649Z" fill="#3F3D56"/>
<path d="M49.1965 49.7783H47.6927V51.033H49.1965V49.7783Z" fill="#3F3D56"/>
<path d="M49.1965 52.0366H47.6927V53.2913H49.1965V52.0366Z" fill="#3F3D56"/>
<path d="M46.69 58.059V56.8044H45.1862V58.059H46.5649H46.69Z" fill="#3F3D56"/>
<path d="M46.5649 59.0627H45.1862V60.3173H46.69V59.0627H46.5649Z" fill="#3F3D56"/>
<path d="M49.1965 56.8044H47.6927V58.0591H49.1965V56.8044Z" fill="#3F3D56"/>
<path d="M49.1965 59.0627H47.6927V60.3174H49.1965V59.0627Z" fill="#3F3D56"/>
<path d="M38.9203 36.981H24.3832V39.9921H38.9203V36.981Z" fill="#3F3D56"/>
<path d="M38.9203 43.0032H24.3832V46.0143H38.9203V43.0032Z" fill="#3F3D56"/>
<path d="M38.9203 49.0256H24.3832V52.0368H38.9203V49.0256Z" fill="#3F3D56"/>
<path d="M38.9203 55.0479H24.3832V58.059H38.9203V55.0479Z" fill="#3F3D56"/>
<path d="M26.455 12.4613C29.8921 12.4613 32.6784 9.67176 32.6784 6.23066C32.6784 2.78956 29.8921 0 26.455 0C23.0179 0 20.2316 2.78956 20.2316 6.23066C20.2316 9.67176 23.0179 12.4613 26.455 12.4613Z" fill="#FF6584"/>
<path d="M66.3404 43.6067H65.7335V67.606H66.3404V43.6067Z" fill="#3F3D56"/>
<path d="M72.2627 50.5912C72.2639 50.8552 72.2614 51.118 72.2554 51.3795C72.0377 60.8268 60.7245 60.879 60.4199 51.4341C60.4115 51.1727 60.4067 50.91 60.4054 50.6459C60.3568 40.0857 66.246 31.4976 66.246 31.4976C66.246 31.4976 72.214 40.031 72.2627 50.5912Z" fill="#E6E6E6"/>
<path d="M64.2298 65.7227C63.904 65.8912 63.6011 66.1008 63.3284 66.3464C63.0513 66.0997 62.7433 65.89 62.4123 65.7227C62.0866 65.8912 61.7837 66.1008 61.511 66.3464C61.2338 66.0997 60.9259 65.89 60.5949 65.7227C60.5949 65.7227 59.1821 66.4183 59.186 67.2683C59.1861 67.2896 59.1871 67.3107 59.1889 67.3318C59.2372 67.8883 60.6978 68.0301 61.5002 67.7678C62.0941 67.9374 62.7236 67.9374 63.3176 67.7678C64.1166 68.0343 65.6069 67.8816 65.6504 67.3187C65.6521 67.2977 65.6528 67.2765 65.6528 67.2553C65.6489 66.4052 64.2298 65.7227 64.2298 65.7227Z" fill="#CCCCCC"/>
<path d="M81.2107 57.4316L80.4589 56.177L87.4768 44.696H105.523V46.4525L99.0061 58.9372L91.4869 60.4428L81.2107 57.4316Z" fill="#3F3D56"/>
<path d="M108.629 53.6889V44.3042H106.266V45.5422L105.523 44.6962L99.5074 56.1772L98.5048 57.1809L97.2516 62.1995L99.5074 67.7199H111.037V56.428L108.629 53.6889Z" fill="#CCCCCC"/>
<path d="M99.5074 56.177H80.4588V67.7198H99.5074V56.177Z" fill="#F2F2F2"/>
<path d="M96.8757 59.8157H92.8654V63.3287H96.8757V59.8157Z" fill="#3F3D56"/>
<path d="M91.2363 59.6902H87.7273V67.72H91.2363V59.6902Z" fill="#CCCCCC"/>
<path d="M83.7171 60.9448V59.6902H82.2133V60.9448H83.5918H83.7171Z" fill="#3F3D56"/>
<path d="M83.5918 61.9485H82.2133V63.2031H83.7171V61.9485H83.5918Z" fill="#3F3D56"/>
<path d="M86.2235 59.6902H84.7197V60.9448H86.2235V59.6902Z" fill="#3F3D56"/>
<path d="M86.2235 61.9485H84.7197V63.2031H86.2235V61.9485Z" fill="#3F3D56"/>
<path d="M104.896 61.2521V59.9976H103.392V61.2521H104.771H104.896Z" fill="#3F3D56"/>
<path d="M104.771 62.2559H103.392V63.5104H104.896V62.2559H104.771Z" fill="#3F3D56"/>
<path d="M107.402 59.9976H105.899V61.2522H107.402V59.9976Z" fill="#3F3D56"/>
<path d="M107.402 62.2559H105.899V63.5105H107.402V62.2559Z" fill="#3F3D56"/>
<path d="M89.0977 49.4151L88.8998 49.085L90.7463 46.0642H95.4944V46.5263L93.78 49.8112L91.8015 50.2073L89.0977 49.4151Z" fill="#3F3D56"/>
<path d="M95.4944 46.0642L93.9119 49.085L93.6481 49.3491L93.3182 50.6696L93.9119 52.122H96.9453V49.151L95.4944 46.0642Z" fill="#CCCCCC"/>
<path d="M93.9117 49.085H88.8998V52.122H93.9117V49.085Z" fill="#F2F2F2"/>
<path d="M91.0232 50.3936V49.7944H90.3052V50.3936H90.9634H91.0232Z" fill="#3F3D56"/>
<path d="M90.9634 50.873H90.3052V51.4719H91.0232V50.873H90.9634Z" fill="#3F3D56"/>
<path d="M92.2199 49.7944H91.5019V50.3935H92.2199V49.7944Z" fill="#3F3D56"/>
<path d="M92.2199 50.8728H91.5019V51.4719H92.2199V50.8728Z" fill="#3F3D56"/>
<path d="M103.929 57.4316L103.177 56.177L110.195 44.696H128.241V46.4525L121.724 58.9372L114.205 60.4428L103.929 57.4316Z" fill="#3F3D56"/>
<path d="M131.347 53.6889V44.3042H128.985V45.5422L128.241 44.6962L122.226 56.1772L121.223 57.1809L119.97 62.1995L122.226 67.7199H133.755V56.428L131.347 53.6889Z" fill="#CCCCCC"/>
<path d="M122.225 56.177H103.177V67.7198H122.225V56.177Z" fill="#F2F2F2"/>
<path d="M119.594 59.8157H115.583V63.3287H119.594V59.8157Z" fill="#3F3D56"/>
<path d="M113.954 59.6902H110.445V67.72H113.954V59.6902Z" fill="#CCCCCC"/>
<path d="M106.435 60.9447V59.6899H104.931V60.9447H106.31H106.435Z" fill="#3F3D56"/>
<path d="M106.31 61.9485H104.931V63.2031H106.435V61.9485H106.31Z" fill="#3F3D56"/>
<path d="M108.942 59.6902H107.438V60.9448H108.942V59.6902Z" fill="#3F3D56"/>
<path d="M108.942 61.9485H107.438V63.2031H108.942V61.9485Z" fill="#3F3D56"/>
<path d="M127.614 61.0702V59.8154H126.11V61.0702H127.489H127.614Z" fill="#3F3D56"/>
<path d="M127.489 62.074H126.11V63.3288H127.614V62.074H127.489Z" fill="#3F3D56"/>
<path d="M130.121 59.8157H128.617V61.0703H130.121V59.8157Z" fill="#3F3D56"/>
<path d="M130.121 62.074H128.617V63.3286H130.121V62.074Z" fill="#3F3D56"/>
<path d="M125.92 57.4316L125.168 56.177L132.186 44.696H150.232V46.4525L143.715 58.9372L136.196 60.4428L125.92 57.4316Z" fill="#3F3D56"/>
<path d="M153.338 53.6889V44.3042H150.976V45.5422L150.232 44.6962L144.217 56.1772L143.214 57.1809L141.961 62.1995L144.217 67.7199H155.746V56.428L153.338 53.6889Z" fill="#CCCCCC"/>
<path d="M144.217 56.177H125.168V67.7198H144.217V56.177Z" fill="#F2F2F2"/>
<path d="M141.585 59.8157H137.575V63.3287H141.585V59.8157Z" fill="#3F3D56"/>
<path d="M135.945 59.6902H132.437V67.72H135.945V59.6902Z" fill="#CCCCCC"/>
<path d="M128.426 60.9447V59.6899H126.923V60.9447H128.301H128.426Z" fill="#3F3D56"/>
<path d="M128.301 61.9485H126.923V63.2031H128.426V61.9485H128.301Z" fill="#3F3D56"/>
<path d="M130.933 59.6902H129.429V60.9448H130.933V59.6902Z" fill="#3F3D56"/>
<path d="M130.933 61.9485H129.429V63.2031H130.933V61.9485Z" fill="#3F3D56"/>
<path d="M149.605 61.0702V59.8154H148.101V61.0702H149.48H149.605Z" fill="#3F3D56"/>
<path d="M149.48 62.074H148.101V63.3288H149.605V62.074H149.48Z" fill="#3F3D56"/>
<path d="M152.112 59.8157H150.608V61.0703H152.112V59.8157Z" fill="#3F3D56"/>
<path d="M152.112 62.074H150.608V63.3286H152.112V62.074Z" fill="#3F3D56"/>
<path d="M111.27 49.5969L111.073 49.2667L112.919 46.2458H117.667V46.7081L115.953 49.9931L113.974 50.389L111.27 49.5969Z" fill="#3F3D56"/>
<path d="M117.667 46.2458L116.085 49.2667L115.821 49.5308L115.491 50.8513L116.085 52.3038H119.118V49.3328L117.667 46.2458Z" fill="#CCCCCC"/>
<path d="M116.085 49.2668H111.073V52.3039H116.085V49.2668Z" fill="#F2F2F2"/>
<path d="M113.196 50.5754V49.9763H112.478V50.5754H113.136H113.196Z" fill="#3F3D56"/>
<path d="M113.136 51.0547H112.478V51.6538H113.196V51.0547H113.136Z" fill="#3F3D56"/>
<path d="M114.393 49.9766H113.675V50.5756H114.393V49.9766Z" fill="#3F3D56"/>
<path d="M114.393 51.0547H113.675V51.6537H114.393V51.0547Z" fill="#3F3D56"/>
<path d="M133.443 49.4151L133.245 49.085L135.092 46.0642H139.84V46.5263L138.125 49.8112L136.147 50.2073L133.443 49.4151Z" fill="#3F3D56"/>
<path d="M139.84 46.0642L138.257 49.085L137.994 49.3491L137.664 50.6696L138.257 52.122H141.291V49.151L139.84 46.0642Z" fill="#CCCCCC"/>
<path d="M138.257 49.085H133.246V52.122H138.257V49.085Z" fill="#F2F2F2"/>
<path d="M135.369 50.3936V49.7944H134.651V50.3936H135.309H135.369Z" fill="#3F3D56"/>
<path d="M135.309 50.873H134.651V51.4719H135.369V50.873H135.309Z" fill="#3F3D56"/>
<path d="M136.566 49.7944H135.848V50.3935H136.566V49.7944Z" fill="#3F3D56"/>
<path d="M136.566 50.8728H135.848V51.4719H136.566V50.8728Z" fill="#3F3D56"/>
<path d="M148.638 57.4316L147.886 56.177L154.904 44.696H172.95V46.4525L166.433 58.9372L158.914 60.4428L148.638 57.4316Z" fill="#3F3D56"/>
<path d="M176.057 46.3065V44.3042H173.694V45.5422L172.95 44.6962L166.935 56.1772L165.932 57.1809L164.679 62.1995L166.935 67.7199H178.464V56.428L176.057 46.3065Z" fill="#CCCCCC"/>
<path d="M166.935 56.177H147.886V67.7198H166.935V56.177Z" fill="#F2F2F2"/>
<path d="M164.303 59.8157H160.293V63.3287H164.303V59.8157Z" fill="#3F3D56"/>
<path d="M158.663 59.6902H155.155V67.72H158.663V59.6902Z" fill="#CCCCCC"/>
<path d="M151.144 60.9447V59.6899H149.64V60.9447H151.019H151.144Z" fill="#3F3D56"/>
<path d="M151.019 61.9485H149.64V63.2031H151.144V61.9485H151.019Z" fill="#3F3D56"/>
<path d="M153.651 59.6902H152.147V60.9448H153.651V59.6902Z" fill="#3F3D56"/>
<path d="M153.651 61.9485H152.147V63.2031H153.651V61.9485Z" fill="#3F3D56"/>
<path d="M172.323 61.0702V59.8154H170.82V61.0702H172.198H172.323Z" fill="#3F3D56"/>
<path d="M172.198 62.074H170.82V63.3288H172.323V62.074H172.198Z" fill="#3F3D56"/>
<path d="M174.83 59.8157H173.326V61.0703H174.83V59.8157Z" fill="#3F3D56"/>
<path d="M174.83 62.074H173.326V63.3286H174.83V62.074Z" fill="#3F3D56"/>
<path d="M155.616 49.5969L155.418 49.2667L157.265 46.2458H162.013V46.7081L160.298 49.9931L158.32 50.389L155.616 49.5969Z" fill="#3F3D56"/>
<path d="M162.013 46.2458L160.43 49.2667L160.167 49.5308L159.837 50.8513L160.43 52.3038H163.464V49.3328L162.013 46.2458Z" fill="#CCCCCC"/>
<path d="M160.43 49.2668H155.418V52.3039H160.43V49.2668Z" fill="#F2F2F2"/>
<path d="M157.542 50.5754V49.9763H156.824V50.5754H157.482H157.542Z" fill="#3F3D56"/>
<path d="M157.482 51.0547H156.824V51.6538H157.542V51.0547H157.482Z" fill="#3F3D56"/>
<path d="M158.738 49.9766H158.02V50.5756H158.738V49.9766Z" fill="#3F3D56"/>
<path d="M158.738 51.0547H158.02V51.6537H158.738V51.0547Z" fill="#3F3D56"/>
<path d="M200 67.5952H0.181763V67.9591H200V67.5952Z" fill="#3F3D56"/>
<path d="M199.818 101.621H0V101.985H199.818V101.621Z" fill="#3F3D56"/>
<path d="M186.93 43.603H186.324V67.5951H186.93V43.603Z" fill="#3F3D56"/>
<path d="M192.851 50.5855C192.852 50.8494 192.85 51.1121 192.843 51.3735C192.626 60.818 181.316 60.8702 181.012 51.4281C181.003 51.1668 180.998 50.9042 180.997 50.6402C180.948 40.0831 186.836 31.4976 186.836 31.4976C186.836 31.4976 192.802 40.0284 192.851 50.5855Z" fill="#E6E6E6"/>
<path d="M66.8146 91.0913H60.4201V92.1075H66.8146V91.0913Z" fill="#3F3D56"/>
<path d="M113.048 91.3187L111.728 91.6243L61.5874 91.6511L61.1365 90.5994C60.3501 88.7954 60.0802 86.808 60.357 84.8592C60.5729 83.4067 61.1141 81.9634 62.3431 81.3365L64.5682 66.4992L92.3086 66.4495L103.041 75.1161C103.041 75.1161 108.104 75.025 110.854 78.4531C111.725 79.5389 112.364 80.9775 112.536 82.8848L112.644 84.6681L113.048 91.3187Z" fill="#05396B"/>
<path d="M102.035 97.2694C105.454 97.2694 108.226 94.4942 108.226 91.0707C108.226 87.6473 105.454 84.8721 102.035 84.8721C98.6152 84.8721 95.8432 87.6473 95.8432 91.0707C95.8432 94.4942 98.6152 97.2694 102.035 97.2694Z" fill="#3F3D56"/>
<path d="M102.035 94.333C103.834 94.333 105.293 92.8724 105.293 91.0706C105.293 89.2688 103.834 87.8081 102.035 87.8081C100.235 87.8081 98.776 89.2688 98.776 91.0706C98.776 92.8724 100.235 94.333 102.035 94.333Z" fill="#CCCCCC"/>
<path d="M71.4833 97.2855C74.9028 97.2855 77.6748 94.5103 77.6748 91.0869C77.6748 87.6634 74.9028 84.8882 71.4833 84.8882C68.0638 84.8882 65.2918 87.6634 65.2918 91.0869C65.2918 94.5103 68.0638 97.2855 71.4833 97.2855Z" fill="#3F3D56"/>
<path d="M71.4833 94.3496C73.283 94.3496 74.742 92.889 74.742 91.0872C74.742 89.2854 73.283 87.8247 71.4833 87.8247C69.6836 87.8247 68.2246 89.2854 68.2246 91.0872C68.2246 92.889 69.6836 94.3496 71.4833 94.3496Z" fill="#CCCCCC"/>
<path d="M98.7771 74.1031L83.7995 74.1096H81.9712L78.8842 74.1118V73.8864L78.882 71.1689L78.8798 68.1174H80.9335L82.7618 68.1152L86.0005 68.113H87.8288L91.5678 68.1108L98.7771 74.1031Z" fill="white"/>
<path d="M76.4472 74.1138L68.5317 74.1182L68.5295 72.5632V69.8458L68.5273 68.1237H69.6864L71.5147 68.1216L76.4451 68.1194L76.4472 74.1138Z" fill="white"/>
<path d="M79.9016 78.5837H78.8866V80.5145H79.9016V78.5837Z" fill="#3F3D56"/>
<path d="M96.6476 76.847L96.6471 75.8308L94.7186 75.8318L94.7191 76.848L96.6476 76.847Z" fill="#3F3D56"/>
<path d="M95.4282 72.0305H95.5398C96.1024 72.0305 96.642 72.2543 97.0398 72.6526C97.4377 73.0509 97.6612 73.5911 97.6612 74.1543C97.6612 74.7176 97.4377 75.2578 97.0398 75.6561C96.642 76.0544 96.1024 76.2781 95.5398 76.2781H95.4282V72.0305Z" fill="#3F3D56"/>
<path d="M112.644 84.6681C111.877 84.7517 111.104 84.5614 110.463 84.1308C109.822 83.7001 109.353 83.0568 109.139 82.314C108.925 81.5713 108.98 80.7768 109.294 80.0705C109.607 79.3642 110.16 78.7915 110.854 78.4531C111.725 79.539 112.364 80.9775 112.536 82.8848L112.644 84.6681Z" fill="#3F3D56"/>
<path d="M82.7617 68.1152L78.8841 73.8865L78.882 71.1689L80.9334 68.1174L82.7617 68.1152Z" fill="#F2F2F2"/>
<path d="M71.5146 68.1216L68.5295 72.5632V69.8458L69.6863 68.1238L71.5146 68.1216Z" fill="#F2F2F2"/>
<path d="M87.8288 68.1128L83.7995 74.1094H81.9712L86.0004 68.1128H87.8288Z" fill="#F2F2F2"/>
<path d="M148.158 78.3202L152.042 78.3223L152.042 77.705L148.158 77.7029L148.158 78.3202Z" fill="#3F3D56"/>
<path d="M120.074 77.8424L120.876 78.028L151.333 78.0443L151.607 77.4055C152.085 76.3096 152.249 75.1024 152.081 73.9187C151.949 73.0363 151.621 72.1596 150.874 71.7788L149.523 62.766L132.672 62.7358L126.152 68.0003C126.152 68.0003 123.077 67.9449 121.406 70.0273C120.804 70.8016 120.448 71.7397 120.385 72.7193L120.319 73.8026L120.074 77.8424Z" fill="#3F3D56"/>
<path d="M126.764 81.4569C128.841 81.4569 130.525 79.7711 130.525 77.6916C130.525 75.6121 128.841 73.9263 126.764 73.9263C124.687 73.9263 123.003 75.6121 123.003 77.6916C123.003 79.7711 124.687 81.4569 126.764 81.4569Z" fill="#3F3D56"/>
<path d="M126.764 79.6734C127.857 79.6734 128.743 78.7862 128.743 77.6917C128.743 76.5972 127.857 75.71 126.764 75.71C125.671 75.71 124.784 76.5972 124.784 77.6917C124.784 78.7862 125.671 79.6734 126.764 79.6734Z" fill="#CCCCCC"/>
<path d="M145.322 81.4669C147.399 81.4669 149.083 79.7811 149.083 77.7016C149.083 75.6221 147.399 73.9363 145.322 73.9363C143.245 73.9363 141.561 75.6221 141.561 77.7016C141.561 79.7811 143.245 81.4669 145.322 81.4669Z" fill="#3F3D56"/>
<path d="M145.322 79.6832C146.415 79.6832 147.301 78.796 147.301 77.7015C147.301 76.607 146.415 75.7197 145.322 75.7197C144.229 75.7197 143.343 76.607 143.343 77.7015C143.343 78.796 144.229 79.6832 145.322 79.6832Z" fill="#CCCCCC"/>
<path d="M128.743 67.3848L137.841 67.389H138.951L140.826 67.3903V67.2532L140.828 65.6025L140.829 63.7488H139.582L138.471 63.7475L136.504 63.7462H135.393L133.122 63.7449L128.743 67.3848Z" fill="white"/>
<path d="M142.307 67.3915L147.115 67.3941L147.116 66.4495V64.7988L147.117 63.7529H146.413L145.303 63.7515L142.308 63.7502L142.307 67.3915Z" fill="white"/>
<path d="M140.208 71.2792L140.825 71.2795L140.825 70.1067L140.209 70.1064L140.208 71.2792Z" fill="#3F3D56"/>
<path d="M131.208 69.0523L131.208 68.4351L130.036 68.4344L130.036 69.0517L131.208 69.0523Z" fill="#3F3D56"/>
<path d="M130.776 68.7063L130.708 68.7063C130.367 68.7061 130.039 68.57 129.797 68.3279C129.556 68.0859 129.42 67.7576 129.421 67.4155C129.421 67.0733 129.557 66.7453 129.798 66.5035C130.04 66.2616 130.368 66.1259 130.71 66.1261L130.778 66.1261L130.776 68.7063Z" fill="#3F3D56"/>
<path d="M120.319 73.8026C120.786 73.8533 121.255 73.7377 121.644 73.4762C122.034 73.2146 122.318 72.8238 122.448 72.3726C122.578 71.9214 122.545 71.4388 122.354 71.0098C122.164 70.5808 121.828 70.2329 121.406 70.0273C120.804 70.8016 120.448 71.7397 120.385 72.7193L120.319 73.8026Z" fill="#3F3D56"/>
<path d="M138.471 63.7473L140.826 67.2531L140.828 65.6023L139.582 63.7486L138.471 63.7473Z" fill="#F2F2F2"/>
<path d="M145.303 63.7515L147.116 66.4495V64.7987L146.413 63.7528L145.303 63.7515Z" fill="#F2F2F2"/>
<path d="M135.393 63.7461L137.841 67.3889H138.951L136.504 63.7461H135.393Z" fill="#F2F2F2"/>
<path d="M34.7974 105.935C34.7974 105.935 34.7974 112.836 36.3792 114.645C36.3792 114.645 36.7182 115.55 36.8312 115.89C36.8943 116.083 36.9698 116.272 37.0571 116.455V116.908C37.0571 116.908 40.1078 116.568 40.4467 115.777L39.8818 115.098C39.8818 115.098 39.7688 114.985 39.8818 114.645C39.9011 114.609 39.9102 114.567 39.908 114.525C39.9058 114.484 39.8925 114.443 39.8693 114.409C39.8462 114.374 39.8142 114.346 39.7766 114.328C39.7391 114.31 39.6973 114.302 39.6558 114.306L38.8649 112.496L38.9779 105.03L38.413 94.7367L33.5546 94.5105L34.7974 105.935Z" fill="#2F2E41"/>
<path d="M37.2831 116.229C37.2831 116.229 36.4922 118.605 37.2831 118.718C38.074 118.831 44.9662 118.944 44.8532 118.039C44.7402 117.134 42.4805 117.247 42.4805 117.247L40.1078 115.777L37.2831 116.229Z" fill="#2F2E41"/>
<path d="M30.278 94.7368C30.181 95.8007 30.418 96.8684 30.9559 97.791C31.8598 99.3746 31.2949 104.691 31.2949 104.691L23.2728 111.704C23.2728 111.704 24.8546 114.419 25.4196 114.306C25.9845 114.193 34.9104 106.954 34.9104 106.954L38.413 95.1893L30.278 94.7368Z" fill="#2F2E41"/>
<path d="M23.383 111.405C23.383 111.405 20.9555 112.008 21.2835 112.737C21.6115 113.466 25.2058 119.355 25.9087 118.775C26.6117 118.195 25.3065 116.345 25.3065 116.345L25.2769 113.551L23.383 111.405Z" fill="#2F2E41"/>
<path d="M34.6844 76.2986C36.1197 76.2986 37.2831 75.1338 37.2831 73.6969C37.2831 72.26 36.1197 71.0952 34.6844 71.0952C33.2492 71.0952 32.0858 72.26 32.0858 73.6969C32.0858 75.1338 33.2492 76.2986 34.6844 76.2986Z" fill="#FFB8B8"/>
<path d="M32.6398 74.6147L32.7547 77.9627L34.9413 78.8276C34.9413 78.8276 35.1558 75.3996 35.4584 75.2095C35.7611 75.0195 32.6398 74.6147 32.6398 74.6147Z" fill="#FFB8B8"/>
<path d="M35.4754 79.2395C35.4754 79.2395 32.4247 76.1854 31.6338 76.2985C30.8429 76.4116 30.8429 76.751 30.8429 76.9772C30.8429 77.2034 31.0689 77.3165 30.8429 77.4297C30.6169 77.5428 30.391 77.4297 30.391 77.769C30.391 78.1084 28.3572 81.5019 29.0351 85.2348C29.7131 88.9677 30.504 90.7775 30.165 92.8137C29.826 94.8498 30.052 95.3022 30.052 95.3022C30.052 95.3022 38.526 95.981 38.639 95.1891C38.752 94.3973 38.3 94.8498 38.8649 94.2842C39.4299 93.7186 39.2039 93.7186 39.2039 93.3792C39.2039 93.0399 36.7182 79.2395 35.4754 79.2395Z" fill="#575A89"/>
<path d="M33.8936 94.6235C33.8936 94.6235 35.2494 97.9039 36.2663 97.1121C37.2832 96.3203 35.8143 93.6055 35.8143 93.6055L33.8936 94.6235Z" fill="#FFB8B8"/>
<path d="M30.6169 79.4659C30.6169 79.4659 27.9623 79.7702 28.9507 84.6518C29.939 89.5334 33.7806 95.1893 33.7806 95.1893L36.3792 93.945L32.9896 87.2711L33.7806 83.0857C33.7806 83.0857 34.2325 79.1266 30.6169 79.4659Z" fill="#575A89"/>
<path opacity="0.2" d="M32.933 87.3276L36.6616 93.549L36.3228 93.8884L32.933 87.3276Z" fill="black"/>
<path opacity="0.2" d="M30.9596 90.2268L33.95 95.1327H32.933L30.9596 90.2268Z" fill="black"/>
<path d="M33.5082 75.2602C33.7287 75.1708 33.9572 75.1026 34.1907 75.0567C34.595 74.9197 34.937 74.6423 35.1546 74.2747C35.3722 73.907 35.4511 73.4735 35.3769 73.0526C35.3447 72.9456 35.3302 72.834 35.3341 72.7223C35.3661 72.6018 35.433 72.4935 35.5265 72.411C35.62 72.3286 35.7358 72.2757 35.8593 72.2592C36.1061 72.2303 36.3505 72.1837 36.5906 72.1197C36.7663 72.0406 36.9183 71.9169 37.0316 71.7609C37.145 71.605 37.2157 71.4222 37.2369 71.2305C37.2739 70.8448 37.1881 70.4572 36.9918 70.1233L36.9043 70.3753C36.7709 70.2623 36.6719 70.114 36.6185 69.9473C36.5191 69.9641 36.4256 70.0061 36.347 70.0693C36.2685 70.1326 36.2075 70.2149 36.1698 70.3086C36.0294 70.3915 36.0092 70.051 35.8541 70.0008C35.7858 69.9923 35.7169 70.0093 35.6605 70.0486C35.3479 70.1946 34.9848 70.0698 34.6496 69.9889C34.069 69.8495 33.4639 69.8488 32.883 69.9868C32.4913 70.0638 32.1293 70.2503 31.839 70.5246C31.623 70.7701 31.4571 71.0555 31.3506 71.3648C31.0255 72.1032 30.8901 72.9113 30.9565 73.7155C31.0379 74.3677 31.3105 74.9812 31.7397 75.4785C31.9634 75.7365 32.693 76.6364 33.093 76.4829C33.5957 76.2902 32.9159 75.5737 33.5082 75.2602Z" fill="#2F2E41"/>
<path opacity="0.2" d="M37.7146 99.1421L34.7414 106.947L34.8916 107.004L37.8648 99.1995L37.7146 99.1421Z" fill="black"/>
<path d="M35.4593 79.8607C35.5481 79.8607 35.62 79.7886 35.62 79.6997C35.62 79.6109 35.5481 79.5388 35.4593 79.5388C35.3705 79.5388 35.2986 79.6109 35.2986 79.6997C35.2986 79.7886 35.3705 79.8607 35.4593 79.8607Z" fill="#D0CDE1"/>
<path d="M36.8255 84.2055C36.8084 84.2055 36.7916 84.2 36.7778 84.1898C36.764 84.1796 36.7538 84.1652 36.7488 84.1488L35.3826 79.7236C35.3763 79.7032 35.3783 79.6812 35.3882 79.6623C35.3982 79.6434 35.4152 79.6293 35.4356 79.623C35.4559 79.6167 35.478 79.6187 35.4968 79.6287C35.5156 79.6386 35.5298 79.6557 35.5361 79.676L36.9023 84.1013C36.906 84.1134 36.9068 84.1261 36.9047 84.1385C36.9026 84.1509 36.8976 84.1627 36.8901 84.1728C36.8827 84.1829 36.8729 84.1912 36.8617 84.1968C36.8505 84.2025 36.8381 84.2055 36.8255 84.2055Z" fill="#D0CDE1"/>
<path d="M181.186 77.9209C182.685 77.9209 183.9 76.7045 183.9 75.204C183.9 73.7035 182.685 72.4871 181.186 72.4871C179.687 72.4871 178.472 73.7035 178.472 75.204C178.472 76.7045 179.687 77.9209 181.186 77.9209Z" fill="#2F2E41"/>
<path d="M177.329 91.6616L176.917 92.4854C176.917 92.4854 175.601 94.6274 176.506 94.8745C177.411 95.1217 177.699 93.2681 177.699 93.2681L177.863 92.2795L177.329 91.6616Z" fill="#A0616A"/>
<path d="M178.974 87.4602L177.946 90.1786L176.917 92.0735L178.193 92.8973L179.221 91.0849L180.456 88.2427L178.974 87.4602Z" fill="#D0CDE1"/>
<path d="M181.896 100.188L183.953 102.371L187.573 108.509L189.137 108.015L187.285 104.349C187.285 104.349 186.216 101.548 185.681 101.177C185.146 100.806 184.241 98.3759 184.241 98.3759L183.253 97.5933L181.896 100.188Z" fill="#A0616A"/>
<path d="M177.658 101.383L177.493 102.083C177.493 102.083 176.958 104.266 176.135 105.255L174.16 108.674L172.679 108.179L175.601 101.259L177.658 101.383Z" fill="#A0616A"/>
<path d="M180.723 78.3774C181.95 78.3774 182.945 77.3815 182.945 76.153C182.945 74.9246 181.95 73.9287 180.723 73.9287C179.496 73.9287 178.501 74.9246 178.501 76.153C178.501 77.3815 179.496 78.3774 180.723 78.3774Z" fill="#A0616A"/>
<path d="M182.472 77.2446L182.76 79.6337L180.908 80.5399C180.908 80.5399 180.908 78.4804 180.414 77.9449L182.472 77.2446Z" fill="#A0616A"/>
<path d="M188.273 92.6504L188.478 93.3507C188.478 93.3507 189.836 96.0281 188.684 96.0281C187.532 96.0281 187.326 93.5566 187.326 93.5566L187.203 92.9387L188.273 92.6504Z" fill="#A0616A"/>
<path d="M178.81 89.8494L179.098 91.8678L175.601 99.241L175.395 101.383L181.937 102.207L183.377 98.2112L185.681 101.177L184.364 98.1288C184.364 98.1288 183.953 96.0693 184.076 95.5338C184.2 94.9983 183.994 92.3209 183.624 91.6618C183.253 91.0027 178.81 89.8494 178.81 89.8494Z" fill="#2F2E41"/>
<path d="M187.326 108.509L189.301 107.85L189.919 108.838C189.919 108.838 191.112 109.168 191.071 110.033C191.076 110.82 191.145 111.605 191.276 112.381L190.412 112.463L190.083 110.774L188.396 112.793C188.396 112.793 185.393 112.958 185.269 112.463C185.146 111.969 187.409 111.433 187.409 111.433L187.779 109.662L187.326 108.509Z" fill="#2F2E41"/>
<path d="M172.556 107.932L174.366 108.509V108.921C174.366 108.921 174.901 109.745 174.819 110.445C174.737 111.145 174.366 112.834 174.366 112.834H173.42L173.461 111.269L171.568 112.834C171.568 112.834 168.195 112.587 168.195 112.052C168.195 111.516 170.787 111.145 170.787 111.145L172.556 107.932Z" fill="#2F2E41"/>
<path d="M180.785 80.0458C180.785 80.0458 182.472 78.3569 183.253 78.7688V79.5103C183.253 79.5103 184.405 80.0458 184.446 80.8696C184.488 81.6934 185.681 89.1903 185.681 89.1903L188.478 98.9526C188.478 98.9526 187.614 100.312 184.446 98.7879L182.472 92.0737C182.472 92.0737 184.57 99.6529 183.541 99.5293C182.513 99.4057 178.481 90.0141 178.481 90.0141L178.769 85.5654C178.769 85.5654 178.11 83.6294 179.427 82.3113L180.785 80.0458Z" fill="#D0CDE1"/>
<path d="M183.665 80.293C183.665 80.293 184.364 80.5401 184.858 81.6111C185.352 82.6821 187.82 90.2201 187.82 90.2201L188.478 92.8975L186.627 93.3507L185.722 90.5908L182.348 84.3297C182.348 84.3297 181.813 81.0344 183.665 80.293Z" fill="#D0CDE1"/>
<path d="M183.502 74.3786C183.493 74.1229 183.421 73.8734 183.293 73.652C183.165 73.4306 182.985 73.2442 182.768 73.109C182.993 72.6549 183.195 72.1367 183.046 71.6518C182.986 71.4637 182.877 71.2951 182.73 71.1634C182.583 71.0316 182.403 70.9415 182.21 70.9022C181.994 70.8725 181.775 70.8753 181.56 70.9106L180.546 71.0258C180.214 71.0387 179.889 71.1263 179.595 71.2819C179.45 71.3741 179.328 71.4993 179.239 71.6473C179.151 71.7953 179.098 71.9621 179.086 72.1341C179.074 72.3062 179.102 72.4787 179.168 72.6379C179.235 72.7971 179.337 72.9384 179.468 73.0506C178.759 73.6186 178.285 74.0498 177.962 74.8998C178.503 74.4582 179.18 74.2158 179.878 74.2132C180.353 74.1875 180.818 74.3481 181.177 74.6609C181.535 74.9737 181.757 75.414 181.796 75.8882C181.792 76.1262 181.813 76.3639 181.859 76.5975C181.885 76.7138 181.95 76.8177 182.043 76.8919C182.136 76.9661 182.252 77.0062 182.371 77.0054C182.338 77.01 182.137 76.4058 182.279 76.1269L182.281 76.1224C182.312 76.0647 182.363 76.0207 182.425 75.9986C182.48 75.9775 182.539 75.9684 182.598 75.9718C182.656 75.9752 182.714 75.9911 182.766 76.0184C182.818 76.0457 182.864 76.0839 182.9 76.1303C182.936 76.1767 182.962 76.2303 182.977 76.2875C183.055 76.5901 183.181 76.9763 183.291 76.8738C183.435 76.7395 183.375 75.556 183.413 75.3725C183.491 75.0473 183.521 74.7124 183.502 74.3786Z" fill="#2F2E41"/>
<path d="M182.756 73.101C182.756 73.101 180.527 73.2466 179.46 73.0525L182.756 73.101Z" fill="#D0CDE1"/>
<path d="M182.63 72.8021C182.856 72.3481 183.058 71.8298 182.909 71.345C182.839 71.1264 182.703 70.935 182.52 70.7976C182.66 70.8621 182.785 70.955 182.888 71.0705C182.99 71.186 183.067 71.3216 183.115 71.4686C183.263 71.9534 183.062 72.4716 182.836 72.9257C182.657 72.8989 183.08 73.0421 182.63 72.8021Z" fill="#2F2E41"/>
<path opacity="0.2" d="M181.916 84.3503L185.125 90.0348L186.36 93.1241L184.632 90.1584L181.916 84.3503Z" fill="black"/>
<path d="M30.2098 116.659C30.2098 116.659 29.2038 118.851 28.387 119.466C27.5599 118.849 26.5342 116.659 26.5342 116.659C26.5342 116.659 25.5282 118.851 24.7113 119.466C23.8843 118.849 22.8586 116.659 22.8586 116.659C22.8586 116.659 20.0014 119.583 20.0093 120.968C20.0095 121.002 20.0114 121.037 20.0151 121.071C20.1127 121.978 23.0667 122.209 24.6894 121.782C25.8991 122.058 27.1554 122.058 28.3651 121.782C29.9809 122.216 32.995 121.967 33.0831 121.05C33.0864 121.016 33.0879 120.981 33.0878 120.947C33.0799 119.562 30.2098 116.659 30.2098 116.659Z" fill="#05396B"/>
<path d="M90.2346 116.659C90.2346 116.659 89.2286 118.851 88.4118 119.466C87.5847 118.849 86.559 116.659 86.559 116.659C86.559 116.659 85.553 118.851 84.7361 119.466C83.9091 118.849 82.8833 116.659 82.8833 116.659C82.8833 116.659 80.0262 119.583 80.0341 120.968C80.0343 121.002 80.0362 121.037 80.0399 121.071C80.1375 121.978 83.0914 122.209 84.7142 121.782C85.9239 122.058 87.1802 122.058 88.3898 121.782C90.0057 122.216 93.0198 121.967 93.1079 121.05C93.1112 121.016 93.1127 120.981 93.1125 120.947C93.1046 119.562 90.2346 116.659 90.2346 116.659Z" fill="#E6E6E6"/>
<path d="M149.871 116.659C149.871 116.659 148.865 118.851 148.048 119.466C147.221 118.849 146.195 116.659 146.195 116.659C146.195 116.659 145.189 118.851 144.372 119.466C143.545 118.849 142.52 116.659 142.52 116.659C142.52 116.659 139.662 119.583 139.67 120.968C139.671 121.002 139.673 121.037 139.676 121.071C139.774 121.978 142.728 122.209 144.35 121.782C145.56 122.058 146.816 122.058 148.026 121.782C149.642 122.216 152.656 121.967 152.744 121.05C152.747 121.016 152.749 120.981 152.749 120.947C152.741 119.562 149.871 116.659 149.871 116.659Z" fill="#05396B"/>
<path d="M33.8138 10.288L33.7875 10.3023C33.5031 10.4581 33.1843 10.5402 32.8601 10.5414C32.5359 10.5425 32.2166 10.4626 31.9311 10.3088C31.9146 10.3 31.8982 10.2912 31.882 10.2825C31.5965 10.1299 31.2776 10.0507 30.954 10.0518C30.6304 10.0529 30.3121 10.1344 30.0276 10.2889L30.0031 10.3023C29.7186 10.4581 29.3998 10.5402 29.0757 10.5414C28.7515 10.5425 28.4321 10.4626 28.1466 10.3088C28.1295 10.2996 28.1125 10.2905 28.0957 10.2815C27.8135 10.1297 27.4983 10.0499 27.1779 10.0493C26.8576 10.0488 26.5421 10.1274 26.2594 10.2783C25.3959 10.7438 24.2286 11.5398 24.2337 12.4388C24.2339 12.4743 24.2359 12.5099 24.2397 12.5452C24.3402 13.4788 27.3816 13.7166 29.0524 13.2767C30.2979 13.5612 31.5914 13.5612 32.8369 13.2767C34.5005 13.7237 37.6038 13.4676 37.6945 12.5233C37.6979 12.4879 37.6996 12.4524 37.6994 12.4169C37.6942 11.5174 36.5166 10.7298 35.6477 10.2708C35.3642 10.1223 35.0485 10.0462 34.7286 10.0492C34.4087 10.0522 34.0945 10.1342 33.8138 10.288Z" fill="#E6E6E6"/>
<path d="M90.3366 20.1546L90.3103 20.169C90.0258 20.3247 89.7071 20.4069 89.3829 20.408C89.0587 20.4092 88.7394 20.3293 88.4538 20.1755C88.4374 20.1666 88.421 20.1579 88.4047 20.1492C88.1192 19.9966 87.8004 19.9174 87.4768 19.9185C87.1531 19.9196 86.8348 20.0011 86.5504 20.1556L86.5258 20.169C86.2414 20.3248 85.9226 20.4069 85.5984 20.4081C85.2742 20.4092 84.9549 20.3293 84.6694 20.1755C84.6523 20.1663 84.6353 20.1572 84.6184 20.1482C84.3363 19.9963 84.021 19.9166 83.7007 19.916C83.3804 19.9155 83.0649 19.9941 82.7822 20.145C81.9187 20.6105 80.7513 21.4065 80.7565 22.3055C80.7567 22.341 80.7587 22.3766 80.7625 22.4119C80.8629 23.3455 83.9044 23.5833 85.5752 23.1434C86.8206 23.4279 88.1141 23.4279 89.3596 23.1434C91.0233 23.5904 94.1266 23.3343 94.2173 22.39C94.2207 22.3546 94.2223 22.3191 94.2221 22.2836C94.217 21.3841 93.0393 20.5965 92.1704 20.1375C91.887 19.989 91.5713 19.9129 91.2514 19.9159C90.9315 19.9189 90.6172 20.0009 90.3366 20.1546Z" fill="#E6E6E6"/>
<path d="M129.402 10.7159L129.376 10.7303C129.092 10.886 128.773 10.9682 128.449 10.9693C128.124 10.9705 127.805 10.8905 127.52 10.7368C127.503 10.7279 127.487 10.7192 127.471 10.7105C127.185 10.5579 126.866 10.4786 126.543 10.4798C126.219 10.4809 125.901 10.5624 125.616 10.7169L125.592 10.7303C125.307 10.886 124.988 10.9682 124.664 10.9693C124.34 10.9705 124.021 10.8906 123.735 10.7368C123.718 10.7276 123.701 10.7185 123.684 10.7095C123.402 10.5576 123.087 10.4779 122.767 10.4773C122.446 10.4767 122.131 10.5554 121.848 10.7062C120.984 11.1718 119.817 11.9678 119.822 12.8668C119.822 12.9023 119.824 12.9378 119.828 12.9732C119.929 13.9067 122.97 14.1446 124.641 13.7046C125.886 13.9892 127.18 13.9892 128.425 13.7046C130.089 14.1517 133.192 13.8956 133.283 12.9513C133.286 12.9159 133.288 12.8804 133.288 12.8448C133.283 11.9454 132.105 11.1577 131.236 10.6987C130.953 10.5503 130.637 10.4741 130.317 10.4771C129.997 10.4801 129.683 10.5622 129.402 10.7159Z" fill="#E6E6E6"/>
<path d="M199.818 121.636H0V122H199.818V121.636Z" fill="#3F3D56"/>
</svg>
