<svg width="287" height="93" viewBox="0 0 287 93" fill="none" xmlns="http://www.w3.org/2000/svg">
<g clip-path="url(#clip0)">
<path d="M37.2138 55.5751C40.3032 56.6341 43.6201 56.8994 46.8451 56.3454C50.0701 55.7915 53.0944 54.4369 55.6268 52.4122C62.0759 47.1331 64.0983 38.4389 65.7431 30.3864L70.6093 6.56787L60.4214 13.4089C53.0944 18.3286 45.6028 23.4063 40.5301 30.5321C35.4574 37.6579 33.2443 47.3859 37.3189 55.0967" fill="#6C63FF"/>
<path d="M38.7869 86.0702C37.5046 76.9597 36.1853 67.7314 37.0869 58.5232C37.8859 50.3452 40.4445 42.3592 45.6532 35.8083C48.4179 32.3384 51.7822 29.3653 55.5946 27.0228C56.5885 26.4112 57.5035 27.9471 56.5138 28.5564C49.9171 32.6218 44.8147 38.6252 41.9423 45.7009C38.7699 53.5692 38.2605 62.1468 38.807 70.5053C39.1373 75.56 39.8391 80.5815 40.544 85.5971C40.5997 85.8239 40.5649 86.0629 40.4468 86.2656C40.3287 86.4684 40.136 86.6199 39.9077 86.6895C39.6749 86.7506 39.4266 86.7198 39.2169 86.6036C39.0072 86.4875 38.8529 86.2954 38.7875 86.069L38.7869 86.0702Z" fill="#3F3D56"/>
<path d="M48.0168 71.4512C49.3415 73.4154 51.1627 75.0138 53.3049 76.0923C55.447 77.1709 57.8379 77.6931 60.2472 77.6089C66.4401 77.3223 71.6008 73.109 76.2461 69.1077L89.9889 57.2748L80.8938 56.8503C74.353 56.5448 67.6434 56.2582 61.4135 58.2275C55.1836 60.1968 49.4381 64.9288 48.2991 71.2174" fill="#6C63FF"/>
<path d="M35.1623 91.3072C41.3357 80.655 48.4958 68.8161 61.2908 65.0321C64.8482 63.9836 68.5782 63.608 72.2802 63.9255C73.4471 64.0238 73.1557 65.7775 71.9912 65.6798C65.7857 65.1774 59.5921 66.7753 54.4532 70.2046C49.5079 73.4872 45.6574 78.051 42.3989 82.8901C40.4026 85.8547 38.6145 88.9448 36.8265 92.0308C36.2551 93.0172 34.5843 92.3049 35.1623 91.3072Z" fill="#3F3D56"/>
<path d="M95.9389 76.5653C97.2722 77.0224 98.7038 77.1369 100.096 76.8978C101.488 76.6587 102.793 76.0741 103.886 75.2002C106.669 72.9218 107.542 69.1693 108.252 65.6939L110.352 55.4138L105.955 58.3664C102.793 60.4897 99.5595 62.6813 97.3702 65.7568C95.1808 68.8323 94.2256 73.0309 95.9842 76.3588" fill="#6C63FF"/>
<path d="M96.6178 89.7269C96.0644 85.7948 95.495 81.8119 95.8841 77.8377C96.229 74.3081 97.3332 70.8613 99.5813 68.0339C100.775 66.5363 102.227 65.2531 103.872 64.2421C104.301 63.9781 104.696 64.641 104.269 64.904C101.422 66.6586 99.2194 69.2497 97.9797 72.3036C96.6105 75.6995 96.3906 79.4016 96.6265 83.0092C96.769 85.1908 97.072 87.358 97.3762 89.5228C97.4002 89.6207 97.3852 89.7238 97.3342 89.8113C97.2832 89.8988 97.2001 89.9642 97.1016 89.9942C97.001 90.0207 96.8939 90.0073 96.8034 89.9572C96.7129 89.9071 96.6463 89.8241 96.6181 89.7264L96.6178 89.7269Z" fill="#3F3D56"/>
<path d="M100.601 83.4172C101.173 84.2649 101.959 84.9548 102.884 85.4203C103.808 85.8858 104.84 86.1112 105.88 86.0749C108.553 85.9512 110.78 84.1327 112.785 82.4057L118.717 77.2986L114.791 77.1154C111.968 76.9836 109.072 76.8599 106.383 77.7098C103.695 78.5598 101.215 80.6021 100.723 83.3162" fill="#6C63FF"/>
<path d="M95.0534 91.987C97.7179 87.3895 100.808 82.2798 106.33 80.6466C107.866 80.1941 109.476 80.032 111.073 80.169C111.577 80.2114 111.451 80.9684 110.949 80.9262C108.27 80.7093 105.597 81.399 103.379 82.8791C101.245 84.2958 99.5831 86.2656 98.1767 88.3541C97.3151 89.6337 96.5434 90.9674 95.7717 92.2993C95.5251 92.725 94.804 92.4176 95.0534 91.987Z" fill="#3F3D56"/>
<path d="M256.504 79.4171C244.195 82.8634 244.05 65.8993 242.091 58.2656C249.048 62.8856 260.779 69.4722 256.459 79.2107" fill="#6C63FF"/>
<path d="M255.825 92.5789C257.442 83.6607 257.544 72.3652 248.571 67.0942C248.142 66.8301 247.747 67.493 248.175 67.756C256.838 72.8661 256.581 83.7784 255.067 92.3748C255.043 92.4716 255.059 92.5735 255.111 92.6591C255.163 92.7447 255.247 92.8073 255.345 92.8337C255.444 92.8601 255.549 92.8482 255.638 92.8006C255.728 92.753 255.795 92.6733 255.825 92.5784L255.825 92.5789Z" fill="#3F3D56"/>
<path d="M221.131 83.4173C215.498 90.791 207.654 80.9178 203.016 77.2988C209.203 76.9781 219.086 75.7344 221.009 83.3164" fill="#6C63FF"/>
<path d="M226.679 91.9869C223.495 86.0427 218.41 79.3203 210.659 80.1691C210.155 80.2113 210.281 80.9682 210.784 80.9261C218.147 80.183 222.937 86.6407 225.961 92.2993C226.207 92.7249 226.928 92.4175 226.679 91.9869Z" fill="#3F3D56"/>
<path d="M286.634 92.9999H0.365605C0.268641 92.9999 0.175647 92.9624 0.107083 92.8955C0.0385187 92.8286 0 92.738 0 92.6434C0 92.5488 0.0385187 92.4581 0.107083 92.3913C0.175647 92.3244 0.268641 92.2869 0.365605 92.2869H286.634C286.731 92.2869 286.824 92.3244 286.893 92.3913C286.961 92.4581 287 92.5488 287 92.6434C287 92.738 286.961 92.8286 286.893 92.8955C286.824 92.9624 286.731 92.9999 286.634 92.9999Z" fill="#CACACA"/>
<path d="M217.901 69.4685H122.478C122.381 69.4685 122.288 69.4309 122.219 69.364C122.151 69.2972 122.112 69.2065 122.112 69.1119C122.112 69.0174 122.151 68.9266 122.219 68.8598C122.288 68.7929 122.381 68.7554 122.478 68.7554H217.901C217.998 68.7554 218.091 68.7929 218.159 68.8598C218.228 68.9266 218.266 69.0174 218.266 69.1119C218.266 69.2065 218.228 69.2972 218.159 69.364C218.091 69.4309 217.998 69.4685 217.901 69.4685Z" fill="#CACACA"/>
<path d="M171.537 9.60188L170.909 1.97495C170.849 1.81212 170.749 1.66645 170.617 1.55124C170.484 1.43604 170.325 1.355 170.152 1.31553C169.98 1.27606 169.8 1.27942 169.629 1.32532C169.458 1.37121 169.302 1.45817 169.174 1.57823L161.515 8.57604C159.095 8.0759 156.607 7.96671 154.151 8.25285L153.958 0.734552C153.906 0.567679 153.812 0.416302 153.684 0.294527C153.556 0.172753 153.398 0.0845334 153.226 0.0380807C153.054 -0.00837198 152.872 -0.0115439 152.698 0.0288539C152.524 0.0692518 152.364 0.151909 152.231 0.269132L146.051 6.94794C141.768 9.18799 138.333 12.7073 136.251 16.9899C134.168 21.2725 133.548 26.0931 134.479 30.7449C135.411 35.3967 137.847 39.635 141.429 42.8383C145.011 46.0417 149.552 48.0416 154.385 48.5449C159.217 49.0482 164.088 48.0283 168.283 45.6348C172.478 43.2413 175.777 39.6002 177.695 35.2452C179.613 30.8902 180.05 26.0504 178.942 21.4356C177.834 16.8207 175.238 12.6734 171.537 9.60188H171.537Z" fill="#3F3D56"/>
<path d="M174.376 40.5527C182.741 40.4229 193.266 69.0516 173.442 69.1999C163.184 69.2767 145.024 71.2277 145.024 71.2277C145.024 71.2277 130.908 50.5672 137.204 37.7136L174.376 40.5527Z" fill="#3F3D56"/>
<path d="M155.976 55.6815V70.5142H163.087L168.729 55.4109" fill="#3F3D56"/>
<path d="M163.087 70.7849H155.976C155.902 70.7849 155.831 70.7564 155.779 70.7057C155.727 70.655 155.698 70.5862 155.698 70.5145V55.6816C155.698 55.6099 155.727 55.5412 155.779 55.4905C155.831 55.4398 155.902 55.4113 155.976 55.4113C156.049 55.4113 156.12 55.4398 156.172 55.4905C156.224 55.5412 156.253 55.6099 156.253 55.6816V70.2441H162.893L168.468 55.3187C168.493 55.2513 168.545 55.1965 168.611 55.1662C168.678 55.1359 168.754 55.1327 168.823 55.1572C168.893 55.1817 168.949 55.232 168.98 55.297C169.011 55.362 169.014 55.4364 168.989 55.5038L163.347 70.607C163.328 70.6592 163.292 70.7042 163.246 70.736C163.199 70.7678 163.144 70.7849 163.087 70.7849V70.7849Z" fill="white"/>
<path d="M174.412 71.4978C177.627 71.4978 180.234 70.6504 180.234 69.6052C180.234 68.56 177.627 67.7126 174.412 67.7126C171.197 67.7126 168.59 68.56 168.59 69.6052C168.59 70.6504 171.197 71.4978 174.412 71.4978Z" fill="#3F3D56"/>
<path d="M171.501 67.983C171.442 67.983 171.384 67.9644 171.336 67.93C171.289 67.8956 171.254 67.8473 171.236 67.792C171.206 67.6949 168.26 58.0629 175.238 55.1622C175.271 55.1481 175.307 55.1406 175.344 55.1402C175.38 55.1397 175.416 55.1463 175.45 55.1595C175.484 55.1727 175.515 55.1923 175.541 55.2172C175.567 55.2421 175.588 55.2718 175.602 55.3045C175.617 55.3372 175.624 55.3724 175.625 55.408C175.625 55.4436 175.618 55.4789 175.604 55.5119C175.591 55.5448 175.57 55.5749 175.545 55.6002C175.519 55.6256 175.489 55.6458 175.455 55.6596C168.932 58.3716 171.737 67.5408 171.766 67.633C171.788 67.7016 171.78 67.7757 171.746 67.8391C171.712 67.9024 171.653 67.9499 171.583 67.971C171.556 67.9789 171.529 67.9829 171.501 67.983V67.983Z" fill="white"/>
<path d="M181.377 65.512C181.338 65.4574 181.31 65.4 181.276 65.344C180.973 65.3549 180.67 65.3658 180.367 65.3767L181.377 65.512Z" fill="#3F3D56"/>
<path d="M211.589 56.9417C209.319 53.4035 203.765 52.4204 200.364 54.955C198.83 56.0987 197.796 57.7521 196.485 59.1352C194.28 61.4472 191.339 62.9651 188.138 63.4431C185.91 63.7688 183.554 63.592 181.496 64.4866C179.501 65.3541 177.996 67.8306 179.082 69.6225C186.74 69.3473 194.399 69.072 202.057 68.7968C204.26 68.7176 206.542 68.6197 208.512 67.6545C212.337 65.781 213.859 60.4799 211.589 56.9417Z" fill="#3F3D56"/>
<path d="M155.05 46.6928C151.905 46.7209 148.787 46.1142 145.893 44.9108C139.852 42.3533 137.083 38.0374 136.968 37.8549C136.93 37.7939 136.918 37.7207 136.936 37.6514C136.953 37.5821 136.998 37.5222 137.06 37.4849C137.122 37.4475 137.197 37.4357 137.268 37.452C137.34 37.4682 137.401 37.5113 137.44 37.5718C139.629 40.6031 142.643 42.9774 146.142 44.4266C151.583 46.7205 160.873 47.8698 174.237 40.3186C174.269 40.3006 174.303 40.2889 174.34 40.2842C174.376 40.2794 174.413 40.2816 174.448 40.2907C174.483 40.2998 174.516 40.3156 174.545 40.3372C174.574 40.3587 174.599 40.3857 174.617 40.4165C174.635 40.4473 174.647 40.4813 174.652 40.5166C174.657 40.5518 174.654 40.5877 174.645 40.622C174.635 40.6564 174.619 40.6886 174.597 40.7168C174.575 40.7451 174.547 40.7687 174.515 40.7864C166.67 45.2192 160.194 46.6928 155.05 46.6928Z" fill="white"/>
<path d="M156.253 32.9706C155.738 32.97 155.245 32.7704 154.881 32.4156C154.517 32.0608 154.313 31.5798 154.312 31.078C154.312 31.0063 154.341 30.9375 154.393 30.8868C154.445 30.8361 154.516 30.8076 154.589 30.8076C154.663 30.8076 154.733 30.8361 154.785 30.8868C154.837 30.9375 154.867 31.0063 154.867 31.078C154.867 31.4365 155.013 31.7804 155.273 32.0339C155.533 32.2874 155.885 32.4298 156.253 32.4298C156.62 32.4298 156.973 32.2874 157.233 32.0339C157.493 31.7804 157.639 31.4365 157.639 31.078C157.639 31.0063 157.668 30.9375 157.72 30.8868C157.772 30.8361 157.843 30.8076 157.916 30.8076C157.99 30.8076 158.06 30.8361 158.112 30.8868C158.164 30.9375 158.193 31.0063 158.193 31.078C158.193 31.5798 157.988 32.0608 157.624 32.4156C157.261 32.7704 156.767 32.97 156.253 32.9706Z" fill="white"/>
<path d="M153.619 69.6509C153.56 69.6508 153.503 69.6326 153.455 69.5987C153.408 69.5648 153.373 69.5171 153.355 69.4625L148.919 55.8986C148.908 55.8647 148.904 55.829 148.906 55.7935C148.909 55.7581 148.92 55.7235 148.936 55.6919C148.953 55.6602 148.976 55.6321 149.004 55.6091C149.032 55.5861 149.064 55.5688 149.099 55.5579C149.133 55.5471 149.17 55.5431 149.206 55.5461C149.243 55.5492 149.278 55.5592 149.31 55.5755C149.343 55.5919 149.372 55.6144 149.395 55.6416C149.419 55.6689 149.436 55.7004 149.447 55.7343L153.883 69.2983C153.896 69.3388 153.899 69.3818 153.892 69.4238C153.885 69.4658 153.868 69.5055 153.843 69.5399C153.817 69.5742 153.783 69.6022 153.744 69.6214C153.705 69.6407 153.662 69.6508 153.619 69.6509V69.6509Z" fill="white"/>
<path d="M159.441 73.3904C162.656 73.3904 165.263 72.543 165.263 71.4978C165.263 70.4526 162.656 69.6052 159.441 69.6052C156.226 69.6052 153.619 70.4526 153.619 71.4978C153.619 72.543 156.226 73.3904 159.441 73.3904Z" fill="#3F3D56"/>
<path d="M150.015 73.1203C153.23 73.1203 155.837 72.273 155.837 71.2278C155.837 70.1825 153.23 69.3352 150.015 69.3352C146.799 69.3352 144.193 70.1825 144.193 71.2278C144.193 72.273 146.799 73.1203 150.015 73.1203Z" fill="#3F3D56"/>
<path d="M156.391 28.5305C157.616 28.5305 158.609 28.158 158.609 27.6986C158.609 27.2392 157.616 26.8667 156.391 26.8667C155.166 26.8667 154.173 27.2392 154.173 27.6986C154.173 28.158 155.166 28.5305 156.391 28.5305Z" fill="white"/>
<path d="M141.478 27.7592C142.113 27.0183 142.906 26.4222 143.803 26.0132C144.7 25.6042 145.678 25.3922 146.668 25.3922C147.658 25.3922 148.636 25.6042 149.533 26.0132C150.43 26.4222 151.223 27.0183 151.858 27.7592C152.933 26.7582 153.68 25.4687 154.004 24.0538C154.328 22.6389 154.214 21.1622 153.677 19.8103C153.14 18.4585 152.204 17.2922 150.988 16.4591C149.771 15.6259 148.329 15.1633 146.842 15.1297C145.356 15.096 143.893 15.4929 142.638 16.2701C141.384 17.0474 140.393 18.17 139.793 19.4961C139.192 20.8222 139.008 22.2922 139.264 23.7202C139.52 25.1483 140.205 26.4701 141.231 27.5187C141.312 27.6007 141.394 27.6809 141.478 27.7592Z" fill="white"/>
<path d="M161.772 27.7592C162.406 27.0183 163.2 26.4222 164.097 26.0132C164.994 25.6042 165.972 25.3922 166.962 25.3922C167.952 25.3922 168.93 25.6042 169.826 26.0132C170.723 26.4222 171.517 27.0183 172.152 27.7592C173.227 26.7582 173.974 25.4687 174.297 24.0538C174.621 22.6389 174.507 21.1622 173.971 19.8103C173.434 18.4585 172.498 17.2923 171.281 16.4591C170.065 15.6259 168.622 15.1633 167.136 15.1297C165.65 15.096 164.187 15.4929 162.932 16.2701C161.677 17.0474 160.687 18.17 160.086 19.4961C159.486 20.8222 159.302 22.2922 159.558 23.7202C159.814 25.1483 160.499 26.4701 161.525 27.5187C161.605 27.6007 161.688 27.6809 161.772 27.7592Z" fill="white"/>
<path d="M143.373 25.6921C144.801 25.6921 145.958 24.5633 145.958 23.1708C145.958 21.7783 144.801 20.6494 143.373 20.6494C141.945 20.6494 140.787 21.7783 140.787 23.1708C140.787 24.5633 141.945 25.6921 143.373 25.6921Z" fill="#3F3D56"/>
<path d="M163.666 25.6921C165.094 25.6921 166.251 24.5633 166.251 23.1708C166.251 21.7783 165.094 20.6494 163.666 20.6494C162.238 20.6494 161.08 21.7783 161.08 23.1708C161.08 24.5633 162.238 25.6921 163.666 25.6921Z" fill="#3F3D56"/>
<path d="M167.204 33.0953C168.455 33.0953 169.469 32.1062 169.469 30.8859C169.469 29.6657 168.455 28.6765 167.204 28.6765C165.952 28.6765 164.938 29.6657 164.938 30.8859C164.938 32.1062 165.952 33.0953 167.204 33.0953Z" fill="#FF6584"/>
<path d="M146.73 33.0953C147.981 33.0953 148.995 32.1062 148.995 30.8859C148.995 29.6657 147.981 28.6765 146.73 28.6765C145.478 28.6765 144.464 29.6657 144.464 30.8859C144.464 32.1062 145.478 33.0953 146.73 33.0953Z" fill="#FF6584"/>
</g>
<defs>
<clipPath id="clip0">
<rect width="287" height="93" fill="white"/>
</clipPath>
</defs>
</svg>
