<svg width="157" height="114" viewBox="0 0 157 114" fill="none" xmlns="http://www.w3.org/2000/svg">
<g clip-path="url(#clip0)">
<path d="M154.355 80.1414C151.61 85.7932 146.856 90.1175 141.417 93.408C139.187 94.7464 136.867 95.9313 134.475 96.9544C132.91 97.6305 131.323 98.2475 129.715 98.8054C121.739 101.584 113.3 102.942 104.846 102.946C103.465 102.948 102.083 102.913 100.701 102.84C100.305 102.82 99.9088 102.797 99.5124 102.771C97.424 102.632 95.3425 102.411 93.2678 102.106C93.2269 102.1 93.1847 102.094 93.1439 102.087C88.8041 101.448 84.5256 100.447 80.3531 99.0962C79.5443 98.8344 78.7403 98.5596 77.9412 98.2717C77.7255 98.1961 77.5099 98.1162 77.2956 98.0376C76.395 97.7047 75.5012 97.3552 74.6142 96.9893C73.868 96.6825 73.1262 96.364 72.3889 96.034C71.6631 95.7068 70.9422 95.369 70.2262 95.0205C69.0545 94.4476 67.8955 93.8471 66.749 93.219C65.8645 92.7304 64.9915 92.2234 64.1303 91.6981C61.9943 90.3964 59.9275 88.9851 57.9381 87.4697C57.2357 86.9346 56.543 86.386 55.86 85.8238C55.3864 85.4341 54.9171 85.0357 54.4406 84.6489C53.435 83.8332 52.4003 83.0582 51.2462 82.478C50.8979 82.3029 50.5409 82.1457 50.1765 82.0069C48.8146 81.5042 47.3799 81.2257 45.9284 81.1825C43.4524 81.0851 40.8963 81.5445 38.5019 82.225C37.3638 82.5464 36.2387 82.9157 35.1137 83.2938C34.6517 83.4493 34.1902 83.6054 33.7292 83.7619C32.7761 84.0862 31.8231 84.4032 30.8613 84.6925C30.5406 84.7885 30.2201 84.883 29.8979 84.9717C28.6121 85.3411 27.3016 85.619 25.9764 85.8034C23.0168 86.1789 20.0109 85.9176 17.161 85.0371L16.9177 84.9615C16.5097 84.8336 16.106 84.694 15.7037 84.5413L15.4604 84.4483C15.0728 84.2985 14.6924 84.1381 14.3193 83.967L14.0759 83.8565C13.7174 83.6893 13.3662 83.5148 13.0209 83.3301C12.9917 83.3156 12.964 83.301 12.9348 83.285C12.8008 83.2152 12.6682 83.1396 12.537 83.0684C10.4211 81.8868 8.49698 80.3921 6.8302 78.635C6.78209 78.5871 6.73691 78.5376 6.68447 78.4896C6.45271 78.2395 6.22536 77.9851 6.00533 77.7248C5.92372 77.6288 5.8421 77.5329 5.76198 77.434C5.50111 77.1156 5.249 76.7904 5.00564 76.4584C4.96921 76.4104 4.9342 76.3609 4.89926 76.313C3.90405 74.9387 3.07859 73.4497 2.44075 71.8782C2.42033 71.8302 2.4014 71.7807 2.3839 71.7328C2.19006 71.234 2.01276 70.7266 1.85199 70.2104C1.78638 69.9952 1.72376 69.7742 1.66833 69.559C1.6494 69.495 1.6319 69.4296 1.61589 69.3656C0.818779 66.2074 0.732758 62.9228 0.732758 59.657V58.5156C0.756096 53.2331 0.837715 47.8605 1.61881 42.6507C1.62192 42.6145 1.62726 42.5786 1.63483 42.5431C1.89716 40.7893 2.25276 39.0508 2.70013 37.3347C3.16993 35.5345 3.76947 33.7706 4.49408 32.0566C6.29096 27.8399 8.90395 24.0027 11.8054 20.4462C19.1066 11.5024 28.6913 3.9836 39.9097 1.17878C51.9981 -1.84997 65.4331 1.05228 75.1839 8.7979C78.0593 11.0807 80.6518 13.7707 83.8389 15.5824C83.9468 15.6449 84.0561 15.706 84.1668 15.7656C84.588 15.9939 85.0184 16.2013 85.458 16.3879C86.0405 16.6362 86.64 16.8427 87.2519 17.0059C89.1887 17.525 91.2129 17.5715 93.1439 16.9274C93.3013 16.8736 93.4587 16.8169 93.6146 16.7544C93.9454 16.6235 94.2616 16.5014 94.5662 16.3879C96.6443 15.6159 98.2445 15.2407 100.77 15.3759C106.768 15.7131 112.68 16.9478 118.31 19.0386C118.538 19.1215 118.765 19.2073 118.991 19.2931C133.667 24.8984 146.286 36.029 152.841 50.3323C153.016 50.7104 153.185 51.0913 153.347 51.4752C157.257 60.5803 158.668 71.2631 154.355 80.1414Z" fill="#F2F2F2"/>
<path d="M9.26966 74.5361V74.5943L9.2478 74.6205L9.26966 74.5361Z" fill="#CACACA"/>
<path d="M35.1137 83.2937C34.6517 83.4493 34.1902 83.6053 33.7292 83.7619V83.2937H35.1137Z" fill="white"/>
<path d="M87.252 8.54492H83.8387V17.059H87.252V8.54492Z" fill="#E4E4E4"/>
<path d="M93.1439 16.3879V102.087C88.8042 101.448 84.5257 100.447 80.3531 99.0961C79.5443 98.8344 78.7404 98.5596 77.9413 98.2717C77.7256 98.1961 77.5099 98.1161 77.2957 98.0376C76.395 97.7046 75.5012 97.3552 74.6142 96.9893C73.868 96.6825 73.1263 96.364 72.3889 96.034C71.6631 95.7068 70.9423 95.369 70.2263 95.0205C69.0546 94.4476 67.8955 93.8471 66.7491 93.2189C65.8645 92.7304 64.9916 92.2234 64.1303 91.698V16.3879H93.1439Z" fill="#E4E4E4"/>
<path d="M104.846 16.3879V102.946C103.465 102.948 102.083 102.913 100.702 102.84C100.305 102.82 99.9088 102.797 99.5124 102.771C97.424 102.632 95.3425 102.411 93.2678 102.106C93.2269 102.1 93.1847 102.094 93.1439 102.087V16.3879H104.846Z" fill="#CACACA"/>
<path d="M73.7608 24.9019H69.3723V29.2805H73.7608V24.9019Z" fill="white"/>
<path d="M80.8313 24.9019H76.4427V29.2805H80.8313V24.9019Z" fill="white"/>
<path d="M87.9017 24.9019H83.5132V29.2805H87.9017V24.9019Z" fill="white"/>
<path d="M73.8828 34.8752H69.4942V39.2539H73.8828V34.8752Z" fill="white"/>
<path d="M80.9532 34.8752H76.5646V39.2539H80.9532V34.8752Z" fill="white"/>
<path d="M88.0236 34.8752H83.635V39.2539H88.0236V34.8752Z" fill="white"/>
<path d="M74.0046 44.8489H69.6161V49.2275H74.0046V44.8489Z" fill="white"/>
<path d="M81.0751 44.8489H76.6866V49.2275H81.0751V44.8489Z" fill="white"/>
<path d="M88.1455 44.8489H83.757V49.2275H88.1455V44.8489Z" fill="white"/>
<path d="M74.1265 54.8225H69.738V59.2012H74.1265V54.8225Z" fill="white"/>
<path d="M81.197 54.8225H76.8084V59.2012H81.197V54.8225Z" fill="white"/>
<path d="M88.2674 54.8225H83.8789V59.2012H88.2674V54.8225Z" fill="white"/>
<path d="M74.2485 64.7961H69.8599V69.1748H74.2485V64.7961Z" fill="white"/>
<path d="M81.3189 64.7961H76.9303V69.1748H81.3189V64.7961Z" fill="white"/>
<path d="M88.3893 64.7961H84.0008V69.1748H88.3893V64.7961Z" fill="white"/>
<path d="M74.3704 74.7698H69.9818V79.1484H74.3704V74.7698Z" fill="white"/>
<path d="M81.4408 74.7698H77.0522V79.1484H81.4408V74.7698Z" fill="white"/>
<path d="M88.5112 74.7698H84.1227V79.1484H88.5112V74.7698Z" fill="white"/>
<path d="M74.4923 84.7434H70.1037V89.122H74.4923V84.7434Z" fill="white"/>
<path d="M81.5627 84.7434H77.1742V89.122H81.5627V84.7434Z" fill="white"/>
<path d="M88.6331 84.7434H84.2446V89.122H88.6331V84.7434Z" fill="white"/>
<path d="M74.6142 94.7168V96.9894C73.868 96.6826 73.1262 96.3642 72.3889 96.0341C71.6631 95.707 70.9422 95.3692 70.2262 95.0207V94.7168H74.6142Z" fill="white"/>
<path d="M81.6851 94.7166V99.0961H80.3531C79.5443 98.8344 78.7403 98.5596 77.9412 98.2717C77.7256 98.1961 77.5099 98.1161 77.2956 98.0376V94.7166L81.6851 94.7166Z" fill="white"/>
<path d="M88.755 94.717H84.3665V99.0957H88.755V94.717Z" fill="white"/>
<path d="M127.033 51.9033H123.619V56.9494H127.033V51.9033Z" fill="#E4E4E4"/>
<path d="M129.715 56.5164V98.8054C121.739 101.584 113.3 102.942 104.846 102.946C103.465 102.948 102.083 102.913 100.702 102.84V56.5164H129.715Z" fill="#E4E4E4"/>
<path d="M141.417 56.5164V93.408C139.187 94.7464 136.867 95.9313 134.475 96.9544C132.91 97.6305 131.323 98.2475 129.715 98.8054V56.5164H141.417Z" fill="#CACACA"/>
<path d="M110.82 64.7961H106.431V69.1748H110.82V64.7961Z" fill="white"/>
<path d="M117.89 64.7961H113.501V69.1748H117.89V64.7961Z" fill="white"/>
<path d="M124.96 64.7961H120.572V69.1748H124.96V64.7961Z" fill="white"/>
<path d="M110.941 74.7698H106.553V79.1484H110.941V74.7698Z" fill="white"/>
<path d="M118.012 74.7698H113.623V79.1484H118.012V74.7698Z" fill="white"/>
<path d="M125.082 74.7698H120.694V79.1484H125.082V74.7698Z" fill="white"/>
<path d="M111.063 84.7434H106.675V89.122H111.063V84.7434Z" fill="white"/>
<path d="M118.134 84.7434H113.745V89.122H118.134V84.7434Z" fill="white"/>
<path d="M125.204 84.7434H120.816V89.122H125.204V84.7434Z" fill="white"/>
<path d="M111.185 94.717H106.797V99.0957H111.185V94.717Z" fill="white"/>
<path d="M118.256 94.717H113.867V99.0957H118.256V94.717Z" fill="white"/>
<path d="M125.326 94.717H120.938V99.0957H125.326V94.717Z" fill="white"/>
<path d="M104.136 104.28C104.136 104.28 105.697 109.82 112.235 109.568C118.773 109.316 121.6 104.179 121.6 104.179L104.136 104.28Z" fill="#3F3D56"/>
<path d="M14.0385 82.6754L12.1705 86.0888L12.4737 92.4957L57.2361 105.766L76.7281 108.158L72.9174 84.9646L59.5825 82.6088L39.5786 83.179L22.6191 80.0566L14.0385 82.6754Z" fill="#2F2E41"/>
<path d="M20.2696 105.136H19.1141C17.9971 105.14 16.9022 104.825 15.959 104.228C15.0157 103.631 14.2636 102.777 13.7914 101.767C12.01 97.8866 12.5377 92.5211 12.5455 92.4446C12.9492 87.8069 15.4966 84.7812 18.8849 84.9185C22.6254 85.069 25.8151 97.9778 25.949 98.5273C26.1713 99.4539 26.1128 100.425 25.781 101.319C25.3682 102.444 24.6173 103.415 23.6308 104.098C22.6443 104.781 21.4705 105.144 20.2696 105.136V105.136Z" fill="#3F3D56"/>
<path d="M67.3902 114C67.1925 113.995 66.9954 113.976 66.8004 113.943C65.3053 113.708 63.892 113.106 62.6876 112.192C61.4833 111.277 60.5255 110.078 59.9005 108.702C59.4319 107.686 58.9812 106.645 58.5608 105.609C56.8726 101.447 58.2878 94.172 60.5874 91.3562C62.6171 88.8708 64.6599 88.8904 67.7524 88.9195C68.0699 88.9226 68.3988 88.9256 68.7402 88.9262C72.1737 88.9318 75.8037 101.534 76.9965 105.675C77.0914 106.005 77.17 106.277 77.2307 106.482C77.4176 107.111 77.3954 107.864 77.1647 108.719C76.4368 111.416 74.0382 113.417 71.196 113.697C69.1545 113.898 67.8741 114 67.3902 114Z" fill="#3F3D56"/>
<path d="M12.4737 92.4958C12.4737 92.4958 11.1613 86.6539 13.1299 82.6754L15.1139 77.8911L22.6112 84.8409L24.3231 95.7157L53.6611 100.151C53.6611 100.151 51.844 82.3229 63.2513 81.6178C74.6586 80.9128 80.0713 100.151 80.0713 100.151L85.763 104.28L125.436 101.359C125.436 101.359 126.136 103.273 125.13 104.28C124.124 105.288 75.9709 108.41 75.9709 108.41C75.9709 108.41 73.5481 84.5388 63.9579 86.7547C54.3677 88.9705 57.236 105.766 57.236 105.766L22.9724 99.7478C22.9724 99.7478 21.862 83.5315 16.2088 83.5315C10.5556 83.5315 12.4737 92.4958 12.4737 92.4958Z" fill="#3F3D56"/>
<path d="M19.2345 72.1864L25.6981 62.0776L53.2573 60.4661L83.845 60.869L98.0789 74.0636L54.0648 76.5815L18.6316 74.6679L19.2345 72.1864Z" fill="#3F3D56"/>
<path d="M19.2345 72.1865C19.2345 72.1865 13.7356 72.3009 13.1299 82.6753C13.1299 82.6753 18.985 72.0995 24.0324 95.6685L54.1658 100.554C54.1658 100.554 53.0554 80.9127 64.4627 82.4235C75.87 83.9344 78.5956 101.964 78.5956 101.964C78.5956 101.964 80.8165 106.395 93.0314 105.69C105.246 104.985 123.518 103.877 125.436 101.359C125.436 101.359 129.878 86.3517 116.048 76.6824L98.0789 74.0636L57.3962 74.8694L19.2345 72.1865Z" fill="#6C63FF"/>
<path d="M33.0169 79.2509H29.5846C29.4916 79.2513 29.3994 79.2333 29.3134 79.1981C29.2273 79.1628 29.1491 79.1109 29.0832 79.0454C29.0173 78.9799 28.965 78.902 28.9294 78.8163C28.8937 78.7306 28.8753 78.6387 28.8753 78.5459C28.8753 78.4531 28.8937 78.3612 28.9294 78.2755C28.965 78.1897 29.0173 78.1119 29.0832 78.0464C29.1491 77.9809 29.2273 77.929 29.3134 77.8937C29.3994 77.8584 29.4916 77.8405 29.5846 77.8408H33.0169C33.2039 77.8415 33.3829 77.9161 33.5149 78.0483C33.6468 78.1804 33.7209 78.3594 33.7209 78.5459C33.7209 78.7324 33.6468 78.9114 33.5149 79.0435C33.3829 79.1756 33.2039 79.2502 33.0169 79.2509V79.2509Z" fill="#CACACA"/>
<path d="M85.2583 101.158C86.4849 101.158 87.4792 100.166 87.4792 98.942C87.4792 97.7182 86.4849 96.7261 85.2583 96.7261C84.0317 96.7261 83.0374 97.7182 83.0374 98.942C83.0374 100.166 84.0317 101.158 85.2583 101.158Z" fill="white"/>
<path d="M84.158 88.0691C82.6374 88.0691 80.8221 87.4215 79.1973 86.1727C76.3302 83.9689 75.1256 80.715 76.5121 78.9193C77.8987 77.1234 81.3593 77.4553 84.2264 79.6589C85.612 80.724 86.6553 82.0625 87.1639 83.4279C87.6756 84.8014 87.586 86.0389 86.9116 86.9123C86.3108 87.6905 85.3205 88.0691 84.158 88.0691Z" fill="white"/>
<path d="M123.624 85.2555C122.505 85.2555 120.496 84.1253 118.506 82.2913C117.314 81.1919 116.326 80.0135 115.725 78.9731C115.114 77.9163 114.975 77.1214 115.333 76.7346C115.691 76.3479 116.496 76.4235 117.6 76.9476C118.687 77.4636 119.943 78.3532 121.135 79.4525C123.652 81.7726 125.046 84.2134 124.309 85.0093C124.218 85.096 124.111 85.1627 123.993 85.2051C123.875 85.2475 123.749 85.2647 123.624 85.2555V85.2555Z" fill="white"/>
<path d="M29.8058 72.1845C29.7818 72.1845 29.7576 72.1834 29.7334 72.1812L22.4338 71.504C22.3006 71.4917 22.1728 71.4456 22.0625 71.3701C21.9521 71.2946 21.863 71.1923 21.8034 71.0728C21.7438 70.9532 21.7159 70.8205 21.7221 70.6872C21.7284 70.5539 21.7687 70.4244 21.8392 70.311L25.9555 63.6895C26.0228 63.5811 26.1156 63.4908 26.2259 63.4264C26.3361 63.3619 26.4605 63.3253 26.5881 63.3198L32.0325 63.0801C32.1577 63.0746 32.2824 63.0991 32.3961 63.1514C32.5099 63.2038 32.6095 63.2826 32.6865 63.3812C32.7635 63.4798 32.8157 63.5954 32.8389 63.7182C32.862 63.8411 32.8553 63.9677 32.8194 64.0875L30.5583 71.6257C30.5095 71.787 30.41 71.9284 30.2745 72.029C30.139 72.1297 29.9747 72.1842 29.8058 72.1845Z" fill="white"/>
<path d="M49.0413 73.736C48.9693 73.736 48.8968 73.7324 48.8238 73.7253L36.2043 72.4858C35.8853 72.4545 35.577 72.3541 35.301 72.1917C35.0249 72.0293 34.7877 71.8087 34.6058 71.5454C34.424 71.2821 34.3019 70.9824 34.2482 70.6671C34.1944 70.3519 34.2102 70.0287 34.2945 69.7202L36.1099 63.0738C36.2321 62.6204 36.4972 62.2181 36.8662 61.9266C37.2351 61.6351 37.6883 61.4697 38.1587 61.4549L48.3432 61.1001C48.8957 61.0837 49.4345 61.274 49.8537 61.6336C50.2728 61.9932 50.5421 62.4962 50.6086 63.0438L51.4489 70.2772C51.4771 70.5185 51.4648 70.7628 51.4127 71.0001L51.1919 72.0074C51.0844 72.4969 50.8127 72.9351 50.4216 73.2494C50.0305 73.5638 49.5435 73.7354 49.0413 73.736Z" fill="white"/>
<path d="M58.8903 74.0855C58.5209 74.0844 58.1628 73.959 57.8737 73.7297C57.5845 73.5003 57.3814 73.1805 57.2969 72.8217L55.0707 63.2207C55.0152 62.9815 55.0146 62.7329 55.0688 62.4934C55.123 62.2539 55.2307 62.0298 55.3838 61.8376C55.537 61.6454 55.7316 61.4902 55.9532 61.3835C56.1748 61.2768 56.4177 61.2214 56.6638 61.2214H83.0634C83.2823 61.2219 83.4989 61.266 83.7004 61.3511C83.902 61.4362 84.0845 61.5606 84.2372 61.717L92.8601 70.5875C93.0816 70.8153 93.2317 71.1028 93.2919 71.4145C93.3522 71.7262 93.32 72.0487 93.1992 72.3424C93.0785 72.6361 92.8745 72.8883 92.6123 73.0681C92.3501 73.2479 92.0409 73.3474 91.7228 73.3545L58.9265 74.0851C58.9144 74.0854 58.9023 74.0855 58.8903 74.0855Z" fill="white"/>
<path d="M25.4727 62.4301L25.6981 62.0777C25.6981 62.0777 27.0104 58.4517 45.0804 57.8473C63.1504 57.243 80.0089 57.5452 83.845 60.869L52.6516 60.7683L26.3038 62.5813L25.4727 62.4301Z" fill="#6C63FF"/>
<path d="M16.9155 88.2656C15.0199 88.2656 13.4832 91.4223 13.4832 95.3162C13.4832 99.2101 15.0199 102.367 16.9155 102.367C18.8111 102.367 20.3477 99.2101 20.3477 95.3162C20.3477 91.4223 18.8111 88.2656 16.9155 88.2656ZM17.0669 89.7765C17.485 89.7765 17.824 90.5882 17.824 91.5895C17.824 92.5907 17.485 93.4025 17.0669 93.4025C16.6487 93.4025 16.3098 92.5907 16.3098 91.5895C16.3098 90.5882 16.6487 89.7765 17.0669 89.7765ZM17.5212 95.3162C17.5212 95.6499 17.2952 95.9205 17.0164 95.9205C16.7377 95.9205 16.5117 95.6499 16.5117 95.3162C16.5117 94.9824 16.7377 94.7118 17.0164 94.7118C17.2952 94.7118 17.5212 94.9824 17.5212 95.3162V95.3162ZM14.8839 95.704C14.2347 95.7541 13.6916 95.5759 13.6707 95.306C13.6498 95.0362 14.1591 94.7769 14.8082 94.7269C15.4573 94.6768 16.0004 94.855 16.0213 95.1249C16.0422 95.3947 15.5329 95.654 14.8839 95.704L14.8839 95.704ZM17.0669 100.856C16.6488 100.856 16.3098 100.044 16.3098 99.0429C16.3098 98.0416 16.6488 97.2299 17.0669 97.2299C17.485 97.2299 17.824 98.0416 17.824 99.0429C17.824 100.044 17.485 100.856 17.0669 100.856H17.0669ZM19.0228 95.704C18.3737 95.7541 17.8306 95.5759 17.8097 95.306C17.7888 95.0362 18.298 94.7769 18.9471 94.7269C19.5962 94.6768 20.1393 94.855 20.1602 95.1249C20.1811 95.3947 19.6719 95.654 19.0228 95.704L19.0228 95.704Z" fill="#E4E4E4"/>
<path d="M64.8665 92.9995C61.8559 92.9995 59.4152 97.0355 59.4152 102.014C59.4152 106.993 61.8559 111.029 64.8665 111.029C67.8771 111.029 70.3178 106.993 70.3178 102.014C70.3178 97.0355 67.8771 92.9995 64.8665 92.9995ZM61.6098 102.691C60.7306 102.758 59.9949 102.517 59.9666 102.151C59.9383 101.786 60.6281 101.435 61.5073 101.367C62.3865 101.299 63.1222 101.541 63.1505 101.906C63.1788 102.272 62.489 102.623 61.6098 102.691ZM64.8697 109.568C64.3033 109.568 63.8442 108.469 63.8442 107.113C63.8442 105.756 64.3033 104.657 64.8697 104.657C65.4361 104.657 65.8953 105.756 65.8953 107.113C65.8953 108.469 65.4361 109.568 64.8697 109.568V109.568ZM64.0589 102.065C64.0589 101.53 64.4205 101.098 64.8665 101.098C65.3125 101.098 65.6741 101.53 65.6741 102.065C65.6741 102.599 65.3125 103.031 64.8665 103.031C64.4205 103.031 64.0589 102.599 64.0589 102.065ZM64.8697 99.4723C64.3033 99.4723 63.8442 98.3728 63.8442 97.0165C63.8442 95.6602 64.3033 94.5607 64.8697 94.5607C65.4361 94.5607 65.8953 95.6602 65.8953 97.0165C65.8953 98.3728 65.4361 99.4723 64.8697 99.4723V99.4723ZM68.3266 102.489C67.4474 102.557 66.7117 102.316 66.6834 101.95C66.6551 101.585 67.3449 101.233 68.2241 101.166C69.1034 101.098 69.839 101.339 69.8673 101.705C69.8956 102.07 69.2058 102.421 68.3266 102.489Z" fill="#E4E4E4"/>
<path d="M45.787 74.9702L46.9984 77.7904C46.9984 77.7904 49.0174 78.5962 50.3298 75.8767L47.6705 73.2234L45.787 74.9702Z" fill="#CACACA"/>
<path d="M44.1214 75.6247C41.9505 75.6247 40.1843 74.45 40.1843 73.006C40.1843 71.562 41.9505 70.3872 44.1214 70.3872C46.2922 70.3872 48.0584 71.562 48.0584 73.006C48.0584 74.45 46.2922 75.6247 44.1214 75.6247Z" fill="#CACACA"/>
<path d="M120.036 84.8408L97.4654 85.4991C97.4654 85.4991 92.5259 86.8815 92.0219 90.8313C92.0219 90.8313 92.7275 94.0569 94.542 94.0569C96.3565 94.0569 124.179 92.6087 124.179 92.6087C124.179 92.6087 125.993 89.8438 124.481 87.869C122.969 85.8941 120.036 84.8408 120.036 84.8408Z" fill="#3F3D56"/>
<path d="M121.99 86.0993L95.5212 86.9724L95.5312 87.2744L122 86.4012L121.99 86.0993Z" fill="#E4E4E4"/>
<path d="M122.953 87.0568L94.1654 88.3582L94.1791 88.6599L122.966 87.3586L122.953 87.0568Z" fill="#E4E4E4"/>
<path d="M123.96 88.3572L93.0889 90.0112L93.1051 90.313L123.976 88.659L123.96 88.3572Z" fill="#E4E4E4"/>
<path d="M16.755 81.6633C16.6317 81.5052 16.5447 81.3221 16.5 81.1269C16.4553 80.9316 16.454 80.729 16.4963 80.5332C16.5386 80.3374 16.6234 80.1533 16.7447 79.9937C16.866 79.8342 17.0209 79.7031 17.1985 79.6097L16.9118 76.4921L18.7681 75.8562L19.1111 80.2646C19.2486 80.5727 19.268 80.9204 19.1657 81.2419C19.0633 81.5633 18.8463 81.8361 18.5558 82.0086C18.2653 82.181 17.9215 82.2411 17.5895 82.1775C17.2576 82.1139 16.9606 81.931 16.7548 81.6634L16.755 81.6633Z" fill="#FFB8B8"/>
<path d="M18.7479 63.7697C18.7479 63.7697 20.0217 61.1022 21.1537 62.0399C22.2857 62.9775 19.6018 70.8653 19.6018 70.8653L19.1937 78.5226L17.0424 78.308L16.4341 70.8484L18.7479 63.7697Z" fill="#E6E6E6"/>
<path d="M1.66055 103.233L3.25749 104.523L9.00364 98.9905L6.64675 97.0874L1.66055 103.233Z" fill="#FFB8B8"/>
<path d="M1.67509 102.384L4.82012 104.924C5.35162 105.353 5.69043 105.976 5.76201 106.654C5.83359 107.333 5.63208 108.012 5.20181 108.542L5.14911 108.607L0 104.449L1.67509 102.384Z" fill="#2F2E41"/>
<path d="M23.8549 106.814H25.9095L26.8864 98.906H23.8545L23.8549 106.814Z" fill="#FFB8B8"/>
<path d="M23.3306 106.145H27.377C28.0609 106.145 28.7168 106.416 29.2004 106.898C29.6839 107.38 29.9557 108.035 29.9557 108.717V108.801H23.3308L23.3306 106.145Z" fill="#2F2E41"/>
<path d="M27.46 69.7441C27.46 69.7441 31.3146 74.4256 30.4767 79.1082C29.6387 83.7907 28.9683 87.3018 28.9683 87.3018L27.6283 97.8361C27.6283 97.8361 28.1311 100.705 27.4607 101.444C27.4607 101.444 28.4663 103.187 26.6228 103.856C24.7793 104.525 23.7839 103.625 23.7839 103.625C23.7839 103.625 22.4323 101.682 23.2702 101.181L23.6233 80.5062L10.1982 98.0033C10.1982 98.0033 9.95149 100.131 8.23127 100.154L6.176 101.682L3.82971 100.344L5.00285 98.8391C5.00285 98.8391 4.33249 97.1669 5.8408 96.8325L14.5556 85.4622L16.7343 79.6097C16.7343 79.6097 17.9074 75.0949 21.0917 73.2555V71.2985L27.46 69.7441Z" fill="#2F2E41"/>
<path d="M20.8403 61.6341C21.3477 61.0358 22.058 60.6446 22.8359 60.535C23.6137 60.4255 24.4048 60.6052 25.0584 61.04L25.1977 61.1326C26.6852 62.8135 27.685 64.8674 28.0894 67.0731L28.717 70.4966L20.8402 72.199L18.9936 65.8448C18.7592 65.0383 18.8157 64.1754 19.153 63.4061C19.4904 62.6368 20.0874 62.0098 20.8402 61.6343L20.8403 61.6341Z" fill="#E6E6E6"/>
<path d="M33.7813 82.3909C33.5629 82.3197 33.3629 82.2016 33.1952 82.0449C33.0275 81.8882 32.8964 81.6967 32.8109 81.4839C32.7254 81.2711 32.6878 81.0422 32.7005 80.8134C32.7133 80.5845 32.7762 80.3612 32.8849 80.1592L30.6126 77.3847L31.9657 75.5957L35.1194 79.559C35.4473 79.7636 35.6886 80.0811 35.7976 80.4513C35.9066 80.8216 35.8757 81.2188 35.7108 81.5679C35.5459 81.9169 35.2584 82.1935 34.9028 82.3452C34.5472 82.4969 34.1481 82.5131 33.7813 82.3909H33.7813Z" fill="#FFB8B8"/>
<path d="M24.192 64.1426C24.192 64.1426 23.6892 60.7983 25.3651 60.9655C27.041 61.1328 29.5549 70.3295 29.5549 70.3295L34.0799 77.8542L31.9012 79.0247L26.5383 72.3361L24.192 64.1426Z" fill="#E6E6E6"/>
<path d="M27.2611 59.2533H19.2805C19.1163 59.2531 18.959 59.1879 18.8429 59.0721C18.7268 58.9563 18.6615 58.7993 18.6613 58.6355V55.2033C18.6613 53.9836 19.147 52.8138 20.0114 51.9513C20.8758 51.0888 22.0483 50.6042 23.2708 50.6042C24.4933 50.6042 25.6657 51.0888 26.5302 51.9513C27.3946 52.8138 27.8802 53.9836 27.8802 55.2033V55.2033V58.6355C27.8801 58.7993 27.8148 58.9563 27.6987 59.0721C27.5826 59.1879 27.4252 59.2531 27.2611 59.2533V59.2533Z" fill="#2F2E41"/>
<path d="M24.218 59.1734C26.0845 59.1734 27.5975 57.6638 27.5975 55.8016C27.5975 53.9393 26.0845 52.4297 24.218 52.4297C22.3516 52.4297 20.8385 53.9393 20.8385 55.8016C20.8385 57.6638 22.3516 59.1734 24.218 59.1734Z" fill="#FFB8B8"/>
<path d="M28.9707 55.5466H24.7176L24.674 54.8475L24.4559 55.5466H23.8011L23.7147 54.1611L23.2825 55.5466H22.0154V55.4779C22.0154 53.4719 23.441 51.8398 25.1938 51.8398H25.7935C27.5457 51.8398 28.9719 53.4719 28.9719 55.4779L28.9707 55.5466Z" fill="#2F2E41"/>
<path d="M24.8937 59.894C24.8418 59.8939 24.7899 59.8899 24.7385 59.882L19.6762 59.104V53.8432C19.6762 53.3058 19.8902 52.7904 20.2711 52.4104C20.6519 52.0304 21.1685 51.8169 21.7072 51.8169H25.2489L25.1113 51.9571C23.1918 53.9065 24.6379 57.0686 25.6707 58.7802C25.7465 58.9032 25.7807 59.0472 25.7684 59.1911C25.756 59.3349 25.6976 59.471 25.6019 59.5793C25.514 59.6801 25.4052 59.7605 25.2829 59.8149C25.1606 59.8693 25.0279 59.8965 24.894 59.8944L24.8937 59.894Z" fill="#2F2E41"/>
</g>
<defs>
<clipPath id="clip0">
<rect width="157" height="114" fill="white"/>
</clipPath>
</defs>
</svg>
