<svg width="99" height="99" viewBox="0 0 99 99" fill="none" xmlns="http://www.w3.org/2000/svg">
<circle cx="49.5" cy="49.5" r="48.5" fill="#58DD90" stroke="#05386B" stroke-width="2"/>
<path d="M50.4519 53.1887C56.1693 53.1887 60.8041 48.5539 60.8041 42.8365C60.8041 37.1192 56.1693 32.4844 50.4519 32.4844C44.7346 32.4844 40.0998 37.1192 40.0998 42.8365C40.0998 48.5539 44.7346 53.1887 50.4519 53.1887Z" stroke="#05386B" stroke-width="2" stroke-linecap="round" stroke-linejoin="round"/>
<path d="M50.4519 15.2307C43.1304 15.2307 36.1088 18.1392 30.9317 23.3163C25.7546 28.4933 22.8462 35.515 22.8462 42.8365C22.8462 49.3652 24.2334 53.6372 28.0222 58.3647L50.4519 84.2451L72.8816 58.3647C76.6705 53.6372 78.0577 49.3652 78.0577 42.8365C78.0577 35.515 75.1492 28.4933 69.9722 23.3163C64.7951 18.1392 57.7734 15.2307 50.4519 15.2307V15.2307Z" stroke="#05386B" stroke-width="2" stroke-linecap="round" stroke-linejoin="round"/>
</svg>
