<svg width="83" height="74" viewBox="0 0 83 74" fill="none" xmlns="http://www.w3.org/2000/svg">
<path d="M76.0833 4.625H6.91667C3.09809 4.625 0 7.73242 0 11.5625V62.4375C0 66.2676 3.09809 69.375 6.91667 69.375H76.0833C79.9019 69.375 83 66.2676 83 62.4375V11.5625C83 7.73242 79.9019 4.625 76.0833 4.625ZM76.0833 62.4375H43.6903C43.82 61.7871 43.8056 62.9578 43.8056 59.2C43.8056 54.6039 39.4682 50.875 34.1222 50.875C32.566 50.875 31.4276 52.0312 27.6667 52.0312C23.7905 52.0312 22.8538 50.875 21.2111 50.875C15.8651 50.875 11.5278 54.6039 11.5278 59.2C11.5278 62.9578 11.499 61.7871 11.6431 62.4375H6.91667V20.8125H76.0833V62.4375ZM51.875 50.875H68.0139C68.6479 50.875 69.1667 50.3547 69.1667 49.7188V47.4062C69.1667 46.7703 68.6479 46.25 68.0139 46.25H51.875C51.241 46.25 50.7222 46.7703 50.7222 47.4062V49.7188C50.7222 50.3547 51.241 50.875 51.875 50.875ZM51.875 41.625H68.0139C68.6479 41.625 69.1667 41.1047 69.1667 40.4688V38.1562C69.1667 37.5203 68.6479 37 68.0139 37H51.875C51.241 37 50.7222 37.5203 50.7222 38.1562V40.4688C50.7222 41.1047 51.241 41.625 51.875 41.625ZM51.875 32.375H68.0139C68.6479 32.375 69.1667 31.8547 69.1667 31.2188V28.9062C69.1667 28.2703 68.6479 27.75 68.0139 27.75H51.875C51.241 27.75 50.7222 28.2703 50.7222 28.9062V31.2188C50.7222 31.8547 51.241 32.375 51.875 32.375ZM27.6667 46.25C32.7533 46.25 36.8889 42.102 36.8889 37C36.8889 31.898 32.7533 27.75 27.6667 27.75C22.58 27.75 18.4444 31.898 18.4444 37C18.4444 42.102 22.58 46.25 27.6667 46.25Z" fill="#05386B"/>
</svg>
