<svg width="107" height="107" viewBox="0 0 107 107" fill="none" xmlns="http://www.w3.org/2000/svg">
<path d="M86.9375 48.4844H79.832V25.0781C79.832 17.6905 73.8446 11.7031 66.457 11.7031H40.543C33.1554 11.7031 27.168 17.6905 27.168 25.0781V48.4844H20.0625C18.213 48.4844 16.7188 49.9786 16.7188 51.8281V91.9531C16.7188 93.8026 18.213 95.2969 20.0625 95.2969H86.9375C88.787 95.2969 90.2812 93.8026 90.2812 91.9531V51.8281C90.2812 49.9786 88.787 48.4844 86.9375 48.4844ZM56.4258 73.249V78.7871C56.4258 79.2469 56.0496 79.623 55.5898 79.623H51.4102C50.9504 79.623 50.5742 79.2469 50.5742 78.7871V73.249C49.7117 72.6297 49.0679 71.7528 48.7355 70.7443C48.4031 69.7358 48.3992 68.6479 48.7245 67.6371C49.0498 66.6263 49.6874 65.7448 50.5456 65.1195C51.4037 64.4941 52.4382 64.1572 53.5 64.1572C54.5618 64.1572 55.5963 64.4941 56.4544 65.1195C57.3126 65.7448 57.9502 66.6263 58.2755 67.6371C58.6008 68.6479 58.5969 69.7358 58.2645 70.7443C57.9321 71.7528 57.2883 72.6297 56.4258 73.249V73.249ZM72.3086 48.4844H34.6914V25.0781C34.6914 21.8493 37.3142 19.2266 40.543 19.2266H66.457C69.6858 19.2266 72.3086 21.8493 72.3086 25.0781V48.4844Z" fill="#05386B"/>
</svg>
