<svg width="28" height="28" viewBox="0 0 28 28" fill="none" xmlns="http://www.w3.org/2000/svg">
<path d="M12.8333 11.5196C11.7335 11.2357 10.775 10.5604 10.1376 9.62028C9.50008 8.6802 9.22734 7.5399 9.37046 6.41312C9.51358 5.28634 10.0627 4.25043 10.915 3.49958C11.7672 2.74872 12.8641 2.33447 13.9999 2.33447C15.1358 2.33447 16.2326 2.74872 17.0849 3.49958C17.9371 4.25043 18.4863 5.28634 18.6294 6.41312C18.7725 7.5399 18.4998 8.6802 17.8623 9.62028C17.2248 10.5604 16.2664 11.2357 15.1666 11.5196V14H19.8333C20.4521 14 21.0456 14.2458 21.4832 14.6834C21.9208 15.121 22.1666 15.7144 22.1666 16.3333V18.8136C23.2664 19.0976 24.2248 19.7729 24.8623 20.713C25.4998 21.653 25.7725 22.7933 25.6294 23.9201C25.4863 25.0469 24.9371 26.0828 24.0849 26.8337C23.2326 27.5845 22.1358 27.9988 20.9999 27.9988C19.8641 27.9988 18.7672 27.5845 17.915 26.8337C17.0627 26.0828 16.5136 25.0469 16.3705 23.9201C16.2273 22.7933 16.5001 21.653 17.1376 20.713C17.775 19.7729 18.7335 19.0976 19.8333 18.8136V16.3333H8.1666V18.8136C9.26636 19.0976 10.2248 19.7729 10.8623 20.713C11.4998 21.653 11.7725 22.7933 11.6294 23.9201C11.4863 25.0469 10.9371 26.0828 10.0849 26.8337C9.23261 27.5845 8.13577 27.9988 6.99993 27.9988C5.86409 27.9988 4.76725 27.5845 3.91499 26.8337C3.06273 26.0828 2.51358 25.0469 2.37046 23.9201C2.22734 22.7933 2.50008 21.653 3.13756 20.713C3.77504 19.7729 4.73349 19.0976 5.83326 18.8136V16.3333C5.83326 15.7144 6.0791 15.121 6.51668 14.6834C6.95427 14.2458 7.54776 14 8.1666 14H12.8333V11.5196Z" fill="#4ECB71"/>
</svg>
