<svg width="28" height="28" viewBox="0 0 28 28" fill="none" xmlns="http://www.w3.org/2000/svg">
<g clip-path="url(#clip0)">
<path d="M0.5502 0C0.2464 0 0 0.26404 0 0.5894V20.4106C0 20.736 0.2464 20.9997 0.5502 21H12.3026C11.8813 20.6457 11.496 20.2505 11.1524 19.8204H9.982C10.1388 19.4754 10.2886 19.1237 10.4345 18.7676C10.3436 18.6078 10.2582 18.4449 10.1786 18.2792C9.97518 18.7998 9.75537 19.3137 9.51944 19.8204H8.27904C8.7066 18.9406 9.09664 18.0373 9.42592 17.0817C8.77184 16.5432 8.35352 15.7282 8.35352 14.8198C8.35352 14.0493 8.65676 13.3476 9.1476 12.8232C7.4928 9.12436 4.5038 7.22316 1.10096 5.20296V3.89424C4.60572 5.96176 7.95088 7.93688 9.89996 11.8076C9.9638 11.6368 10.0344 11.4688 10.1094 11.3028C8.03964 7.4452 4.5962 5.4656 1.10096 3.40424V2.996C5.24692 5.75036 8.83288 7.18172 12.7607 8.06624C14.0689 7.126 15.6514 6.56544 17.2659 6.51896C17.4865 6.51225 17.7072 6.51412 17.9276 6.52456C18.4304 5.98668 18.9364 5.446 19.4524 4.89496C19.8971 4.41952 20.3358 3.94324 20.7768 3.46696C20.7326 3.4594 20.706 3.45604 20.6587 3.44764C20.0095 3.33132 19.3625 3.20306 18.718 3.06292C17.166 2.7286 15.1668 2.24616 13.1468 1.65452C12.6314 1.50328 12.118 1.34507 11.6068 1.17992H15.6537C16.7481 1.46508 17.8483 1.72778 18.9535 1.96784C19.7179 2.13248 20.3703 2.25988 20.853 2.34472C21.0941 2.387 21.2932 2.41892 21.4385 2.4388C21.5841 2.45868 21.7048 2.4626 21.6611 2.464L21.6628 2.50824C22.0637 2.0685 22.4613 1.62571 22.8556 1.17992H24.3485C23.0972 2.62472 21.6849 4.14904 20.2706 5.66048C19.941 6.01244 19.6238 6.35404 19.2987 6.70208C19.5115 6.748 19.7229 6.80176 19.9315 6.86448C22.4129 7.58156 24.4692 9.56732 25.3067 12.0064C25.7373 12.2584 26.1159 12.4779 26.3824 12.609C26.3699 12.6794 26.373 12.7518 26.3914 12.8209C26.4099 12.8901 26.4433 12.9543 26.4892 13.0092C26.5352 13.064 26.5926 13.1081 26.6575 13.1384C26.7223 13.1687 26.793 13.1844 26.8646 13.1844C26.8766 13.1844 26.8876 13.1802 26.899 13.1793V14.1677C26.8878 14.1669 26.8766 14.1644 26.8646 14.1644H26.861C26.731 14.1648 26.6066 14.2169 26.515 14.3092C26.4235 14.4014 26.3723 14.5262 26.3728 14.6562C26.3733 14.7861 26.4254 14.9106 26.5176 15.0021C26.6098 15.0937 26.7346 15.1448 26.8646 15.1444C26.8764 15.1444 26.8876 15.1418 26.899 15.141V16.1277C26.8878 16.1269 26.8766 16.1244 26.8646 16.1244C26.7346 16.1244 26.61 16.176 26.5181 16.2679C26.4262 16.3598 26.3746 16.4844 26.3746 16.6144C26.3746 16.7443 26.4262 16.8689 26.5181 16.9608C26.61 17.0527 26.7346 17.1044 26.8646 17.1044C26.8764 17.1044 26.8876 17.1018 26.899 17.101V19.8206H24.1872C24.2676 19.8772 24.3446 19.9382 24.4135 20.0082C24.6711 20.3367 24.9222 20.6699 25.177 21.0003H27.4498C27.7536 21.0003 28 20.7362 28 20.4109V0.5894C28 0.26404 27.7536 0.00028 27.4498 0H0.5502ZM6.82444 1.17964H10.2922C11.1966 1.49584 12.1091 1.78854 13.0287 2.05744C15.0615 2.65272 17.0691 3.13712 18.6298 3.47312C19.1265 3.58008 19.5558 3.66548 19.9489 3.74108C19.6798 4.0306 19.4158 4.31928 19.1461 4.6074L18.8502 4.92352C17.0321 4.35428 14.9523 3.78784 12.2774 3.227C10.3902 2.83164 8.57108 2.11708 6.82444 1.17964ZM17.3888 1.17964H22.288C22.0374 1.46076 21.7924 1.7388 21.5314 2.02552C21.5174 2.02412 21.5099 2.0244 21.4956 2.02244C21.305 1.99517 21.115 1.96455 20.9255 1.9306C20.4504 1.84688 19.8019 1.7206 19.0422 1.55708C18.4899 1.43701 17.9388 1.31119 17.3891 1.17964H17.3888ZM24.9057 1.17964H26.8993V2.40744C26.8876 2.4066 26.8764 2.40408 26.8646 2.40408H26.861C26.731 2.40456 26.6066 2.45665 26.515 2.54888C26.4235 2.64112 26.3723 2.76594 26.3728 2.8959C26.3733 3.02586 26.4254 3.1503 26.5176 3.24185C26.6098 3.3334 26.7346 3.38456 26.8646 3.38408C26.8764 3.38408 26.8876 3.38156 26.899 3.38072V4.36744C26.8878 4.3666 26.8766 4.36408 26.8646 4.36408H26.861C26.731 4.36456 26.6066 4.41665 26.515 4.50888C26.4235 4.60112 26.3723 4.72594 26.3728 4.8559C26.3733 4.98586 26.4254 5.1103 26.5176 5.20185C26.6098 5.2934 26.7346 5.34456 26.8646 5.34408C26.8764 5.34408 26.8876 5.34156 26.899 5.34072V6.32744C26.8878 6.3266 26.8766 6.32408 26.8646 6.32408C26.7346 6.32408 26.61 6.3757 26.5181 6.4676C26.4262 6.55949 26.3746 6.68412 26.3746 6.81408C26.3746 6.94404 26.4262 7.06867 26.5181 7.16056C26.61 7.25246 26.7346 7.30408 26.8646 7.30408C26.8764 7.30408 26.8876 7.30156 26.899 7.30072V7.66332C26.6776 7.59304 26.4516 7.52276 26.2357 7.4522C26.1805 7.39566 26.1125 7.3533 26.0374 7.32873C25.9624 7.30415 25.8824 7.2981 25.8045 7.31108C25.625 7.25144 25.4526 7.19208 25.277 7.13244C25.329 7.07169 25.3653 6.99914 25.3828 6.92113C25.4002 6.84312 25.3984 6.76202 25.3773 6.6849C25.3563 6.60778 25.3167 6.53698 25.262 6.47868C25.2073 6.42038 25.1391 6.37635 25.0635 6.35043C24.9879 6.32451 24.907 6.31749 24.8281 6.32997C24.7491 6.34246 24.6744 6.37407 24.6105 6.42206C24.5465 6.47005 24.4953 6.53296 24.4613 6.60529C24.4272 6.67762 24.4114 6.75718 24.4152 6.83704C24.0159 6.69732 23.625 6.5576 23.233 6.41816C23.156 6.36201 23.0644 6.32951 22.9692 6.32464C22.7704 6.2538 22.568 6.18268 22.3684 6.11184C22.4415 6.0057 22.47 5.87498 22.4474 5.74804C22.4249 5.62109 22.3532 5.50814 22.248 5.43368L21.8011 5.91248C21.5079 5.80888 21.1966 5.70584 20.8967 5.6028C22.2967 4.10592 23.6835 2.60512 24.9057 1.17964ZM26.3225 1.69484C25.9988 1.77492 25.7242 1.91548 25.4439 2.12744C25.4711 2.187 25.5101 2.24049 25.5584 2.28475C25.6067 2.329 25.6633 2.36312 25.7251 2.3851C25.7868 2.40707 25.8523 2.41644 25.9177 2.41267C25.9831 2.40889 26.047 2.39204 26.1058 2.36312C26.1646 2.33419 26.2169 2.29377 26.2598 2.24425C26.3027 2.19473 26.3352 2.13712 26.3555 2.07481C26.3757 2.01251 26.3832 1.94678 26.3776 1.88152C26.372 1.81625 26.3534 1.75278 26.3228 1.69484H26.3225ZM25.0846 2.43852C24.8656 2.64358 24.6538 2.85623 24.4496 3.07608C24.4797 3.15147 24.5281 3.21819 24.5904 3.27024C24.6527 3.3223 24.7269 3.35807 24.8065 3.37433C24.886 3.39058 24.9684 3.38682 25.0461 3.36339C25.1238 3.33995 25.1945 3.29756 25.2518 3.24005C25.3091 3.18253 25.3512 3.11168 25.3743 3.03386C25.3974 2.95604 25.4009 2.8737 25.3843 2.79422C25.3677 2.71475 25.3317 2.64064 25.2794 2.57855C25.2271 2.51647 25.1601 2.46835 25.0846 2.43852ZM25.881 3.38408C25.8166 3.38458 25.753 3.39774 25.6937 3.42283C25.6345 3.44791 25.5807 3.48442 25.5356 3.53027C25.4444 3.62287 25.3937 3.7479 25.3947 3.87786C25.3957 4.00782 25.4483 4.13205 25.5409 4.22324C25.6335 4.31442 25.7586 4.36508 25.8885 4.36408C26.0185 4.36308 26.1427 4.31049 26.2339 4.21789C26.3251 4.12529 26.3757 4.00026 26.3747 3.8703C26.3737 3.74034 26.3212 3.61611 26.2285 3.52492C26.1359 3.43374 26.0109 3.38308 25.881 3.38408ZM24.1226 3.42552L23.4909 4.102C23.5273 4.17118 23.5798 4.23064 23.6439 4.2754C23.708 4.32017 23.7819 4.34895 23.8593 4.35934C23.9368 4.36972 24.0157 4.36141 24.0893 4.3351C24.1629 4.30879 24.2292 4.26525 24.2826 4.2081C24.3359 4.15095 24.3748 4.08187 24.3961 4.00661C24.4173 3.93136 24.4202 3.85212 24.4045 3.77552C24.3888 3.69892 24.3551 3.62718 24.306 3.56629C24.257 3.5054 24.1941 3.45713 24.1226 3.42552ZM24.901 4.36408C24.8366 4.36458 24.773 4.37774 24.7137 4.40283C24.6545 4.42791 24.6007 4.46442 24.5556 4.51027C24.5104 4.55612 24.4748 4.61042 24.4506 4.67006C24.4264 4.7297 24.4142 4.79351 24.4147 4.85786C24.4152 4.92221 24.4284 4.98583 24.4535 5.04509C24.4786 5.10435 24.5151 5.15809 24.5609 5.20324C24.6068 5.24838 24.6611 5.28406 24.7207 5.30823C24.7804 5.33239 24.8442 5.34458 24.9085 5.34408C25.0385 5.34308 25.1627 5.29049 25.2539 5.19789C25.3451 5.10529 25.3957 4.98026 25.3947 4.8503C25.3937 4.72034 25.3412 4.59611 25.2486 4.50493C25.1559 4.41374 25.0309 4.36308 24.901 4.36408ZM23.1871 4.42792L22.5366 5.12484C22.5776 5.18651 22.6319 5.2381 22.6956 5.27575C22.7594 5.3134 22.8308 5.33613 22.9045 5.34223C22.9783 5.34833 23.0525 5.33764 23.1215 5.31097C23.1905 5.2843 23.2526 5.24233 23.3031 5.18823C23.3536 5.13412 23.3912 5.06928 23.4131 4.99857C23.4349 4.92786 23.4405 4.85312 23.4293 4.77996C23.4181 4.7068 23.3905 4.63711 23.3486 4.57614C23.3066 4.51517 23.2514 4.4645 23.1871 4.42792ZM23.9207 5.34408C23.8563 5.34459 23.7927 5.35778 23.7335 5.38288C23.6742 5.40798 23.6205 5.44451 23.5753 5.49037C23.5302 5.53623 23.4945 5.59054 23.4704 5.65019C23.4462 5.70983 23.4341 5.77365 23.4346 5.838C23.4351 5.90235 23.4483 5.96596 23.4734 6.02522C23.4985 6.08447 23.535 6.1382 23.5809 6.18333C23.6268 6.22847 23.6811 6.26413 23.7407 6.28828C23.8004 6.31243 23.8642 6.32459 23.9285 6.32408C24.0585 6.32308 24.1827 6.27049 24.2739 6.17789C24.3651 6.08529 24.4157 5.96026 24.4147 5.8303C24.4137 5.70034 24.3612 5.57611 24.2686 5.48492C24.1759 5.39374 24.0509 5.34308 23.921 5.34408H23.9207ZM25.8807 5.34408C25.7507 5.34512 25.6265 5.39774 25.5353 5.49037C25.4442 5.583 25.3936 5.70804 25.3946 5.838C25.3956 5.96796 25.4483 6.09218 25.5409 6.18333C25.6335 6.27449 25.7586 6.32512 25.8885 6.32408C26.0185 6.32308 26.1427 6.27049 26.2339 6.17789C26.3251 6.08529 26.3757 5.96026 26.3747 5.8303C26.3737 5.70034 26.3212 5.57611 26.2285 5.48492C26.1359 5.39374 26.0109 5.34308 25.881 5.34408H25.8807ZM1.10068 5.69352C4.31452 7.60872 7.07056 9.40996 8.65536 12.756C8.2054 13.3266 7.93352 14.0431 7.93352 14.8196C7.93352 15.7486 8.32048 16.5928 8.93928 17.2021C8.61336 18.1104 8.23088 18.9745 7.81256 19.8204H6.60072L7.37072 18.487L6.55256 18.0146L6.84404 17.5092L5.71088 16.8552L3.99868 19.8204H1.10068V10.0296L3.2522 11.3126L4.59004 9.06948L1.10096 6.98852V5.69352H1.10068ZM16.4237 10.477C16.1243 10.5594 15.8344 10.6726 15.5585 10.815L15.5579 10.8156C14.7756 11.727 14.1336 12.5356 13.7119 13.1858C14.0389 13.6679 14.2135 14.2372 14.2131 14.8198C14.2131 15.3219 14.0851 15.7954 13.86 16.2095C14.737 16.8952 15.4437 17.8189 16.0748 18.8465C16.2688 18.9174 16.4679 18.9736 16.6712 19.0148C16.0289 17.911 15.3065 16.886 14.3794 16.0896C14.5723 15.6262 14.657 15.125 14.6273 14.6239C14.5976 14.1229 14.4541 13.6351 14.2078 13.1978C14.7076 12.4723 15.4972 11.527 16.4237 10.477ZM18.8157 10.5006C18.7937 10.7264 18.7954 10.9538 18.8208 11.1793C18.8917 11.2117 18.9694 11.2267 19.0473 11.2229C19.1253 11.2192 19.2012 11.1968 19.2687 11.1577C19.3362 11.1187 19.3934 11.064 19.4354 10.9982C19.4775 10.9325 19.5032 10.8577 19.5104 10.78C19.2867 10.668 19.0548 10.5731 18.816 10.5006H18.8157ZM5.09516 11.1698L4.08072 12.927L3.40004 14.1058L5.15704 15.1206L5.838 13.9415L6.53576 14.3447L7.5502 12.5874L6.85244 12.1842L5.09516 11.17V11.1698ZM20.001 11.2241C19.9366 11.2246 19.873 11.2377 19.8137 11.2628C19.7545 11.2879 19.7007 11.3244 19.6556 11.3703C19.6104 11.4161 19.5748 11.4704 19.5506 11.5301C19.5264 11.5897 19.5142 11.6535 19.5147 11.7179C19.5152 11.7822 19.5284 11.8458 19.5535 11.9051C19.5786 11.9643 19.6151 12.0181 19.6609 12.0632C19.7068 12.1084 19.7611 12.1441 19.8207 12.1682C19.8804 12.1924 19.9442 12.2046 20.0085 12.2041C20.1385 12.2031 20.2627 12.1505 20.3539 12.0579C20.4451 11.9653 20.4957 11.8403 20.4947 11.7103C20.4937 11.5803 20.4412 11.4561 20.3486 11.3649C20.2559 11.2737 20.1309 11.2231 20.001 11.2241ZM20.981 12.2041C20.9166 12.2043 20.8529 12.2172 20.7936 12.2421C20.7342 12.2669 20.6803 12.3032 20.635 12.3489C20.5897 12.3946 20.5538 12.4487 20.5294 12.5082C20.505 12.5678 20.4925 12.6316 20.4928 12.6959C20.493 12.7602 20.5059 12.8239 20.5308 12.8833C20.5556 12.9426 20.5919 12.9965 20.6376 13.0418C20.6833 13.0872 20.7374 13.1231 20.7969 13.1475C20.8565 13.1719 20.9203 13.1843 20.9846 13.1841C21.2492 13.1841 21.4634 12.9741 21.4729 12.7114C21.3943 12.5558 21.3059 12.4052 21.2083 12.2606C21.1383 12.2235 21.0602 12.204 20.981 12.2041ZM19.1013 12.21C19.105 12.2186 19.1069 12.227 19.1111 12.2357C19.1057 12.5512 19.0928 12.8665 19.0722 13.1813C19.1906 13.1694 19.3006 13.1149 19.3817 13.0279C19.4629 12.9409 19.5096 12.8273 19.5131 12.7084C19.5167 12.5895 19.4769 12.4733 19.4011 12.3816C19.3253 12.2899 19.2188 12.2289 19.1013 12.21ZM20.001 13.1841C19.9366 13.1846 19.873 13.1977 19.8137 13.2228C19.7545 13.2479 19.7007 13.2844 19.6556 13.3303C19.6104 13.3761 19.5748 13.4304 19.5506 13.4901C19.5264 13.5497 19.5142 13.6135 19.5147 13.6779C19.5152 13.7422 19.5284 13.8058 19.5535 13.8651C19.5786 13.9243 19.6151 13.9781 19.6609 14.0232C19.7068 14.0684 19.7611 14.1041 19.8207 14.1282C19.8804 14.1524 19.9442 14.1646 20.0085 14.1641C20.1385 14.1631 20.2627 14.1105 20.3539 14.0179C20.4451 13.9253 20.4957 13.8003 20.4947 13.6703C20.4937 13.5403 20.4412 13.4161 20.3486 13.3249C20.2559 13.2337 20.1309 13.1831 20.001 13.1841ZM25.881 13.1841C25.7935 13.1851 25.7079 13.2096 25.6332 13.2552C25.6847 13.5481 25.7214 13.8432 25.7404 14.14C25.7863 14.154 25.8342 14.1641 25.8846 14.1641C25.9489 14.1638 26.0126 14.1509 26.072 14.1261C26.1313 14.1012 26.1852 14.0649 26.2305 14.0193C26.2759 13.9736 26.3118 13.9195 26.3362 13.8599C26.3606 13.8004 26.373 13.7366 26.3728 13.6723C26.3725 13.6079 26.3596 13.5442 26.3348 13.4849C26.3099 13.4255 26.2736 13.3716 26.228 13.3263C26.1823 13.281 26.1282 13.2451 26.0686 13.2207C26.0091 13.1963 25.9453 13.1838 25.881 13.1841ZM21.7092 13.2574C21.6377 13.3009 21.5785 13.3621 21.5374 13.4351C21.4963 13.508 21.4747 13.5903 21.4746 13.6741C21.4746 13.9297 21.6712 14.1372 21.9209 14.1596C21.8833 13.8521 21.8124 13.5496 21.7092 13.2574ZM20.981 14.1641C20.9166 14.1646 20.853 14.1777 20.7937 14.2028C20.7345 14.2279 20.6807 14.2644 20.6356 14.3103C20.5904 14.3561 20.5548 14.4104 20.5306 14.4701C20.5064 14.5297 20.4942 14.5935 20.4947 14.6579C20.4952 14.7222 20.5084 14.7858 20.5335 14.8451C20.5586 14.9043 20.5951 14.9581 20.6409 15.0032C20.6868 15.0484 20.7411 15.0841 20.8007 15.1082C20.8604 15.1324 20.9242 15.1446 20.9885 15.1441C21.1185 15.1431 21.2427 15.0905 21.3339 14.9979C21.4251 14.9053 21.4757 14.7803 21.4747 14.6503C21.4737 14.5203 21.4212 14.3961 21.3286 14.3049C21.2359 14.2137 21.1109 14.1631 20.981 14.1641ZM19.1066 14.1705C19.1694 14.3262 19.2909 14.4491 19.511 14.5944C19.4982 14.4897 19.452 14.3918 19.3791 14.3154C19.3063 14.239 19.2107 14.1882 19.1066 14.1705ZM25.881 15.1441C25.8334 15.145 25.7862 15.1529 25.741 15.1676C25.7237 15.4658 25.6907 15.7628 25.6418 16.0574C25.7138 16.0986 25.7958 16.1241 25.8846 16.1241C26.0146 16.1236 26.139 16.0715 26.2305 15.9793C26.3221 15.887 26.3733 15.7622 26.3728 15.6323C26.3723 15.5023 26.3202 15.3779 26.228 15.2863C26.1357 15.1948 26.0109 15.1436 25.881 15.1441ZM21.9318 15.1474C21.8081 15.1554 21.692 15.2101 21.6071 15.3005C21.5222 15.3908 21.4748 15.5101 21.4746 15.6341C21.4746 15.8245 21.5841 15.9877 21.7426 16.0689C21.8378 15.7693 21.901 15.4602 21.9318 15.1474ZM18.4271 15.6405C17.5232 15.6405 16.7815 16.3825 16.7815 17.2861C16.7815 18.1899 17.5235 18.9311 18.4271 18.9311C19.3306 18.9311 20.0721 18.1899 20.0721 17.2861C20.0721 16.3825 19.3306 15.6405 18.4271 15.6405ZM18.4271 16.4805C18.5331 16.4797 18.6381 16.5 18.7362 16.5403C18.8343 16.5805 18.9233 16.6398 18.9982 16.7148C19.0732 16.7897 19.1324 16.8788 19.1726 16.9769C19.2127 17.075 19.2329 17.1801 19.2321 17.2861C19.2329 17.392 19.2127 17.4971 19.1726 17.5952C19.1324 17.6932 19.0731 17.7823 18.9982 17.8572C18.9233 17.9321 18.8342 17.9914 18.7362 18.0315C18.6381 18.0717 18.533 18.0919 18.4271 18.0911C18.3211 18.0919 18.216 18.0717 18.1179 18.0316C18.0198 17.9914 17.9307 17.9322 17.8558 17.8572C17.7808 17.7823 17.7215 17.6933 17.6813 17.5952C17.641 17.4971 17.6207 17.3921 17.6215 17.2861C17.6207 17.1801 17.641 17.0749 17.6812 16.9768C17.7214 16.8787 17.7807 16.7896 17.8556 16.7146C17.9306 16.6397 18.0197 16.5804 18.1178 16.5402C18.2159 16.5 18.3211 16.4797 18.4271 16.4805Z" fill="#4ECB71"/>
<path d="M18.5161 7.69867C16.718 7.45507 14.8271 7.89523 13.2745 9.07767C10.1693 11.442 9.56537 15.9002 11.93 19.0054C14.1434 21.9118 18.1852 22.6126 21.24 20.7517L21.8232 21.5178C21.7664 21.6499 21.7397 21.7807 21.7448 21.9013C21.75 22.0219 21.7868 22.1293 21.8529 22.2161L26.0865 27.7755C26.2075 27.9344 26.4186 28.0144 26.6734 27.9979C26.9282 27.9814 27.2057 27.8698 27.445 27.6876C27.5636 27.5974 27.6692 27.4925 27.7558 27.379C27.8423 27.2655 27.9082 27.1456 27.9497 27.0261C27.9911 26.9066 28.0073 26.7899 27.9973 26.6827C27.9873 26.5754 27.9513 26.4797 27.8914 26.401L23.6578 20.8416C23.5916 20.7548 23.4979 20.6908 23.383 20.6538C23.2681 20.6168 23.1349 20.6078 22.9925 20.6274L22.409 19.861C25.0158 17.411 25.4153 13.3286 23.2022 10.4222C22.0198 8.86935 20.3143 7.94227 18.5161 7.69867ZM18.3061 9.24903C19.0237 9.3459 19.715 9.58368 20.3403 9.94869C20.9656 10.3137 21.5126 10.7987 21.9498 11.3759C22.3896 11.951 22.7116 12.6073 22.8971 13.3071C23.0827 14.0069 23.1282 14.7365 23.031 15.454C22.9338 16.1714 22.6959 16.8626 22.3309 17.4879C21.9659 18.1131 21.481 18.6601 20.904 19.0975C20.3289 19.5373 19.6726 19.8592 18.9728 20.0447C18.273 20.2303 17.5435 20.2757 16.8261 20.1786C16.1087 20.0814 15.4175 19.8435 14.7923 19.4785C14.167 19.1135 13.62 18.6286 13.1827 18.0517C12.7429 17.4766 12.4209 16.8204 12.2354 16.1206C12.0498 15.4208 12.0043 14.6913 12.1015 13.9738C12.1986 13.2564 12.4365 12.5652 12.8015 11.94C13.1664 11.3148 13.6513 10.7678 14.2282 10.3304C14.8031 9.89024 15.4593 9.5681 16.1592 9.38252C16.859 9.19693 17.5887 9.15157 18.3061 9.24903Z" fill="#4ECB71"/>
</g>
<defs>
<clipPath id="clip0">
<rect width="28" height="28" fill="white"/>
</clipPath>
</defs>
</svg>
