<svg width="68" height="44" viewBox="0 0 68 44" fill="none" xmlns="http://www.w3.org/2000/svg">
<path d="M24.25 21.3666V22.75C24.25 23.0373 24.3641 23.3129 24.5673 23.516C24.7704 23.7192 25.046 23.8333 25.3333 23.8333H26.4166C26.7039 23.8333 26.9795 23.7192 27.1827 23.516C27.3858 23.3129 27.5 23.0373 27.5 22.75V21.6667H40.5V22.75C40.5 23.0373 40.6141 23.3129 40.8173 23.516C41.0204 23.7192 41.296 23.8333 41.5833 23.8333H42.6666C42.9539 23.8333 43.2295 23.7192 43.4327 23.516C43.6358 23.3129 43.75 23.0373 43.75 22.75V21.3666C44.0786 21.1781 44.3518 20.9063 44.542 20.5786C44.7322 20.2509 44.8327 19.8789 44.8333 19.5V16.25C44.8333 15.3497 44.284 14.5795 43.503 14.2512L42.021 9.80525C41.806 9.15793 41.3925 8.59484 40.8392 8.19596C40.2859 7.79709 39.621 7.58272 38.9389 7.58333H29.061C28.379 7.58272 27.714 7.79709 27.1608 8.19596C26.6075 8.59484 26.1939 9.15793 25.979 9.80525L24.497 14.2512C24.103 14.4163 23.7665 14.694 23.5298 15.0496C23.2931 15.4052 23.1668 15.8228 23.1666 16.25V19.5C23.1666 20.2995 23.6043 20.9907 24.25 21.3666ZM26.9583 19.5C26.7448 19.4999 26.5335 19.4578 26.3363 19.3761C26.1391 19.2943 25.9599 19.1745 25.809 19.0235C25.5043 18.7186 25.3331 18.305 25.3333 17.8739C25.3334 17.4428 25.5048 17.0294 25.8098 16.7246C26.1147 16.4199 26.5283 16.2488 26.9594 16.2489C27.3905 16.2491 27.8039 16.4205 28.1086 16.7254C28.4134 17.0304 28.5845 17.4439 28.5844 17.875C28.5842 18.3061 28.4128 18.7195 28.1079 19.0243C27.8029 19.329 27.3894 19.5001 26.9583 19.5ZM41.0416 19.5C40.6105 19.4999 40.1971 19.3285 39.8924 19.0235C39.5876 18.7186 39.4165 18.305 39.4166 17.8739C39.4168 17.4428 39.5882 17.0294 39.8931 16.7246C40.1981 16.4199 40.6116 16.2488 41.0427 16.2489C41.4738 16.2491 41.8872 16.4205 42.192 16.7254C42.4967 17.0304 42.6679 17.4439 42.6677 17.875C42.6676 18.3061 42.4962 18.7195 42.1912 19.0243C41.8863 19.329 41.4727 19.5001 41.0416 19.5ZM29.061 9.75H38.9378C39.1653 9.74994 39.387 9.82148 39.5715 9.95448C39.756 10.0875 39.894 10.2752 39.9659 10.491L41.164 14.0833H26.8359L28.033 10.491C28.1814 10.0479 28.5952 9.75 29.061 9.75Z" fill="#05386B"/>
<path d="M44.8333 8.00367V5.71892L34.3423 2.22192C34.1104 2.14431 33.8591 2.14775 33.6295 2.23167L23.1666 6.03634V8.34167L34.0162 4.39617L44.8333 8.00367Z" fill="#05386B"/>
<path d="M1.08 40V32.5H2.925L3 33.85C3.25 33.35 3.59 32.975 4.02 32.725C4.46 32.475 4.945 32.35 5.475 32.35C6.015 32.35 6.5 32.475 6.93 32.725C7.37 32.965 7.7 33.335 7.92 33.835C8.15 33.335 8.505 32.965 8.985 32.725C9.465 32.475 9.96 32.35 10.47 32.35C10.96 32.35 11.405 32.45 11.805 32.65C12.215 32.85 12.54 33.15 12.78 33.55C13.02 33.95 13.14 34.46 13.14 35.08V40H11.085V35.485C11.085 34.935 10.96 34.545 10.71 34.315C10.47 34.085 10.165 33.97 9.795 33.97C9.335 33.97 8.945 34.14 8.625 34.48C8.305 34.81 8.145 35.305 8.145 35.965V40H6.09V35.485C6.09 34.935 5.965 34.545 5.715 34.315C5.475 34.085 5.165 33.97 4.785 33.97C4.525 33.97 4.265 34.04 4.005 34.18C3.755 34.32 3.545 34.54 3.375 34.84C3.215 35.14 3.135 35.535 3.135 36.025V40H1.08ZM21.7314 32.5L18.7014 40.465C18.4614 41.145 18.1914 41.685 17.8914 42.085C17.6014 42.495 17.2614 42.785 16.8714 42.955C16.4914 43.135 16.0364 43.225 15.5064 43.225C15.1164 43.225 14.7564 43.18 14.4264 43.09C14.1064 43 13.8264 42.875 13.5864 42.715L14.0214 41.23C14.3714 41.51 14.8114 41.65 15.3414 41.65C15.6314 41.65 15.8764 41.59 16.0764 41.47C16.2764 41.35 16.4464 41.11 16.5864 40.75L16.8414 40.105L16.0164 38.155L13.7214 32.5H16.0014L17.4264 37L17.8164 38.5L18.2814 36.91L19.6464 32.5H21.7314ZM27.7226 35.14V36.91H22.4276V35.14H27.7226ZM32.7698 40.15C32.0098 40.15 31.3148 40.015 30.6848 39.745C30.0648 39.475 29.5598 39.095 29.1698 38.605L30.3548 37.405C30.5948 37.765 30.9148 38.06 31.3148 38.29C31.7148 38.52 32.1898 38.635 32.7398 38.635C33.1298 38.635 33.4398 38.58 33.6698 38.47C33.9098 38.35 34.0298 38.165 34.0298 37.915C34.0298 37.755 33.9748 37.62 33.8648 37.51C33.7548 37.39 33.5348 37.295 33.2048 37.225L31.8848 36.955C31.0148 36.775 30.3948 36.505 30.0248 36.145C29.6648 35.775 29.4848 35.3 29.4848 34.72C29.4848 34.31 29.6048 33.925 29.8448 33.565C30.0948 33.205 30.4648 32.915 30.9548 32.695C31.4448 32.465 32.0548 32.35 32.7848 32.35C34.3048 32.35 35.3948 32.815 36.0548 33.745L34.8248 34.945C34.6048 34.595 34.3148 34.33 33.9548 34.15C33.6048 33.96 33.2348 33.865 32.8448 33.865C31.9648 33.865 31.5248 34.11 31.5248 34.6C31.5248 34.76 31.5948 34.9 31.7348 35.02C31.8748 35.13 32.1298 35.225 32.4998 35.305L34.0298 35.62C34.7698 35.77 35.2998 36.025 35.6198 36.385C35.9398 36.735 36.0998 37.16 36.0998 37.66C36.0998 38.38 35.8098 38.975 35.2298 39.445C34.6598 39.915 33.8398 40.15 32.7698 40.15ZM37.4386 43.15V32.5H39.2836L39.3736 33.97C39.5836 33.49 39.9036 33.1 40.3336 32.8C40.7736 32.5 41.2886 32.35 41.8786 32.35C42.4886 32.35 43.0336 32.505 43.5136 32.815C43.9936 33.125 44.3686 33.57 44.6386 34.15C44.9186 34.72 45.0586 35.415 45.0586 36.235C45.0586 37.055 44.9186 37.76 44.6386 38.35C44.3586 38.93 43.9736 39.375 43.4836 39.685C43.0036 39.995 42.4536 40.15 41.8336 40.15C41.2836 40.15 40.8086 40.02 40.4086 39.76C40.0186 39.5 39.7136 39.155 39.4936 38.725V43.15H37.4386ZM41.2336 38.575C41.7836 38.575 42.2136 38.38 42.5236 37.99C42.8436 37.59 43.0036 37.01 43.0036 36.25C43.0036 35.49 42.8486 34.915 42.5386 34.525C42.2386 34.125 41.8136 33.925 41.2636 33.925C40.7336 33.925 40.3036 34.13 39.9736 34.54C39.6536 34.95 39.4936 35.52 39.4936 36.25C39.4936 36.97 39.6486 37.54 39.9586 37.96C40.2786 38.37 40.7036 38.575 41.2336 38.575ZM49.9629 32.35C50.7129 32.35 51.3779 32.505 51.9579 32.815C52.5379 33.125 52.9879 33.57 53.3079 34.15C53.6379 34.73 53.8029 35.43 53.8029 36.25C53.8029 37.07 53.6379 37.77 53.3079 38.35C52.9879 38.93 52.5379 39.375 51.9579 39.685C51.3779 39.995 50.7129 40.15 49.9629 40.15C49.2029 40.15 48.5329 39.995 47.9529 39.685C47.3829 39.375 46.9329 38.93 46.6029 38.35C46.2829 37.77 46.1229 37.07 46.1229 36.25C46.1229 35.43 46.2829 34.73 46.6029 34.15C46.9329 33.57 47.3829 33.125 47.9529 32.815C48.5329 32.505 49.2029 32.35 49.9629 32.35ZM49.9629 33.88C49.4029 33.88 48.9629 34.08 48.6429 34.48C48.3329 34.87 48.1779 35.46 48.1779 36.25C48.1779 37.04 48.3329 37.635 48.6429 38.035C48.9629 38.425 49.4029 38.62 49.9629 38.62C50.5129 38.62 50.9429 38.425 51.2529 38.035C51.5729 37.635 51.7329 37.04 51.7329 36.25C51.7329 35.46 51.5729 34.87 51.2529 34.48C50.9429 34.08 50.5129 33.88 49.9629 33.88ZM60.1895 32.5V34.03H57.7895V37.555C57.7895 37.915 57.8795 38.18 58.0595 38.35C58.2495 38.51 58.5045 38.59 58.8245 38.59C59.0845 38.59 59.3045 38.555 59.4845 38.485C59.6745 38.405 59.8445 38.3 59.9945 38.17L60.3245 39.535C60.0745 39.725 59.7695 39.875 59.4095 39.985C59.0595 40.095 58.6845 40.15 58.2845 40.15C57.5345 40.15 56.9195 39.98 56.4395 39.64C55.9695 39.29 55.7345 38.705 55.7345 37.885V34.03H54.3545V32.5H55.7345V30.775L57.7895 30.205V32.5H60.1895ZM64.2798 40.15C63.5198 40.15 62.8248 40.015 62.1948 39.745C61.5748 39.475 61.0698 39.095 60.6798 38.605L61.8648 37.405C62.1048 37.765 62.4248 38.06 62.8248 38.29C63.2248 38.52 63.6998 38.635 64.2498 38.635C64.6398 38.635 64.9498 38.58 65.1798 38.47C65.4198 38.35 65.5398 38.165 65.5398 37.915C65.5398 37.755 65.4848 37.62 65.3748 37.51C65.2648 37.39 65.0448 37.295 64.7148 37.225L63.3948 36.955C62.5248 36.775 61.9048 36.505 61.5348 36.145C61.1748 35.775 60.9948 35.3 60.9948 34.72C60.9948 34.31 61.1148 33.925 61.3548 33.565C61.6048 33.205 61.9748 32.915 62.4648 32.695C62.9548 32.465 63.5648 32.35 64.2948 32.35C65.8148 32.35 66.9048 32.815 67.5648 33.745L66.3348 34.945C66.1148 34.595 65.8248 34.33 65.4648 34.15C65.1148 33.96 64.7448 33.865 64.3548 33.865C63.4748 33.865 63.0348 34.11 63.0348 34.6C63.0348 34.76 63.1048 34.9 63.2448 35.02C63.3848 35.13 63.6398 35.225 64.0098 35.305L65.5398 35.62C66.2798 35.77 66.8098 36.025 67.1298 36.385C67.4498 36.735 67.6098 37.16 67.6098 37.66C67.6098 38.38 67.3198 38.975 66.7398 39.445C66.1698 39.915 65.3498 40.15 64.2798 40.15Z" fill="#05386B"/>
</svg>
